<svg width="21" height="21" fill="none" xmlns="http://www.w3.org/2000/svg"><g clip-path="url(#a)"><path d="M14.006 3.452A4.923 4.923 0 0 0 10.5 2c-1.325 0-2.57.516-3.506 1.452a4.966 4.966 0 0 0 .005 7.018l1.768 1.728a2.472 2.472 0 0 0 1.733.701c.628 0 1.255-.234 1.733-.701l1.773-1.734a4.927 4.927 0 0 0 1.452-3.506 4.926 4.926 0 0 0-1.452-3.506ZM10.5 9.076a2.125 2.125 0 1 1 0-4.25 2.125 2.125 0 0 1 0 4.25Zm8.5 4.797a.708.708 0 0 1-.343.611l-6.985 4.192a2.275 2.275 0 0 1-2.342 0l-6.986-4.192a.708.708 0 0 1 .007-1.218l3.439-2.013c.07.078.143.155.218.23l1.768 1.728a3.873 3.873 0 0 0 2.724 1.105 3.874 3.874 0 0 0 2.724-1.105l1.784-1.745c.07-.07.137-.14.203-.213l3.438 2.012a.71.71 0 0 1 .351.608Z" fill="#fff"/></g><defs><clipPath id="a"><path fill="#fff" transform="translate(2 2)" d="M0 0h17v17H0z"/></clipPath></defs></svg>