<svg width="60" height="60" fill="none" xmlns="http://www.w3.org/2000/svg"><path d="M45.14 49.134c.8.794.694 2.122-.295 2.664C40.24 54.319 34.77 54.83 30 54.83c-4.478 0-9.571-.45-13.987-2.589-1.047-.507-1.193-1.883-.366-2.702l13.67-13.537a1.818 1.818 0 0 1 2.559 0l13.263 13.132Zm-21.016-20.81a1.818 1.818 0 0 1 0 2.585L10.467 44.433c-.819.81-2.177.665-2.69-.365C6.042 40.59 5 36.014 5 30c0-6.338 1.159-11.08 3.062-14.62.535-.994 1.864-1.115 2.666-.321l13.396 13.265Zm25.547-12.476c.827-.819 2.2-.66 2.703.39C54.017 19.677 55 24.16 55 30c0 5.52-.88 9.83-2.364 13.189-.48 1.084-1.883 1.27-2.725.435L37.07 30.909a1.818 1.818 0 0 1 0-2.584l12.6-12.477ZM30 5.17c4.582 0 9.808.47 14.294 2.74 1.026.52 1.158 1.88.34 2.69L31.876 23.232a1.818 1.818 0 0 1-2.559 0L16.172 10.217c-.843-.835-.67-2.24.413-2.724C20.865 5.582 25.715 5.17 30 5.17Z" fill="#BF1F1F"/></svg>