<svg width="25" height="25" fill="none" xmlns="http://www.w3.org/2000/svg"><g clip-path="url(#a)"><path d="m17.029 15.337-8.137 8.137A5.173 5.173 0 0 1 5.209 25a5.173 5.173 0 0 1-3.682-1.525 5.215 5.215 0 0 1 0-7.366l8.137-8.137 7.366 7.366h-.001ZM15.376.04l-1.473 1.473 1.108 1.108-3.875 3.875 7.366 7.366 3.876-3.876 1.108 1.108 1.473-1.473-9.583-9.58Zm8.403 23.738a4.136 4.136 0 0 0 1.22-2.945c0-1.113-.432-2.16-1.228-2.955l-2.938-2.874-2.946 2.883a4.137 4.137 0 0 0-1.22 2.945c0 1.113.433 2.16 1.22 2.946A4.138 4.138 0 0 0 20.833 25a4.138 4.138 0 0 0 2.946-1.22Z" fill="#BF1F1F"/></g><defs><clipPath id="a"><path fill="#fff" d="M0 0h25v25H0z"/></clipPath></defs></svg>