<svg width="34" height="34" viewBox="0 0 34 34" fill="none" xmlns="http://www.w3.org/2000/svg">
<g clip-path="url(#clip0_157_2289)">
<path d="M0 26.9166C0.00224946 28.7946 0.749249 30.5949 2.07714 31.9228C3.40504 33.2507 5.20541 33.9977 7.08333 34H26.9167C28.7946 33.9977 30.595 33.2507 31.9229 31.9228C33.2508 30.5949 33.9977 28.7946 34 26.9166V14.1666H0V26.9166ZM24.0833 20.5416C24.5036 20.5416 24.9145 20.6663 25.2639 20.8998C25.6134 21.1333 25.8857 21.4651 26.0466 21.8534C26.2074 22.2417 26.2495 22.669 26.1675 23.0812C26.0855 23.4934 25.8831 23.872 25.5859 24.1692C25.2887 24.4664 24.9101 24.6688 24.4979 24.7508C24.0857 24.8328 23.6584 24.7907 23.2701 24.6299C22.8818 24.469 22.55 24.1967 22.3165 23.8472C22.083 23.4978 21.9583 23.0869 21.9583 22.6666C21.9583 22.103 22.1822 21.5625 22.5807 21.164C22.9792 20.7655 23.5197 20.5416 24.0833 20.5416ZM17 20.5416C17.4203 20.5416 17.8311 20.6663 18.1806 20.8998C18.53 21.1333 18.8024 21.4651 18.9632 21.8534C19.1241 22.2417 19.1662 22.669 19.0842 23.0812C19.0022 23.4934 18.7998 23.872 18.5026 24.1692C18.2054 24.4664 17.8268 24.6688 17.4146 24.7508C17.0024 24.8328 16.5751 24.7907 16.1868 24.6299C15.7985 24.469 15.4666 24.1967 15.2331 23.8472C14.9996 23.4978 14.875 23.0869 14.875 22.6666C14.875 22.103 15.0989 21.5625 15.4974 21.164C15.8959 20.7655 16.4364 20.5416 17 20.5416ZM9.91667 20.5416C10.337 20.5416 10.7478 20.6663 11.0973 20.8998C11.4467 21.1333 11.7191 21.4651 11.8799 21.8534C12.0407 22.2417 12.0828 22.669 12.0008 23.0812C11.9188 23.4934 11.7165 23.872 11.4193 24.1692C11.1221 24.4664 10.7434 24.6688 10.3312 24.7508C9.91902 24.8328 9.49176 24.7907 9.10346 24.6299C8.71517 24.469 8.38329 24.1967 8.14979 23.8472C7.9163 23.4978 7.79167 23.0869 7.79167 22.6666C7.79167 22.103 8.01555 21.5625 8.41406 21.164C8.81258 20.7655 9.35308 20.5416 9.91667 20.5416Z" fill="#BF1F1F"/>
<path d="M26.9167 2.83333H25.5V1.41667C25.5 1.04094 25.3507 0.680609 25.0851 0.414932C24.8194 0.149256 24.4591 0 24.0833 0C23.7076 0 23.3473 0.149256 23.0816 0.414932C22.8159 0.680609 22.6667 1.04094 22.6667 1.41667V2.83333H11.3333V1.41667C11.3333 1.04094 11.1841 0.680609 10.9184 0.414932C10.6527 0.149256 10.2924 0 9.91667 0C9.54094 0 9.18061 0.149256 8.91493 0.414932C8.64926 0.680609 8.5 1.04094 8.5 1.41667V2.83333H7.08333C5.20541 2.83558 3.40504 3.58258 2.07714 4.91048C0.749249 6.23837 0.00224946 8.03874 0 9.91667L0 11.3333H34V9.91667C33.9977 8.03874 33.2508 6.23837 31.9229 4.91048C30.595 3.58258 28.7946 2.83558 26.9167 2.83333Z" fill="#BF1F1F"/>
</g>
<defs>
<clipPath id="clip0_157_2289">
<rect width="34" height="34" fill="white"/>
</clipPath>
</defs>
</svg>
