<svg width="34" height="34" fill="none" xmlns="http://www.w3.org/2000/svg"><g clip-path="url(#a)" fill="#BF1F1F"><path d="M0 26.917A7.092 7.092 0 0 0 7.083 34h19.834A7.092 7.092 0 0 0 34 26.917v-12.75H0v12.75Zm24.083-6.375a2.125 2.125 0 1 1 0 4.25 2.125 2.125 0 0 1 0-4.25Zm-7.083 0a2.125 2.125 0 1 1 0 4.25 2.125 2.125 0 0 1 0-4.25Zm-7.083 0a2.125 2.125 0 1 1 0 4.25 2.125 2.125 0 0 1 0-4.25Zm17-17.709H25.5V1.417a1.417 1.417 0 0 0-2.833 0v1.416H11.333V1.417a1.417 1.417 0 1 0-2.833 0v1.416H7.083A7.092 7.092 0 0 0 0 9.917v1.416h34V9.917a7.092 7.092 0 0 0-7.083-7.084Z"/></g><defs><clipPath id="a"><path fill="#fff" d="M0 0h34v34H0z"/></clipPath></defs></svg>