<svg width="24" height="24" viewBox="0 0 24 24" fill="none" xmlns="http://www.w3.org/2000/svg">
<g clip-path="url(#clip0_324_5333)">
<path d="M15 6.99999V2.99999C15 2.73477 15.1054 2.48042 15.2929 2.29288C15.4804 2.10535 15.7348 1.99999 16 1.99999C16.2652 1.99999 16.5196 2.10535 16.7071 2.29288C16.8947 2.48042 17 2.73477 17 2.99999V5.61299C17.63 4.98099 21.7 0.88699 22.293 0.29999C22.4816 0.117832 22.7342 0.0170372 22.9964 0.0193156C23.2586 0.021594 23.5094 0.126763 23.6948 0.312171C23.8802 0.497579 23.9854 0.748392 23.9877 1.01059C23.99 1.27279 23.8892 1.52539 23.707 1.71399C23.115 2.29999 19.064 6.37299 18.439 6.99999H21C21.2652 6.99999 21.5196 7.10535 21.7071 7.29288C21.8947 7.48042 22 7.73477 22 7.99999C22 8.26521 21.8947 8.51956 21.7071 8.7071C21.5196 8.89463 21.2652 8.99999 21 8.99999H17C16.4696 8.99999 15.9609 8.78928 15.5858 8.4142C15.2107 8.03913 15 7.53042 15 6.99999ZM20.655 14.855C20.0776 14.3056 19.3108 13.9997 18.5138 14.0008C17.7168 14.002 16.9509 14.31 16.375 14.861L14.469 16.467C12.9133 15.8232 11.5 14.8784 10.3104 13.687C9.12085 12.4955 8.17833 11.0807 7.53701 9.52399L9.13701 7.62399C9.68655 7.04699 9.99356 6.28101 9.99468 5.48419C9.9958 4.68737 9.69093 3.92053 9.14301 3.34199C9.14301 3.34199 7.29101 0.93899 7.26001 0.90799C6.68946 0.333738 5.91589 0.00701166 5.10644 -0.00159557C4.29698 -0.0102028 3.51664 0.3 2.93401 0.86199L1.78401 1.86199C-5.93499 10.072 13.984 30 22.184 22.162L23.096 21.112C23.6752 20.5309 24.0005 19.7439 24.0005 18.9235C24.0005 18.103 23.6752 17.3161 23.096 16.735C23.063 16.708 20.655 14.856 20.655 14.856V14.855Z" fill="white"/>
</g>
<defs>
<clipPath id="clip0_324_5333">
<rect width="24" height="24" fill="white"/>
</clipPath>
</defs>
</svg>
