<svg width="60" height="60" viewBox="0 0 60 60" fill="none" xmlns="http://www.w3.org/2000/svg">
<path d="M38.9995 12.0408C41.5099 12.143 43.9419 12.9437 46.022 14.3528C48.1021 15.7619 49.7477 17.7236 50.7736 20.017L54.2115 27.7501H41.2495C40.6527 27.7501 40.0805 27.5131 39.6585 27.0911C39.2366 26.6692 38.9995 26.0969 38.9995 25.5002V12.0408ZM23.1192 50.2498C23.2016 50.6193 23.2454 50.9963 23.2497 51.3748C23.2497 52.8666 22.6571 54.2974 21.6022 55.3522C20.5473 56.4071 19.1166 56.9997 17.6248 56.9997C16.133 56.9997 14.7023 56.4071 13.6474 55.3522C12.5925 54.2974 11.9999 52.8666 11.9999 51.3748C12.0042 50.9963 12.048 50.6193 12.1304 50.2498H23.1192ZM47.8689 50.2498C47.9513 50.6193 47.995 50.9963 47.9994 51.3748C47.9994 52.8666 47.4068 54.2974 46.3519 55.3522C45.297 56.4071 43.8663 56.9997 42.3745 56.9997C40.8826 56.9997 39.4519 56.4071 38.397 55.3522C37.3422 54.2974 36.7495 52.8666 36.7495 51.3748C36.7539 50.9963 36.7976 50.6193 36.88 50.2498H47.8689ZM56.9993 39.2745C57.0084 40.1508 56.838 41.0198 56.4984 41.8277C56.1589 42.6357 55.6574 43.3655 55.025 43.9723C54.3926 44.579 53.6425 45.0497 52.8212 45.3554C51.9998 45.6612 51.1246 45.7954 50.2493 45.7499H9.74991C7.95972 45.7499 6.24286 45.0387 4.977 43.7729C3.71115 42.507 3 40.7902 3 39L3 23.2502C3.00357 20.2676 4.18997 17.4083 6.29895 15.2993C8.40793 13.1903 11.2673 12.0039 14.2498 12.0003H23.6997L25.1847 6.05593C25.4037 5.18351 25.9079 4.40924 26.6172 3.85604C27.3264 3.30283 28.2001 3.00238 29.0996 3.00238C29.9991 3.00238 30.8729 3.30283 31.5821 3.85604C32.2914 4.40924 32.7956 5.18351 33.0146 6.05593L34.4996 12.0003V25.5002C34.4996 27.2903 35.2107 29.0072 36.4766 30.2731C37.7424 31.5389 39.4593 32.2501 41.2495 32.2501H55.9575C56.5338 34.5518 56.8827 36.9046 56.9993 39.2745ZM25.4997 30.0001C25.4997 29.4034 25.2626 28.8311 24.8407 28.4091C24.4187 27.9872 23.8465 27.7501 23.2497 27.7501H20.9998V25.5002C20.9998 24.9034 20.7627 24.3311 20.3408 23.9092C19.9188 23.4872 19.3465 23.2502 18.7498 23.2502C18.1531 23.2502 17.5808 23.4872 17.1588 23.9092C16.7369 24.3311 16.4998 24.9034 16.4998 25.5002V27.7501H14.2498C13.6531 27.7501 13.0808 27.9872 12.6589 28.4091C12.2369 28.8311 11.9999 29.4034 11.9999 30.0001C11.9999 30.5968 12.2369 31.1691 12.6589 31.5911C13.0808 32.013 13.6531 32.2501 14.2498 32.2501H16.4998V34.5C16.4998 35.0968 16.7369 35.6691 17.1588 36.091C17.5808 36.513 18.1531 36.75 18.7498 36.75C19.3465 36.75 19.9188 36.513 20.3408 36.091C20.7627 35.6691 20.9998 35.0968 20.9998 34.5V32.2501H23.2497C23.8465 32.2501 24.4187 32.013 24.8407 31.5911C25.2626 31.1691 25.4997 30.5968 25.4997 30.0001Z" fill="#BF1F1F"/>
</svg>
