<svg width="60" height="60" fill="none" xmlns="http://www.w3.org/2000/svg"><path d="M39 12.04a13.5 13.5 0 0 1 11.774 7.977l3.438 7.733H41.248A2.25 2.25 0 0 1 39 25.5V12.04ZM23.12 50.25c.082.37.125.746.13 1.125a5.625 5.625 0 1 1-11.25 0c.004-.379.048-.756.13-1.125h10.99Zm24.749 0c.082.37.126.746.13 1.125a5.625 5.625 0 1 1-11.25 0 5.46 5.46 0 0 1 .131-1.125h10.989Zm9.13-10.975a6.417 6.417 0 0 1-6.75 6.475H9.75A6.75 6.75 0 0 1 3 39V23.25A11.263 11.263 0 0 1 14.25 12h9.45l1.485-5.944a4.036 4.036 0 0 1 7.83 0L34.5 12v13.5a6.75 6.75 0 0 0 6.75 6.75h14.708a36.257 36.257 0 0 1 1.041 7.025ZM25.5 30a2.25 2.25 0 0 0-2.25-2.25H21V25.5a2.25 2.25 0 1 0-4.5 0v2.25h-2.25a2.25 2.25 0 0 0 0 4.5h2.25v2.25a2.25 2.25 0 1 0 4.5 0v-2.25h2.25A2.25 2.25 0 0 0 25.5 30Z" fill="#BF1F1F"/></svg>