<svg width="24" height="24" viewBox="0 0 24 24" fill="none" xmlns="http://www.w3.org/2000/svg">
<g clip-path="url(#clip0_324_5330)">
<path d="M20.5 7C22.43 7 24 5.43 24 3.5C24 1.57 22.43 0 20.5 0C18.57 0 17 1.57 17 3.5C17 5.43 18.57 7 20.5 7ZM16.092 19L16.661 19.38C15.747 20.37 14.45 21 13 21H7.303L3.339 23.644C2.98 23.883 2.591 24 2.149 24C1.801 24 1.453 23.919 1.134 23.748C0.435 23.373 0 22.647 0 21.854V9C0 6.563 1.755 4.534 4.065 4.094C4.026 4.391 4 4.692 4 5V12C4 15.859 7.141 19 11 19H16.092ZM24 7.739V17.854C24 18.647 23.565 19.373 22.866 19.748C22.548 19.919 22.199 20.003 21.851 20.003C21.435 20.003 21.02 19.882 20.66 19.643L16.697 17H11C8.243 17 6 14.757 6 12V5C6 2.243 8.243 0 11 0H16.261C15.474 0.952 15 2.171 15 3.5C15 6.533 17.467 9 20.5 9C21.829 9 23.048 8.526 24 7.739Z" fill="white"/>
</g>
<defs>
<clipPath id="clip0_324_5330">
<rect width="24" height="24" fill="white"/>
</clipPath>
</defs>
</svg>
