<svg width="24" height="24" fill="none" xmlns="http://www.w3.org/2000/svg"><g clip-path="url(#a)"><path d="M20.5 7C22.43 7 24 5.43 24 3.5S22.43 0 20.5 0 17 1.57 17 3.5 18.57 7 20.5 7Zm-4.408 12 .569.38A4.97 4.97 0 0 1 13 21H7.303l-3.964 2.644a2.082 2.082 0 0 1-1.19.356A2.14 2.14 0 0 1 0 21.854V9c0-2.437 1.755-4.466 4.065-4.906A6.937 6.937 0 0 0 4 5v7c0 3.859 3.141 7 7 7h5.092ZM24 7.739v10.115a2.147 2.147 0 0 1-3.34 1.789L16.697 17H11c-2.757 0-5-2.243-5-5V5c0-2.757 2.243-5 5-5h5.261A5.475 5.475 0 0 0 15 3.5C15 6.533 17.467 9 20.5 9A5.475 5.475 0 0 0 24 7.739Z" fill="#fff"/></g><defs><clipPath id="a"><path fill="#fff" d="M0 0h24v24H0z"/></clipPath></defs></svg>