<svg width="32" height="32" fill="none" xmlns="http://www.w3.org/2000/svg"><path d="M28.667 8.667a1.333 1.333 0 0 1-.948-2.27l2-2.024a1.333 1.333 0 1 1 1.896 1.875l-2 2.023c-.26.264-.604.396-.948.396Zm-4.34-4.354 1.226-2.366A1.334 1.334 0 0 0 23.187.719L21.96 3.085a1.334 1.334 0 0 0 2.367 1.228ZM4.27 8.281a1.333 1.333 0 0 0 .01-1.885l-2-2.023A1.333 1.333 0 1 0 .385 6.248l2 2.023c.26.264.604.396.948.396.339 0 .678-.128.938-.386Zm5.2-3.397a1.332 1.332 0 0 0 .569-1.797L8.813.72a1.333 1.333 0 0 0-2.366 1.228l1.226 2.367a1.334 1.334 0 0 0 1.798.57Zm17.65 18.678c-.252.278-.61.438-.988.438H5.868a1.332 1.332 0 0 1-1.327-1.466l.88-8.798A6.35 6.35 0 0 1 11.76 8h8.481a6.35 6.35 0 0 1 6.339 5.736l.88 8.797c.037.375-.087.748-.34 1.028ZM16 14.667c0-.736-.597-1.333-1.333-1.333h-2.639c-.685 0-1.259.518-1.327 1.2l-.266 2.666a1.334 1.334 0 0 0 2.654.267L13.236 16h1.433c.736 0 1.334-.597 1.334-1.333H16Zm16 16c0 .736-.597 1.333-1.333 1.333H1.333A1.334 1.334 0 0 1 0 30.667a4 4 0 0 1 4-4h24a4 4 0 0 1 4 4Z" fill="#fff"/></svg>