<svg width="32" height="32" fill="none" xmlns="http://www.w3.org/2000/svg"><path d="M14.667 0C6.567 0 0 6.567 0 14.667c0 7.262 5.285 13.277 12.216 14.445a4.87 4.87 0 0 1 .608-1.721l6.41-10.99A4.796 4.796 0 0 1 23.415 14c1.74 0 3.303.897 4.18 2.401l1.22 2.09c.329-1.222.52-2.499.52-3.823C29.335 6.567 22.768 0 14.668 0ZM16 14.667c0 .736-.596 1.333-1.333 1.333H9.333a1.333 1.333 0 1 1 0-2.667h4V8A1.333 1.333 0 1 1 16 8v6.667Zm5.539 3.077-6.411 10.99c-.844 1.447.2 3.266 1.876 3.266h12.821c1.676 0 2.722-1.819 1.876-3.267l-6.41-10.989c-.839-1.437-2.915-1.437-3.752 0Zm1.876 12.923a1.334 1.334 0 1 1 0-2.668 1.334 1.334 0 0 1 0 2.668Zm-1.334-5.334v-2.669a1.334 1.334 0 0 1 2.667 0v2.67a1.334 1.334 0 0 1-2.667 0Z" fill="#BF1F1F"/></svg>