<svg width="25" height="25" fill="none" xmlns="http://www.w3.org/2000/svg"><g clip-path="url(#a)"><path d="M12.5 7.292V.479c.951.36 1.826.916 2.568 1.656l3.629 3.632a7.245 7.245 0 0 1 1.657 2.566h-6.812A1.043 1.043 0 0 1 12.5 7.292Zm-.884 12.5H5.208a1.04 1.04 0 1 1 0-2.084h6.25v-2.083h-6.25a1.04 1.04 0 1 1 0-2.083h6.286a4.156 4.156 0 0 1 2.155-3.125h-.107a3.129 3.129 0 0 1-3.125-3.125V.025C10.249.014 10.08 0 9.91 0H5.208A5.214 5.214 0 0 0 0 5.208v14.584A5.214 5.214 0 0 0 5.208 25h9.874c-1.449-1.169-2.979-2.899-3.465-5.208h-.001Zm8.262 5.06C21.08 24.37 25 22.465 25 18.267v-4.185a2.08 2.08 0 0 0-1.427-1.975l-3.974-1.317a1.036 1.036 0 0 0-.655 0l-3.974 1.317a2.078 2.078 0 0 0-1.427 1.975v4.185c0 3.718 3.87 5.94 5.052 6.53 0 0 .338.219.678.219s.606-.163.606-.163Z" fill="#BF1F1F"/></g><defs><clipPath id="a"><path fill="#fff" d="M0 0h25v25H0z"/></clipPath></defs></svg>