<svg width="48" height="48" fill="none" xmlns="http://www.w3.org/2000/svg"><path d="M44 46c0 1.106-.894 2-2 2H6c-1.106 0-2-.894-2-2 0-7.05 4.084-13.148 10-16.1v6.656c-1.19.692-2 1.968-2 3.446 0 2.21 1.79 4 4 4s4-1.79 4-4c0-1.476-.81-2.752-2-3.446v-8.092A17.942 17.942 0 0 1 22 28h4c.676 0 1.342.044 2 .118v8.25c-2.322.828-4 3.028-4 5.632v2c0 1.106.894 2 2 2 1.106 0 2-.894 2-2v-2a2 2 0 0 1 4 0v2c0 1.106.894 2 2 2 1.106 0 2-.894 2-2v-2c0-2.604-1.678-4.804-4-5.632V29.05c6.98 2.478 12 9.13 12 16.95Zm-8-34c0-6.618-5.382-12-12-12S12 5.382 12 12s5.382 12 12 12 12-5.382 12-12Z" fill="#BF1F1F"/></svg>