<svg width="60" height="60" fill="none" xmlns="http://www.w3.org/2000/svg"><path d="M45.742 29.753c.008 7.491-5.018 13.671-11.794 15.432-.962.25-1.698 1.08-1.698 2.074V50.5a2 2 0 0 0 2 2h5a2 2 0 0 1 2 2v.5a2 2 0 0 1-2 2h-18.5a2 2 0 0 1-2-2v-.5a2 2 0 0 1 2-2h5a2 2 0 0 0 2-2v-3.24c0-.994-.735-1.825-1.698-2.075a15.744 15.744 0 0 1-6.094-3.123l25.41-16.41.373 4.1Zm5.221-19.668a2 2 0 0 1 2.766.596l.543.84a2 2 0 0 1-.596 2.765l-8.9 5.747c.005.012.012.024.016.036L16.63 38.26l-.02-.034-7.573 4.891a2 2 0 0 1-2.764-.596l-.543-.84a2 2 0 0 1 .594-2.765l8.34-5.386a15.677 15.677 0 0 1-.413-3.572l.852-9.388a2 2 0 0 1 1.992-1.819h20.452l13.417-8.665ZM41.481 3a2 2 0 0 1 1.99 1.818l.661 7.25a2 2 0 0 1-1.992 2.182H17.864a2 2 0 0 1-1.992-2.18l.659-7.25A2 2 0 0 1 18.523 3H41.48Z" fill="#BF1F1F"/></svg>