<svg width="32" height="32" viewBox="0 0 32 32" fill="none" xmlns="http://www.w3.org/2000/svg">
<path d="M18.2566 0.799934L18.4175 0.804622C18.7923 0.827624 19.1589 0.929738 19.4925 1.10462C19.8736 1.30445 20.2005 1.59391 20.4456 1.94759C20.6908 2.3014 20.847 2.70951 20.9003 3.13665C20.9469 3.51045 20.9135 3.88939 20.8034 4.24837L20.7519 4.40072L18.1027 11.4663H22.6667C23.248 11.4664 23.8186 11.6253 24.3167 11.9249C24.8147 12.2247 25.2218 12.6543 25.4941 13.1679C25.7663 13.6816 25.8936 14.26 25.862 14.8406C25.8304 15.421 25.6415 15.9821 25.3152 16.4632L25.3058 16.4765L25.2972 16.4898L16.7691 30.2148C16.5772 30.5152 16.3132 30.763 16.0011 30.9351C15.6899 31.1066 15.3408 31.1968 14.9855 31.1992C14.6658 31.1975 14.3502 31.1273 14.0605 30.9921L14.0542 30.989L14.048 30.9867L13.8761 30.9007C13.4874 30.6833 13.1762 30.347 12.9894 29.939C12.7759 29.4726 12.7396 28.9441 12.8878 28.4531L15.2808 20.5335H9.29875C8.79891 20.5341 8.30561 20.4172 7.85891 20.1929C7.41233 19.9687 7.02415 19.6432 6.72609 19.2421C6.42797 18.8409 6.22834 18.3752 6.1425 17.8827C6.05669 17.3904 6.08757 16.8846 6.23234 16.4062L10.2644 3.07259L10.2652 3.06947C10.4615 2.4108 10.866 1.83334 11.4183 1.42415C11.9706 1.0149 12.641 0.79596 13.3284 0.799934H18.2566Z" fill="#BF1F1F"/>
</svg>
