<svg width="32" height="30" fill="none" xmlns="http://www.w3.org/2000/svg"><path d="M2.667 9.333V8a8 8 0 0 1 8-8h10.666a8 8 0 0 1 8 8v1.333A5.334 5.334 0 0 0 24 14.667v4H8v-4a5.334 5.334 0 0 0-5.333-5.334Zm26.218 2.703c-1.31.213-2.218 1.444-2.218 2.773V20c0 .736-.598 1.333-1.334 1.333H6.667A1.334 1.334 0 0 1 5.333 20v-5.19c0-1.329-.908-2.56-2.218-2.774A2.669 2.669 0 0 0 0 14.666V20a6.657 6.657 0 0 0 2.667 5.333V28a1.334 1.334 0 0 0 2.666 0v-1.467a6.67 6.67 0 0 0 1.334.134h18.666a6.67 6.67 0 0 0 1.334-.134V28a1.334 1.334 0 0 0 2.666 0v-2.667A6.656 6.656 0 0 0 32 20v-5.333a2.67 2.67 0 0 0-3.115-2.631Z" fill="#fff"/></svg>