<svg width="32" height="32" viewBox="0 0 32 32" fill="none" xmlns="http://www.w3.org/2000/svg">
<path d="M22.6667 0H9.33333C7.128 0 5.33333 1.79467 5.33333 4V32H26.6667V4C26.6667 1.79467 24.872 0 22.6667 0ZM14.6667 25.3333H10.6667V22.6667H14.6667V25.3333ZM14.6667 20H10.6667V17.3333H14.6667V20ZM12 10.6667V8H14.6667V5.33333H17.3333V8H20V10.6667H17.3333V13.3333H14.6667V10.6667H12ZM21.3333 25.3333H17.3333V22.6667H21.3333V25.3333ZM21.3333 20H17.3333V17.3333H21.3333V20ZM32 12V32H29.3333V8.24533C30.8813 8.79733 32 10.264 32 12ZM2.66667 8.24533V32H0V12C0 10.264 1.11867 8.79733 2.66667 8.24533Z" fill="#BF1F1F"/>
</svg>
