<svg width="48" height="48" fill="none" xmlns="http://www.w3.org/2000/svg"><path d="M17.188 22.05c0-4.302-3.498-7.8-7.8-7.8s-7.8 3.498-7.8 7.8c0 2.447 1.156 4.608 2.925 6.04v9.262c0 1.215 1.542 1.735 2.28.77l2.595-3.399 2.595 3.399c.737.965 2.28.444 2.28-.77v-9.263c1.769-1.431 2.925-3.592 2.925-6.039Zm30.225-1.004V37.65c0 5.376-4.374 9.75-9.75 9.75h-19.5c-4.101 0-7.603-2.553-9.04-6.144.084-.073.185-.117.265-.195a5.165 5.165 0 0 0 5.263 1.191 5.161 5.161 0 0 0 3.489-4.6h17.573a1.95 1.95 0 1 0 0-3.9h-17.55v-3.9h17.55a1.95 1.95 0 1 0 0-3.9H20.39c.446-1.238.698-2.55.698-3.9 0-6.453-5.248-11.7-11.7-11.7-.33 0-.653.023-.975.049v-.049C8.413 4.974 12.787.6 18.163.6h8.804c.318 0 .632.025.946.047V14.25a5.857 5.857 0 0 0 5.85 5.85h13.603c.022.314.047.628.047.946Zm-15.6-6.796V1.497a13.606 13.606 0 0 1 4.807 3.1l6.793 6.798a13.56 13.56 0 0 1 3.103 4.805H33.763a1.952 1.952 0 0 1-1.95-1.95Z" fill="#BF1F1F"/></svg>