<svg width="59" height="61" fill="none" xmlns="http://www.w3.org/2000/svg"><g clip-path="url(#a)"><path d="m59 35.089-6.454 11.126-1.118 1.93-3.768 6.496-1.044 1.799-.428.739-.967 1.666-.971 1.675h-29.5l-.338-.583-2.306-3.976-1.043-1.8-3.724-6.42v-.001l-1.072-1.845L0 35.089l14.101-24.314.649-1.118h29.5l.483.833L59 35.089Z" fill="#fff"/><path d="M48.275 42.961c-1.876-.571-3.754-1.142-5.629-1.72-.236-.072-.506-.091-.522-.463-.037-.854-.545-1.388-1.274-1.752-.609-.304-1.219-.606-1.826-.914-.66-.333-1.547-.516-1.914-1.052-.389-.568-.058-1.481-.12-2.239-.036-.453.135-.72.49-.993 2.661-2.052 4.381-4.717 4.994-8.03.135-.73.468-.798 1.07-.822 1.365-.053 2.65-1.126 2.99-2.409.367-1.376-.188-2.857-1.4-3.616-.318-.198-.414-.406-.412-.766a1038.902 1038.902 0 0 0 .005-9.34c-.013-3.1-1.77-5.747-4.657-6.499A31.488 31.488 0 0 1 35.375.703a3.674 3.674 0 0 0-.629-.2c-3.989-.925-7.907-.524-11.726.793-2.93 1.01-5.653 2.558-8.643 3.437-.675.197-.84.737-.535 1.388.293.623.692 1.175 1.148 1.685.169.19.214.324.052.562-.496.738-.788 1.55-.94 2.407a7.87 7.87 0 0 0-.1.755c-.198 2.246-.058 4.496-.087 6.745-.005.339-.096.538-.393.719-.75.456-1.252 1.131-1.443 1.989-.467 2.092 1.028 3.948 3.253 4.02.474.014.678.093.774.622.524 2.867 1.886 5.29 3.976 7.326.51.495 1.352.736 1.52 1.456.163.706.018 1.48.043 2.22.012.348-.099.53-.419.683-1.174.563-2.33 1.161-3.492 1.746-.645.324-1.135.804-1.195 1.543-.035.441-.253.556-.605.662a479.111 479.111 0 0 0-5.685 1.744c-1.794.565-3.137 1.549-3.982 2.89L7.34 47.74c.032-.087.066-.174.102-.259.019-.041.036-.082.056-.123 0-.003.002-.007.004-.01l.055-.113a3.14 3.14 0 0 1 .068-.127c.042-.082.09-.16.14-.238l.075-.115c.025-.039.05-.076.078-.114L8 46.533a2.28 2.28 0 0 1 .087-.108c.029-.036.059-.071.089-.105a2.3 2.3 0 0 1 .092-.104l.097-.1a4.754 4.754 0 0 1 .426-.384l.101-.077c.118-.09.24-.174.368-.254.035-.021.07-.044.105-.064a4.804 4.804 0 0 1 .457-.245 6.133 6.133 0 0 1 .791-.31c2.062-.656 4.137-1.267 6.2-1.913.34-.106.55-.065.745.25.262.423.8.819.794 1.22-.006.351-.594.699-.934 1.038-1.293 1.3-1.465 2.357-.64 4.01l2.38 4.763c-.803 0-1.513-.002-2.223.003-.23 0-.252-.137-.252-.314.002-.282.012-.565-.022-.843-.056-.46-.35-.72-.799-.759-.451-.038-.762.18-.914.62-.095.273-.093.557-.066.834.036.368-.082.48-.461.47-1.004-.029-2.009-.01-3.014-.01-.039 0-.077 0-.114.002-.028 0-.057 0-.085.002-.05.001-.098.004-.145.008l1.044 1.8.038-.004a.976.976 0 0 1 .11-.002c.562.024 1.125.017 1.687.004.493-.01.901-.052 1.169.577.26.612 1.265.492 1.476-.168.13-.404.325-.414.639-.409.702.01 1.406.017 2.109-.002.292-.009.376.088.37.375a90.604 90.604 0 0 0 .005 3.192c.007.36-.127.426-.45.421-1.164-.016-2.328-.006-3.493-.006l-1.354-.002.338.582h6.779c0-.012 0-.026-.002-.04-.026-.419-.003-.841-.002-1.261-.043-.069-.069-.135.019-.19l.075.129.098.239.05.113a12.93 12.93 0 0 0 .39.828c.032.061.065.122.1.182h2.09a2.248 2.248 0 0 0-.117-.284 16.041 16.041 0 0 0-.137-.277c-1.903-3.797-3.804-7.595-5.704-11.392-.464-.927-.423-1.18.303-1.907.44-.441.882-.88 1.32-1.321.698-.701.715-.999.108-1.811-.529-.708-1.04-1.428-1.596-2.114-.344-.424-.24-.639.215-.852a69.364 69.364 0 0 0 2.797-1.392c.35-.184.476-.181.598.246.725 2.564 1.485 5.117 2.232 7.673.029.096.056.192.088.287.227.683.646.958 1.19.783.526-.169.722-.614.557-1.269-.082-.33-.169-.657-.252-.987-.004-.015.01-.035.038-.112 1.085.29 2.193.526 3.33.52 1.13-.006 2.23-.203 3.452-.57l-3.4 11.7c-.213-.202-.222-.427-.278-.62-.536-1.825-1.064-3.653-1.594-5.48-.045-.154-.087-.31-.15-.456-.21-.48-.68-.706-1.127-.556a.897.897 0 0 0-.578 1.111c.387 1.39.804 2.77 1.202 4.156.47 1.642.935 3.283 1.402 4.924h2.144c.616-2.162 1.225-4.326 1.852-6.486 1.398-4.81 2.814-9.615 4.198-14.429.152-.531.301-.66.815-.372.874.487 1.779.922 2.685 1.35.455.215.48.44.18.821-.585.739-1.143 1.501-1.704 2.26-.475.642-.446 1.008.118 1.581.493.502.996.994 1.49 1.493.616.621.668.925.276 1.711-1.916 3.837-3.835 7.672-5.754 11.509-.059.116-.119.232-.171.351a1.953 1.953 0 0 0-.04.096 1.17 1.17 0 0 0-.043.115h2.038c1.181-2.385 2.36-4.772 3.544-7.156.685-1.381 1.383-2.756 2.068-4.139.715-1.44.528-2.584-.597-3.72-.029-.029-.058-.056-.085-.086-.348-.36-.966-.716-.973-1.083-.006-.416.552-.83.83-1.266.173-.271.36-.312.65-.221 2.103.657 4.217 1.279 6.312 1.96 1.738.567 2.936 1.745 3.348 3.336l1.12-1.93c-.88-1.612-2.337-2.665-4.272-3.254ZM16.279 6.004c2.766-.914 5.305-2.401 8.09-3.251 2.952-.902 5.98-1.184 9.046-.682 1.301.213 2.512.679 3.561 1.512.449.356.796.78 1.049 1.298.344.709.737.933 1.24.753.506-.181.659-.59.509-1.356-.022-.033-.065-.074-.057-.097.012-.028.025-.043.042-.048.01-.005.025-.004.038 0 .014.003.028.01.043.017l.02.013h.001l.173.068c.045.019.09.039.133.06.04.018.078.037.117.057a4.117 4.117 0 0 1 .318.174l.087.052.085.055.077.052a4.644 4.644 0 0 1 .538.432 4.487 4.487 0 0 1 .418.448c.022.024.04.048.06.073.032.039.062.079.09.12a3.889 3.889 0 0 1 .208.306l.05.084c.071.119.137.241.197.369l.037.075.06.136c.017.042.036.086.052.131l.033.088c.033.088.065.18.092.272a3.933 3.933 0 0 1 .125.492 3.318 3.318 0 0 1 .045.254l.008.047c.007.045.012.09.018.137a5.133 5.133 0 0 1 .037.473l.003.165a212.69 212.69 0 0 1 .01 1.937c.002.254.002.506.002.759.003 2.135-.005 4.27.005 6.405 0 .397-.118.508-.513.51-1.27.001-1.572-.27-1.566-1.541v-.072c0-.153-.004-.307-.01-.458l-.001-.03-.007-.125-.007-.125a4.628 4.628 0 0 0-.015-.193c-.001-.031-.005-.063-.008-.092a3.723 3.723 0 0 0-.012-.125l-.01-.093a3.645 3.645 0 0 0-.014-.117l-.015-.118a5.615 5.615 0 0 0-.036-.245 9.446 9.446 0 0 0-.233-1.098l-.02-.073a9.593 9.593 0 0 0-.137-.458l-.038-.112a10.355 10.355 0 0 0-.296-.778c-.025-.056-.047-.114-.074-.17a10.556 10.556 0 0 0-.386-.784c-.021-.038-.042-.077-.064-.114a2.21 2.21 0 0 0-.058-.106l-.06-.103a7.633 7.633 0 0 0-.218-.36c-.021-.034-.042-.069-.065-.103a5.167 5.167 0 0 0-.1-.152c-.045-.068-.09-.135-.136-.201-.046-.068-.094-.134-.141-.2a10.728 10.728 0 0 0-.298-.4c-.032-.043-.066-.085-.1-.128a9.49 9.49 0 0 0-.484-.58c-.327-.374-.695-.485-1.18-.335a49.37 49.37 0 0 1-3.107.853 18.721 18.721 0 0 1-.389.089l-.21.046c-.355.077-.711.15-1.069.215l-.318.056c-.087.015-.173.03-.26.043-.102.018-.205.034-.308.05l-.309.046c-.265.037-.532.073-.797.106-.178.021-.354.042-.531.061-.174.02-.348.038-.522.053a24.536 24.536 0 0 1-.801.064c-.362.023-.724.04-1.085.047l-.136.002a20.276 20.276 0 0 1-1.212-.014 13.959 13.959 0 0 1-.884-.058 15.148 15.148 0 0 1-1.377-.181l-.172-.03a9.527 9.527 0 0 1-.425-.086l-.23-.052a26.766 26.766 0 0 1-.539-.137 17.157 17.157 0 0 1-.569-.17 12.654 12.654 0 0 1-.729-.256 12.392 12.392 0 0 1-.913-.387c-1.36-.635-2.56-1.502-3.506-2.689-.13-.162-.36-.341.04-.472Zm17.82 35.207c-.114.486-.338.952-.415 1.442-.102.638-.468.94-1.038 1.16-2.409.927-4.776.874-7.121-.213a.737.737 0 0 1-.443-.515 475.99 475.99 0 0 0-1.536-5.248c-.01-.032-.017-.065-.025-.096l-.02-.096c-.009-.049-.015-.098-.021-.146l-.008-.073c0-.023-.003-.049-.005-.072l-.003-.064v-.064a9.07 9.07 0 0 1-.002-.317c0-.102.002-.201 0-.303 0-.029-.002-.056-.003-.085 0-.142 0-.266.002-.376.001-.036.001-.071.003-.104 0-.033.002-.063.003-.093a.58.58 0 0 0 .003-.045l.004-.04a.996.996 0 0 1 .025-.17l.008-.034c.027-.084.067-.134.128-.155a.277.277 0 0 1 .088-.014c.027 0 .057.002.09.009.016.002.032.006.05.01.018.004.037.007.056.014l.08.02.105.036.108.037.36.133c3.278 1.209 6.552 1.183 9.8-.125.81-.327.757-.333.817.505.128 1.806-.694 3.396-1.09 5.082Zm-3.983-6.431c-5.821.373-10.932-3.603-12.15-9.034-.186-.828-.25-1.665-.306-2.505-.033-.494-.218-.858-.741-.948-.508-.087-.854.133-1.014.622-.054.164-.111.265-.315.293a1.558 1.558 0 0 1-1.766-1.273c-.132-.742.425-1.482 1.23-1.662.497-.112.998-.072 1.498-.08 1.893-.032 3.014-1.155 3.033-3.054.009-.924-.013-1.848.007-2.771.01-.434-.06-.832-.31-1.19-1.038-.308-1.52.048-1.526 1.14-.005.942.006 1.886-.002 2.828-.01.994-.945 1.588-1.865 1.203-.143-.06-.164-.159-.162-.282.063-2.42-.185-4.853.24-7.263.008-.039.02-.078.03-.117.02-.068.035-.14.053-.213a7.386 7.386 0 0 1 .074-.304c-.002-.001 0-.002 0-.004a2.132 2.132 0 0 1 .076-.232.848.848 0 0 1 .084-.174l.04-.061a.55.55 0 0 1 .114-.121c.013-.012.027-.02.04-.03a.45.45 0 0 1 .18-.075c.006-.002.01-.003.013-.002a.368.368 0 0 1 .206.035.342.342 0 0 1 .052.028.353.353 0 0 1 .038.026.967.967 0 0 1 .076.059c.016.011.03.025.044.039.09.083.178.18.267.263a.676.676 0 0 0 .047.042.695.695 0 0 0 .095.07c.851.532 1.808.85 2.665 1.36 1.065.173 2.076.562 3.15.717 2.161.313 4.315.294 6.48.044 2.178-.253 4.304-.733 6.405-1.34.398-.115.63-.078.896.288 1.277 1.758 2.002 3.674 1.97 5.874-.03 2.119 1.095 3.205 3.228 3.213.421.001.847-.018 1.261.045.814.122 1.399.89 1.283 1.62-.13.819-.982 1.452-1.795 1.358-.207-.023-.26-.132-.314-.294-.165-.493-.518-.7-1.024-.608-.494.09-.69.439-.714.906-.073 1.429-.303 2.82-.81 4.171-1.545 4.107-5.7 7.114-10.06 7.393Z" fill="#220002"/><path d="M22.157 60.337c.032.061.065.123.1.183h-.728c0-.013 0-.027-.002-.04-.026-.419-.003-.841-.002-1.261l.094-.062.098.239.05.114a12.934 12.934 0 0 0 .39.827Z" fill="#FEFEFE"/><path d="M43.551 20.234c-.414-.063-.84-.044-1.261-.045-2.133-.008-3.258-1.094-3.228-3.213.032-2.2-.693-4.116-1.97-5.874-.266-.366-.498-.403-.896-.288-2.101.607-4.227 1.087-6.405 1.34-2.165.25-4.319.268-6.48-.044-1.074-.155-2.085-.544-3.15-.716a8.958 8.958 0 0 1-.88 1.783c.25.36.32.757.311 1.19-.02.924.002 1.848-.007 2.772-.019 1.898-1.14 3.022-3.033 3.053-.5.01-1-.03-1.498.08-.805.18-1.362.92-1.23 1.663a1.558 1.558 0 0 0 1.766 1.272c.204-.027.261-.128.315-.292.16-.489.506-.709 1.014-.623.523.09.708.455.74.95.057.84.12 1.675.307 2.504 1.218 5.431 6.329 9.406 12.15 9.034 4.361-.279 8.516-3.286 10.06-7.393.508-1.35.738-2.742.811-4.17.024-.468.22-.817.714-.907.506-.091.859.115 1.024.607.054.163.107.272.314.295.813.094 1.665-.54 1.795-1.358.116-.73-.47-1.498-1.283-1.62ZM24.38 21.397c-.088.45-.378.692-.833.705-.453.013-.758-.206-.876-.652-.109-.411-.086-.831-.037-1.246.062-.533.39-.85.917-.83.524.02.828.35.858.89.008.16 0 .32 0 .48h.022c-.016.218-.011.44-.052.653Zm.979-3.966c-.038.485-.327.765-.805.804-.358.03-.72.006-1.078.006v.003c-.32 0-.64.016-.959-.004-.515-.031-.815-.335-.843-.836-.028-.47.215-.828.697-.9a7.339 7.339 0 0 1 2.321.008c.482.084.704.437.667.92Zm7.276 10.405c-.855.685-2.078 1.064-3.369 1.04-1.207-.024-2.34-.282-3.299-1.069-.46-.378-.565-.903-.26-1.313.307-.418.817-.465 1.33-.125 1.44.955 3.133.958 4.553.007.514-.344 1.02-.304 1.332.106.325.425.213.953-.287 1.354Zm3.341-6.446c-.094.48-.402.726-.886.711-.483-.014-.785-.279-.84-.761a6.094 6.094 0 0 1-.024-1.014c.029-.581.364-.944.858-.965.477-.02.858.343.93.9.02.156.002.318.002.478h.033c-.024.218-.032.438-.073.65Zm.984-3.951c-.041.473-.33.766-.816.798-.358.024-.72.004-1.078.004v-.004c-.34 0-.681.028-1.017-.006-.45-.046-.724-.319-.77-.775-.047-.482.16-.847.64-.936a6.849 6.849 0 0 1 2.38-.005c.48.081.702.452.66.924Z" fill="#FDDF9F"/><path d="M39.861 4.16c1.854.71 3.043 2.46 3.061 4.622.027 3.034 0 6.068.015 9.101.003.398-.116.509-.51.509-1.27.001-1.573-.27-1.567-1.541.014-2.978-1.104-5.505-3.043-7.713-.327-.373-.695-.485-1.18-.335-1.957.607-3.94 1.109-5.97 1.398-3.72.528-7.41.607-10.922-1.038-1.359-.636-2.56-1.503-3.506-2.69-.13-.161-.36-.341.04-.472 2.766-.914 5.305-2.4 8.09-3.251 2.952-.902 5.98-1.184 9.046-.682 1.301.214 2.512.679 3.561 1.513a3.7 3.7 0 0 1 1.048 1.299c.343.708.737.932 1.24.752.506-.181.66-.59.508-1.356l.09-.116Z" fill="#B47E5E"/><path d="M46.54 56.436c-.296-.016-.383.091-.365.375.006.122.012.245.012.367l.43-.738-.077-.004Zm1.539-11.628c-2.095-.68-4.21-1.302-6.312-1.96-.29-.09-.477-.05-.65.222-.278.436-.836.85-.83 1.266.007.366.625.722.973 1.082.027.03.056.058.085.087 1.125 1.136 1.312 2.28.597 3.72-.685 1.382-1.383 2.757-2.068 4.138-1.184 2.384-2.363 4.772-3.544 7.157h7.92l.971-1.675h-.007c-.493-.032-.81-.412-.844-.992-.028-.455.196-1.055-.1-1.322-.249-.225-.836-.071-1.274-.09-.656-.029-1.044-.378-1.034-.926.01-.547.397-.855 1.07-.887.432-.02 1.004.198 1.258-.105.212-.25.069-.802.08-1.22.017-.673.334-1.063.872-1.076.5-.012.862.341.933.911.06.49-.225 1.145.131 1.425.29.23.883.063 1.354.078l3.767-6.496c-.412-1.592-1.61-2.77-3.348-3.337Z" fill="#EAE9EA"/><path d="m32.769 45.74-3.4 11.7c-.213-.202-.222-.427-.278-.62-.536-1.824-1.064-3.653-1.594-5.48-.045-.154-.087-.31-.15-.455-.21-.48-.68-.707-1.127-.557a.897.897 0 0 0-.578 1.112c.387 1.39.804 2.77 1.202 4.156.47 1.641.935 3.282 1.402 4.924h-3.9a2.248 2.248 0 0 0-.117-.284l-.034-.07a46539.798 46539.798 0 0 1-5.806-11.6c-.464-.926-.423-1.179.303-1.906.44-.442.882-.88 1.32-1.322.698-.7.715-.998.108-1.81-.529-.708-1.04-1.428-1.596-2.115-.344-.423-.24-.638.215-.852a69.364 69.364 0 0 0 2.797-1.391c.35-.184.476-.182.598.246.725 2.564 1.485 5.116 2.232 7.672.029.097.056.193.088.288.227.682.646.957 1.19.782.526-.168.722-.613.557-1.268-.082-.33-.169-.658-.252-.988-.004-.015.01-.035.038-.111 1.085.289 2.193.525 3.33.519 1.13-.005 2.23-.203 3.452-.57Z" fill="#D9D7DA"/><path d="M19.156 54.149c-.802 0-1.512-.002-2.222.002-.23.002-.251-.136-.251-.313 0-.282.01-.565-.023-.843-.056-.46-.35-.72-.799-.758-.45-.04-.762.18-.913.618-.095.274-.094.558-.067.835.037.368-.082.48-.46.47-1.005-.028-2.01-.01-3.015-.01-.038 0-.077 0-.113.002-.03 0-.058 0-.085.002a2.52 2.52 0 0 0-.145.007l-3.724-6.42c.032-.088.066-.175.102-.26.02-.04.037-.082.057-.123 0-.003 0-.006.003-.009l.055-.114a3.14 3.14 0 0 1 .068-.127c.042-.081.09-.16.14-.238l.075-.115a2.6 2.6 0 0 1 .079-.114l.08-.108H8c.028-.037.056-.073.086-.108l.09-.105a2.3 2.3 0 0 1 .092-.103c.03-.034.063-.067.096-.1l.09-.09c.107-.103.219-.2.336-.294l.101-.078c.118-.09.24-.174.368-.254l.105-.063a4.804 4.804 0 0 1 .457-.245 6.133 6.133 0 0 1 .792-.312c2.06-.654 4.136-1.266 6.2-1.912.338-.106.55-.065.745.25.26.424.8.819.793 1.22-.006.351-.593.699-.933 1.039-1.294 1.3-1.465 2.356-.64 4.01l2.378 4.762v-.001Z" fill="#EAE9EA"/><path d="M40.3 48.449c-1.916 3.837-3.835 7.672-5.754 11.509-.059.116-.119.232-.171.35-.014.033-.028.065-.04.097a1.077 1.077 0 0 0-.042.115H30.39c.616-2.163 1.225-4.326 1.852-6.486 1.398-4.81 2.814-9.615 4.198-14.429.152-.531.301-.66.815-.372.874.487 1.779.922 2.685 1.35.455.215.48.44.18.82-.585.74-1.143 1.502-1.704 2.26-.475.643-.446 1.008.118 1.582.493.501.996.994 1.49 1.492.616.622.668.925.276 1.712Z" fill="#D9D7DA"/><path d="M23.459 36.521c0-1.217-.01-1.186 1.112-.772 3.278 1.208 6.55 1.183 9.8-.125.81-.327.756-.333.816.505.13 1.806-.693 3.396-1.088 5.082-.114.486-.338.951-.415 1.441-.101.64-.468.942-1.038 1.162-2.41.927-4.776.873-7.121-.214a.73.73 0 0 1-.442-.514 490.77 490.77 0 0 0-1.537-5.249c-.128-.435-.07-.876-.087-1.316Z" fill="#FDDF9F"/><path d="M19.709 59.525c.007.36-.127.426-.449.42-1.165-.015-2.329-.005-3.494-.005l-1.354-.003-2.306-3.976.038-.004c.034-.002.07-.002.11-.001.562.024 1.125.016 1.687.004.493-.01.901-.053 1.169.576.26.612 1.265.492 1.476-.168.13-.403.325-.413.639-.408.702.01 1.406.016 2.109-.003.292-.009.376.089.371.375a90.604 90.604 0 0 0 .004 3.193Z" fill="#D9D7DA"/><path d="M20.161 11.394a9.044 9.044 0 0 1-.88 1.785c-1.037-.309-1.519.049-1.524 1.14-.005.942.007 1.886-.003 2.829-.01.992-.944 1.586-1.864 1.202-.144-.06-.165-.16-.161-.281.062-2.421-.185-4.854.24-7.262.007-.04.02-.078.03-.117.11-.407.16-.925.48-1.14.436-.291.696.286 1.017.486.851.532 1.808.848 2.665 1.36v-.002Zm1.458 47.763-.095.061c-.043-.069-.07-.135.02-.189l.075.129v-.001Zm18.155-54.88c-.02-.033-.064-.074-.057-.096.03-.082.09-.05.145-.02l-.088.116Z" fill="#B47E5E"/><path d="M29.266 28.876c-1.209-.024-2.34-.281-3.3-1.069-.461-.378-.564-.903-.261-1.313.309-.418.817-.465 1.33-.125 1.44.956 3.134.959 4.554.007.513-.344 1.02-.303 1.332.107.325.424.213.952-.287 1.353-.857.687-2.078 1.064-3.37 1.04h.002Zm-5.79-10.633c-.32 0-.64.017-.957-.003-.515-.033-.816-.337-.845-.837-.028-.47.216-.827.698-.898a7.341 7.341 0 0 1 2.322.007c.481.084.704.435.666.919-.037.485-.326.765-.805.804-.357.028-.719.006-1.078.006v.004-.002Zm11.59-.006c-.339 0-.681.028-1.017-.006-.45-.045-.723-.318-.77-.775-.047-.481.16-.848.64-.936a6.85 6.85 0 0 1 2.38-.005c.48.08.703.45.66.923-.04.474-.33.767-.815.8-.358.023-.72.004-1.078.004v-.005Zm-10.633 2.507c-.017.219-.012.44-.053.654-.086.448-.377.69-.832.703-.454.014-.76-.206-.877-.65-.108-.412-.087-.833-.037-1.248.062-.533.391-.85.917-.83.524.02.829.35.858.892.009.159.001.319.001.478h.023Zm11.616-.004c-.024.217-.032.436-.073.65-.094.48-.401.725-.885.711-.482-.015-.785-.279-.841-.761a6.241 6.241 0 0 1-.024-1.014c.029-.581.365-.944.859-.965.477-.02.859.343.93.899.02.156.002.317.002.477.012 0 .022.002.033.003h-.001Z" fill="#220002"/><path d="m47.66 54.64-1.044 1.8-.076-.004c-.296-.017-.383.09-.365.375.006.122.013.245.013.367l-.967 1.666h-.007c-.493-.03-.81-.41-.844-.99-.027-.456.196-1.056-.1-1.323-.249-.225-.836-.072-1.274-.09-.656-.03-1.044-.378-1.034-.927.01-.546.397-.855 1.07-.886.432-.02 1.004.198 1.258-.105.212-.251.069-.802.08-1.221.018-.673.334-1.063.873-1.075.5-.013.86.341.932.911.06.489-.225 1.145.131 1.425.29.23.883.063 1.354.078Z" fill="#030303"/></g><defs><clipPath id="a"><path fill="#fff" d="M0 0h59v60.52H0z"/></clipPath></defs></svg>