<svg width="59" height="61" viewBox="0 0 59 61" fill="none" xmlns="http://www.w3.org/2000/svg">
<g clip-path="url(#clip0_364_1227)">
<path d="M59 35.0885L52.5462 46.2147L51.4275 48.1447L47.66 54.641L46.6162 56.4397L46.1875 57.1785L45.2212 58.8447L44.25 60.5197H14.75L14.4125 59.9372L12.1062 55.961L11.0625 54.161L7.33875 47.741V47.7397L6.2675 45.8947L0 35.0885L14.1012 10.7747L14.75 9.65723H44.25L44.7325 10.4897L59 35.0885Z" fill="white"/>
<path d="M48.2748 42.9613C46.3986 42.39 44.5211 41.8188 42.6461 41.2413C42.4098 41.1688 42.1398 41.15 42.1236 40.7775C42.0873 39.9238 41.5786 39.39 40.8498 39.0263C40.2411 38.7225 39.6311 38.42 39.0236 38.1125C38.3636 37.7788 37.4773 37.5963 37.1098 37.06C36.7211 36.4925 37.0523 35.5788 36.9898 34.8213C36.9536 34.3675 37.1248 34.1013 37.4798 33.8275C40.1411 31.7763 41.8611 29.1113 42.4736 25.7975C42.6086 25.0688 42.9423 25 43.5436 24.9763C44.9086 24.9225 46.1936 23.85 46.5348 22.5675C46.9011 21.1913 46.3461 19.71 45.1336 18.9513C44.8161 18.7525 44.7198 18.545 44.7223 18.185C44.7336 15.62 44.7386 13.0538 44.7323 10.49C44.7323 9.94126 44.7298 9.39376 44.7273 8.84501C44.7136 5.74501 42.9561 3.09751 40.0698 2.34626C38.4411 1.92251 36.8986 1.36751 35.3748 0.702514C35.1736 0.615014 34.9598 0.553764 34.7461 0.503764C30.7573 -0.422486 26.8386 -0.0212357 23.0198 1.29626C20.0898 2.30626 17.3673 3.85376 14.3773 4.73251C13.7023 4.93001 13.5361 5.47001 13.8423 6.12126C14.1348 6.74376 14.5336 7.29626 14.9898 7.80626C15.1586 7.99626 15.2036 8.13001 15.0423 8.36751C14.5461 9.10626 14.2536 9.91876 14.1011 10.775C14.0561 11.0238 14.0236 11.275 14.0011 11.53C13.8036 13.7763 13.9436 16.0263 13.9148 18.275C13.9098 18.6138 13.8186 18.8125 13.5223 18.9938C12.7711 19.45 12.2698 20.125 12.0786 20.9825C11.6123 23.075 13.1073 24.9313 15.3323 25.0025C15.8061 25.0175 16.0098 25.0963 16.1061 25.625C16.6298 28.4925 17.9923 30.915 20.0823 32.9513C20.5911 33.4463 21.4336 33.6875 21.6011 34.4075C21.7648 35.1125 21.6198 35.8863 21.6448 36.6275C21.6573 36.975 21.5461 37.1563 21.2261 37.31C20.0523 37.8725 18.8961 38.4713 17.7336 39.0563C17.0886 39.38 16.5986 39.86 16.5386 40.5988C16.5036 41.04 16.2861 41.155 15.9336 41.2613C14.0361 41.8325 12.1398 42.41 10.2486 43.005C8.45483 43.57 7.11233 44.5538 6.26733 45.895L7.33858 47.74C7.37108 47.6525 7.40483 47.5663 7.44108 47.4813C7.45983 47.44 7.47733 47.3988 7.49733 47.3575C7.49733 47.355 7.49858 47.3513 7.50108 47.3488C7.51858 47.31 7.53733 47.2725 7.55608 47.235C7.57733 47.1925 7.59983 47.15 7.62358 47.1075C7.66608 47.0263 7.71358 46.9475 7.76358 46.87C7.78858 46.8313 7.81358 46.7925 7.83858 46.755C7.86358 46.7163 7.88983 46.6788 7.91733 46.6413C7.94358 46.605 7.97108 46.5688 7.99858 46.5325C7.99858 46.5325 7.999 46.5325 7.99983 46.5325C8.02733 46.4963 8.05608 46.46 8.08608 46.425C8.11483 46.3888 8.14483 46.3538 8.17483 46.32C8.20358 46.285 8.23483 46.2513 8.26733 46.2163C8.29858 46.1825 8.33108 46.15 8.36358 46.1163C8.39233 46.0863 8.42233 46.0563 8.45358 46.0275C8.56108 45.9238 8.67233 45.8263 8.78983 45.7325C8.82358 45.7063 8.85733 45.68 8.89108 45.655C9.00858 45.565 9.13108 45.4813 9.25858 45.4013C9.29358 45.38 9.32858 45.3575 9.36358 45.3375C9.46608 45.2763 9.57108 45.2175 9.67858 45.1638C9.72483 45.1388 9.77233 45.115 9.82108 45.0925C9.93733 45.0375 10.0561 44.985 10.1786 44.9363C10.2036 44.9263 10.2298 44.9163 10.2561 44.9063C10.3073 44.8863 10.3598 44.8675 10.4123 44.8488C10.4773 44.825 10.5448 44.8025 10.6123 44.7813C12.6736 44.1263 14.7486 43.515 16.8123 42.8688C17.1511 42.7625 17.3623 42.8038 17.5573 43.1188C17.8186 43.5425 18.3573 43.9375 18.3511 44.3388C18.3448 44.69 17.7573 45.0375 17.4173 45.3775C16.1236 46.6775 15.9523 47.7338 16.7773 49.3875C17.5536 50.9425 18.3298 52.4975 19.1561 54.15C18.3536 54.15 17.6436 54.1475 16.9336 54.1525C16.7036 54.1538 16.6823 54.0163 16.6823 53.8388C16.6836 53.5575 16.6936 53.2738 16.6598 52.9963C16.6036 52.5363 16.3098 52.2763 15.8611 52.2375C15.4098 52.1988 15.0986 52.4175 14.9473 52.8563C14.8523 53.13 14.8536 53.4138 14.8811 53.6913C14.9173 54.0588 14.7986 54.1713 14.4198 54.1613C13.4161 54.1325 12.4111 54.1513 11.4061 54.1513C11.3673 54.1513 11.3286 54.1513 11.2923 54.1525C11.2636 54.1525 11.2348 54.1538 11.2073 54.155C11.1573 54.1563 11.1086 54.1588 11.0623 54.1625L12.1061 55.9625C12.1186 55.9613 12.1311 55.96 12.1436 55.9588C12.1773 55.9563 12.2136 55.9563 12.2536 55.9575C12.8161 55.9813 13.3786 55.9738 13.9411 55.9613C14.4336 55.9513 14.8423 55.9088 15.1098 56.5375C15.3698 57.15 16.3748 57.03 16.5861 56.37C16.7161 55.9663 16.9111 55.9563 17.2248 55.9613C17.9273 55.9713 18.6311 55.9775 19.3336 55.9588C19.6261 55.95 19.7098 56.0475 19.7048 56.3338C19.6911 57.3975 19.6848 58.4625 19.7086 59.5263C19.7161 59.8863 19.5823 59.9525 19.2598 59.9475C18.0948 59.9313 16.9311 59.9413 15.7661 59.9413C15.3148 59.9413 14.8636 59.94 14.4123 59.9388L14.7498 60.5213H21.5286C21.5286 60.5088 21.5286 60.495 21.5273 60.4813C21.5011 60.0625 21.5236 59.64 21.5248 59.22C21.4823 59.1513 21.4561 59.085 21.5436 59.03C21.5686 59.0738 21.5936 59.1163 21.6186 59.1588C21.6511 59.2388 21.6848 59.3188 21.7173 59.3975C21.7336 59.435 21.7498 59.4725 21.7661 59.5113C21.8486 59.7025 21.9336 59.8913 22.0248 60.0775C22.0673 60.165 22.1111 60.2525 22.1573 60.3388C22.1886 60.4 22.2223 60.4613 22.2561 60.5213H24.3461C24.3348 60.4875 24.3223 60.4538 24.3086 60.4213C24.2948 60.3863 24.2811 60.3525 24.2648 60.3175C24.2536 60.2913 24.2411 60.2638 24.2286 60.2375C24.2173 60.2138 24.2061 60.1913 24.1948 60.1675C24.1611 60.0988 24.1261 60.0288 24.0911 59.96C22.1898 56.1625 20.2886 52.365 18.3886 48.5675C17.9248 47.6413 17.9661 47.3888 18.6923 46.6613C19.1323 46.22 19.5736 45.7813 20.0123 45.34C20.7098 44.6388 20.7273 44.3413 20.1198 43.5288C19.5911 42.8213 19.0798 42.1013 18.5236 41.415C18.1798 40.9913 18.2848 40.7763 18.7386 40.5625C19.6798 40.1188 20.6148 39.6575 21.5361 39.1713C21.8861 38.9875 22.0123 38.99 22.1336 39.4175C22.8586 41.9813 23.6186 44.5338 24.3661 47.09C24.3948 47.1863 24.4223 47.2825 24.4536 47.3775C24.6811 48.06 25.0998 48.335 25.6448 48.16C26.1698 47.9913 26.3661 47.5463 26.2011 46.8913C26.1186 46.5613 26.0323 46.2338 25.9486 45.9038C25.9448 45.8888 25.9598 45.8688 25.9873 45.7925C27.0723 46.0813 28.1798 46.3175 29.3173 46.3113C30.4461 46.3063 31.5473 46.1088 32.7686 45.7413C31.6236 49.6825 30.5061 53.53 29.3698 57.4425C29.1561 57.24 29.1473 57.015 29.0911 56.8225C28.5548 54.9975 28.0273 53.1688 27.4973 51.3413C27.4523 51.1875 27.4098 51.0313 27.3461 50.8863C27.1361 50.4063 26.6661 50.18 26.2198 50.33C25.7723 50.4813 25.5048 50.9438 25.6423 51.4413C26.0286 52.8313 26.4461 54.2113 26.8436 55.5975C27.3136 57.2388 27.7786 58.88 28.2461 60.5213H30.3898C31.0061 58.3588 31.6148 56.195 32.2423 54.035C33.6398 49.225 35.0561 44.42 36.4398 39.6063C36.5923 39.075 36.7411 38.9463 37.2548 39.2338C38.1286 39.7213 39.0336 40.1563 39.9398 40.5838C40.3948 40.7988 40.4198 41.0238 40.1198 41.405C39.5348 42.1438 38.9773 42.9063 38.4161 43.665C37.9411 44.3075 37.9698 44.6725 38.5336 45.2463C39.0273 45.7475 39.5298 46.24 40.0248 46.7388C40.6398 47.36 40.6923 47.6638 40.2998 48.45C38.3836 52.2875 36.4648 56.1225 34.5461 59.9588C34.4873 60.075 34.4273 60.1913 34.3748 60.31C34.3611 60.3425 34.3473 60.3738 34.3348 60.4063C34.3298 60.4163 34.3261 60.4263 34.3223 60.4375C34.3111 60.465 34.3011 60.4938 34.2923 60.5213H36.3298C37.5111 58.1363 38.6898 55.7488 39.8736 53.365C40.5586 51.9838 41.2573 50.6088 41.9423 49.2263C42.6573 47.7863 42.4698 46.6425 41.3448 45.5063C41.3161 45.4775 41.2873 45.45 41.2598 45.42C40.9123 45.06 40.2936 44.7038 40.2873 44.3375C40.2811 43.9213 40.8386 43.5075 41.1173 43.0713C41.2898 42.8 41.4773 42.7588 41.7673 42.85C43.8698 43.5075 45.9836 44.1288 48.0786 44.81C49.8173 45.3775 51.0148 46.555 51.4273 48.1463L52.5461 46.2163C51.6673 44.6038 50.2098 43.5513 48.2748 42.9625V42.9613ZM16.2786 6.00376C19.0448 5.09001 21.5836 3.60251 24.3686 2.75251C27.3211 1.85126 30.3486 1.56876 33.4148 2.07126C34.7161 2.28376 35.9273 2.75001 36.9761 3.58251C37.4248 3.93876 37.7723 4.36376 38.0248 4.88126C38.3686 5.59001 38.7623 5.81376 39.2648 5.63376C39.7711 5.45251 39.9236 5.04376 39.7736 4.27751C39.7523 4.24501 39.7086 4.20376 39.7173 4.18126C39.7286 4.15251 39.7423 4.13751 39.7586 4.13251C39.7698 4.12751 39.7836 4.12876 39.7973 4.13251C39.8111 4.13626 39.8248 4.14251 39.8398 4.15001C39.8461 4.15376 39.8536 4.15751 39.8598 4.16251H39.8611C39.9186 4.18501 39.9761 4.20751 40.0336 4.23126C40.0786 4.25001 40.1236 4.27001 40.1673 4.29126C40.2061 4.30876 40.2448 4.32751 40.2836 4.34751C40.3248 4.36751 40.3648 4.38876 40.4048 4.41001C40.4661 4.44251 40.5261 4.47626 40.5848 4.51126C40.5848 4.51126 40.5857 4.51168 40.5873 4.51251C40.5873 4.51251 40.5936 4.51501 40.5973 4.51876C40.5986 4.51876 40.5998 4.51876 40.6011 4.52126C40.6311 4.53876 40.6598 4.55626 40.6886 4.57376C40.7173 4.59126 40.7461 4.61001 40.7736 4.62876C40.7998 4.64626 40.8261 4.66376 40.8511 4.68126C40.9423 4.74376 41.0323 4.81001 41.1186 4.87876C41.2123 4.95376 41.3023 5.03126 41.3886 5.11251C41.5111 5.22626 41.6261 5.34751 41.7348 5.47376C41.7598 5.50251 41.7848 5.53126 41.8073 5.56126C41.8286 5.58501 41.8473 5.60876 41.8673 5.63376C41.8986 5.67251 41.9286 5.71251 41.9573 5.75376C41.9823 5.78626 42.0061 5.82001 42.0286 5.85376C42.0761 5.92001 42.1211 5.99001 42.1648 6.06001C42.1823 6.08751 42.1986 6.11626 42.2148 6.14376C42.2861 6.26251 42.3523 6.38501 42.4123 6.51251C42.4248 6.53751 42.4361 6.56251 42.4486 6.58751C42.4686 6.63251 42.4886 6.67751 42.5086 6.72376C42.5261 6.76626 42.5448 6.81001 42.5611 6.85501C42.5723 6.88376 42.5836 6.91376 42.5936 6.94251C42.6273 7.03126 42.6586 7.12251 42.6861 7.21501C42.6986 7.25501 42.7111 7.29501 42.7211 7.33501C42.7448 7.41501 42.7648 7.49626 42.7836 7.57876C42.7936 7.62126 42.8023 7.66376 42.8111 7.70751C42.8223 7.75876 42.8311 7.81001 42.8398 7.86126C42.8461 7.89376 42.8511 7.92751 42.8561 7.96126C42.8586 7.97626 42.8611 7.99126 42.8636 8.00751C42.8711 8.05251 42.8761 8.09876 42.8823 8.14501C42.8948 8.24876 42.9036 8.35376 42.9098 8.46001C42.9136 8.51251 42.9161 8.56501 42.9186 8.61751C42.9211 8.67251 42.9223 8.72751 42.9223 8.78251C42.9248 9.07376 42.9273 9.36626 42.9286 9.65751C42.9311 10.0113 42.9323 10.3663 42.9323 10.72C42.9336 10.9738 42.9336 11.2263 42.9336 11.4788C42.9373 13.6138 42.9286 15.7488 42.9386 17.8838C42.9398 18.2813 42.8211 18.3925 42.4261 18.3938C41.1561 18.395 40.8536 18.1238 40.8598 16.8525V16.7813C40.8598 16.6275 40.8561 16.4738 40.8498 16.3225C40.8498 16.3125 40.8498 16.3025 40.8486 16.2925C40.8461 16.2513 40.8448 16.2088 40.8423 16.1675C40.8398 16.1263 40.8373 16.0838 40.8348 16.0425C40.8311 15.9775 40.8261 15.9138 40.8198 15.85C40.8186 15.8188 40.8148 15.7875 40.8123 15.7575C40.8086 15.715 40.8048 15.6738 40.7998 15.6325C40.7973 15.6013 40.7936 15.5713 40.7898 15.54C40.7861 15.5013 40.7811 15.4613 40.7761 15.4225C40.7711 15.3825 40.7661 15.3438 40.7611 15.305C40.7523 15.2363 40.7423 15.1675 40.7311 15.1C40.7298 15.0863 40.7273 15.0725 40.7248 15.06C40.7086 14.9488 40.6886 14.8388 40.6673 14.7288C40.6336 14.5488 40.5948 14.37 40.5511 14.1938C40.5386 14.1413 40.5261 14.0888 40.5111 14.0363C40.5061 14.0113 40.4998 13.9875 40.4923 13.9625C40.4861 13.9375 40.4786 13.9138 40.4723 13.8888C40.4298 13.735 40.3848 13.5825 40.3348 13.4313C40.3223 13.3938 40.3098 13.3563 40.2973 13.3188C40.2548 13.1925 40.2098 13.0675 40.1623 12.9425C40.1361 12.8713 40.1086 12.8013 40.0798 12.7313C40.0548 12.6675 40.0286 12.605 40.0011 12.5413C39.9761 12.485 39.9536 12.4275 39.9273 12.3713C39.8923 12.2913 39.8548 12.2113 39.8161 12.1313C39.7736 12.0413 39.7311 11.9538 39.6861 11.865C39.6448 11.7825 39.6023 11.7 39.5573 11.6175C39.5523 11.6075 39.5473 11.5975 39.5411 11.5875C39.5198 11.5488 39.4986 11.51 39.4773 11.4725C39.4586 11.4375 39.4398 11.4025 39.4186 11.3675C39.3986 11.3325 39.3786 11.2988 39.3586 11.2638C39.3498 11.2463 39.3398 11.23 39.3298 11.2138C39.3061 11.1725 39.2823 11.1313 39.2573 11.0913C39.2198 11.0288 39.1811 10.9663 39.1411 10.9038C39.1198 10.87 39.0986 10.835 39.0761 10.8013C39.0436 10.75 39.0111 10.7 38.9761 10.6488C38.9311 10.5813 38.8861 10.5138 38.8398 10.4475C38.7936 10.38 38.7461 10.3138 38.6986 10.2475C38.6036 10.1138 38.5048 9.98126 38.4011 9.84876C38.3686 9.80501 38.3348 9.76251 38.3011 9.72001C38.2848 9.69876 38.2686 9.67876 38.2511 9.65751C38.2061 9.60126 38.1598 9.54376 38.1123 9.48751C38.0648 9.42876 38.0161 9.37126 37.9673 9.31376C37.9186 9.25626 37.8686 9.19751 37.8173 9.14001C37.4898 8.76626 37.1223 8.65501 36.6361 8.80501C36.3586 8.89126 36.0798 8.97501 35.8011 9.05626C35.6936 9.08876 35.5861 9.12001 35.4773 9.15001C35.3473 9.18751 35.2186 9.22376 35.0898 9.25876C34.9598 9.29501 34.8311 9.33002 34.7011 9.36376C34.5773 9.39751 34.4536 9.43001 34.3298 9.46126C34.0636 9.53001 33.7973 9.59501 33.5298 9.65751C33.5273 9.65876 33.5236 9.65876 33.5211 9.66001C33.3948 9.69001 33.2686 9.71876 33.1411 9.74626C33.0711 9.76251 33.0011 9.77751 32.9311 9.79251C32.5761 9.87001 32.2198 9.94251 31.8623 10.0075C31.7561 10.0263 31.6498 10.0463 31.5436 10.0638C31.4573 10.0788 31.3711 10.0938 31.2848 10.1075C31.1823 10.125 31.0786 10.1413 30.9761 10.1563C30.8736 10.1725 30.7698 10.1875 30.6673 10.2025C30.4023 10.24 30.1348 10.2763 29.8698 10.3088C29.6923 10.33 29.5161 10.3513 29.3386 10.37C29.1648 10.39 28.9911 10.4075 28.8173 10.4225C28.8111 10.4238 28.8048 10.4238 28.7986 10.425C28.6248 10.4413 28.4523 10.455 28.2798 10.4675C28.1911 10.475 28.1036 10.4813 28.0161 10.4863C27.6536 10.51 27.2923 10.5263 26.9311 10.5338C26.8861 10.535 26.8411 10.5363 26.7948 10.5363C26.6811 10.5388 26.5686 10.54 26.4548 10.54C26.1636 10.54 25.8723 10.535 25.5823 10.5225C25.5223 10.52 25.4623 10.5175 25.4023 10.5138C25.2498 10.5063 25.0986 10.4975 24.9461 10.485C24.8636 10.4788 24.7811 10.4725 24.6986 10.465C24.5836 10.4538 24.4673 10.4425 24.3523 10.43C24.2373 10.4175 24.1223 10.4038 24.0086 10.3888C23.8986 10.3738 23.7898 10.3588 23.6811 10.3425C23.6673 10.3413 23.6536 10.3388 23.6411 10.3363C23.5348 10.32 23.4273 10.3025 23.3211 10.2838C23.2636 10.2738 23.2061 10.2638 23.1498 10.2525C23.0923 10.2425 23.0361 10.2313 22.9786 10.2188C22.8936 10.2025 22.8098 10.185 22.7248 10.1663C22.6473 10.15 22.5711 10.1325 22.4948 10.115C22.4286 10.1 22.3623 10.0838 22.2961 10.0663C22.2461 10.0538 22.1961 10.0413 22.1473 10.0288C22.0836 10.0125 22.0198 9.99501 21.9561 9.97751C21.8423 9.94626 21.7298 9.91376 21.6161 9.88001C21.5398 9.85751 21.4636 9.83376 21.3873 9.80876C21.3261 9.79001 21.2648 9.77001 21.2036 9.74876C21.1148 9.71876 21.0273 9.68876 20.9411 9.65751C20.8461 9.62376 20.7523 9.58876 20.6586 9.55251C20.4423 9.47001 20.2261 9.38126 20.0111 9.28501C19.9223 9.24626 19.8336 9.20626 19.7448 9.16501C18.3848 8.53001 17.1848 7.66251 16.2386 6.47626C16.1098 6.31376 15.8798 6.13501 16.2786 6.00376ZM34.0986 41.2113C33.9848 41.6975 33.7611 42.1625 33.6836 42.6525C33.5823 43.2913 33.2161 43.5938 32.6461 43.8138C30.2373 44.74 27.8698 44.6875 25.5248 43.6C25.2873 43.4888 25.1573 43.3463 25.0823 43.085C24.5823 41.3325 24.0661 39.5838 23.5461 37.8375C23.5361 37.805 23.5286 37.7725 23.5211 37.7413C23.5136 37.7088 23.5073 37.6763 23.5011 37.645C23.4923 37.5963 23.4861 37.5475 23.4798 37.4988C23.4773 37.475 23.4748 37.45 23.4723 37.4263C23.4723 37.4025 23.4686 37.3775 23.4673 37.3538C23.4661 37.3325 23.4648 37.3113 23.4636 37.29C23.4636 37.2688 23.4636 37.2475 23.4636 37.2263C23.4611 37.1213 23.4611 37.015 23.4623 36.9088C23.4623 36.8075 23.4636 36.7075 23.4611 36.6063C23.4611 36.5775 23.4598 36.55 23.4586 36.5213C23.4586 36.3788 23.4586 36.255 23.4611 36.145C23.4623 36.1088 23.4623 36.0738 23.4636 36.0413C23.4636 36.0075 23.4661 35.9775 23.4673 35.9475C23.4686 35.9313 23.4698 35.9163 23.4698 35.9025C23.4711 35.8888 23.4723 35.875 23.4736 35.8625C23.4786 35.7963 23.4873 35.74 23.4986 35.6925C23.5011 35.6813 23.5048 35.6688 23.5073 35.6588C23.5336 35.575 23.5736 35.525 23.6348 35.5038C23.6473 35.4988 23.6623 35.4963 23.6761 35.4938C23.6911 35.4913 23.7061 35.49 23.7223 35.49C23.7498 35.49 23.7798 35.4925 23.8123 35.4988C23.8286 35.5013 23.8448 35.505 23.8636 35.5088C23.8811 35.5125 23.8998 35.5163 23.9186 35.5225C23.9436 35.5288 23.9698 35.5363 23.9986 35.5438C24.0311 35.555 24.0661 35.5663 24.1036 35.5788C24.1386 35.59 24.1736 35.6025 24.2123 35.6163C24.3173 35.6538 24.4361 35.6988 24.5723 35.7488C27.8498 36.9575 31.1236 36.9325 34.3723 35.6238C35.1823 35.2975 35.1286 35.2913 35.1886 36.1288C35.3173 37.935 34.4948 39.525 34.0998 41.2113H34.0986ZM30.1161 34.78C24.2948 35.1525 19.1836 31.1775 17.9661 25.7463C17.7798 24.9175 17.7161 24.0813 17.6598 23.2413C17.6273 22.7475 17.4423 22.3825 16.9186 22.2925C16.4111 22.2063 16.0648 22.4263 15.9048 22.915C15.8511 23.0788 15.7936 23.18 15.5898 23.2075C14.7461 23.3225 13.9723 22.7763 13.8236 21.935C13.6923 21.1925 14.2486 20.4525 15.0536 20.2725C15.5511 20.1613 16.0523 20.2013 16.5523 20.1925C18.4448 20.1613 19.5661 19.0375 19.5848 17.1388C19.5936 16.215 19.5723 15.2913 19.5923 14.3675C19.6011 13.9338 19.5311 13.5363 19.2811 13.1775C18.2436 12.87 17.7623 13.2263 17.7561 14.3175C17.7511 15.26 17.7623 16.2038 17.7536 17.1463C17.7436 18.14 16.8086 18.7338 15.8886 18.3488C15.7461 18.2888 15.7248 18.19 15.7273 18.0675C15.7898 15.6463 15.5423 13.2138 15.9673 10.8038C15.9748 10.765 15.9873 10.7263 15.9973 10.6875C16.0161 10.6188 16.0323 10.5475 16.0498 10.4738C16.0661 10.4 16.0836 10.325 16.1023 10.2513C16.1086 10.2238 16.1161 10.1963 16.1236 10.17C16.1223 10.1688 16.1236 10.1675 16.1248 10.1663C16.1323 10.1375 16.1398 10.1088 16.1486 10.08C16.1573 10.0525 16.1661 10.025 16.1748 9.99876C16.1823 9.97626 16.1898 9.95501 16.1998 9.93376C16.2073 9.91376 16.2148 9.89501 16.2236 9.87626C16.2411 9.83501 16.2611 9.79626 16.2836 9.76001C16.2973 9.73876 16.3098 9.71876 16.3248 9.69876C16.3348 9.68376 16.3448 9.67001 16.3573 9.65751C16.3811 9.62876 16.4086 9.60126 16.4386 9.57751C16.4511 9.56627 16.4648 9.55751 16.4786 9.54751C16.5286 9.51376 16.5761 9.49126 16.6223 9.48001C16.6348 9.47626 16.6461 9.47376 16.6586 9.47251C16.6636 9.47126 16.6673 9.47001 16.6711 9.47126C16.6861 9.46876 16.6998 9.46751 16.7148 9.46751C16.7523 9.46751 16.7886 9.47376 16.8248 9.48501C16.8423 9.49001 16.8598 9.49751 16.8773 9.50626C16.8948 9.51376 16.9111 9.52251 16.9286 9.53376C16.9411 9.54126 16.9548 9.55001 16.9673 9.56001C16.9811 9.56751 16.9948 9.57751 17.0073 9.58876C17.0198 9.59876 17.0323 9.60876 17.0436 9.61876C17.0586 9.63001 17.0723 9.64376 17.0873 9.65751C17.1773 9.74126 17.2648 9.83876 17.3536 9.92126C17.3698 9.93626 17.3848 9.95001 17.4011 9.96251C17.4323 9.99001 17.4636 10.0138 17.4961 10.0338C18.3473 10.565 19.3036 10.8825 20.1611 11.3938C21.2261 11.5663 22.2373 11.955 23.3111 12.11C25.4723 12.4225 27.6261 12.4038 29.7911 12.1538C31.9686 11.9013 34.0948 11.4213 36.1961 10.8138C36.5936 10.6988 36.8261 10.7363 37.0923 11.1025C38.3686 12.86 39.0936 14.7763 39.0623 16.9763C39.0323 19.095 40.1573 20.1813 42.2898 20.1888C42.7111 20.19 43.1373 20.1713 43.5511 20.2338C44.3648 20.3563 44.9498 21.1238 44.8336 21.8538C44.7036 22.6725 43.8523 23.3063 43.0386 23.2125C42.8323 23.1888 42.7786 23.08 42.7248 22.9175C42.5598 22.425 42.2073 22.2188 41.7011 22.31C41.2073 22.4 41.0111 22.7488 40.9873 23.2163C40.9136 24.645 40.6836 26.0363 40.1761 27.3875C38.6323 31.4938 34.4773 34.5013 30.1161 34.78Z" fill="#220002"/>
<path d="M22.1574 60.3372C22.1887 60.3985 22.2224 60.4597 22.2562 60.5197H21.5287C21.5287 60.5072 21.5287 60.4935 21.5274 60.4797C21.5012 60.061 21.5237 59.6385 21.5249 59.2185C21.5562 59.1985 21.5874 59.1772 21.6187 59.1572C21.6512 59.2372 21.6849 59.3172 21.7174 59.396C21.7337 59.4335 21.7499 59.471 21.7662 59.5097C21.8487 59.701 21.9337 59.8897 22.0249 60.076C22.0674 60.1635 22.1112 60.251 22.1574 60.3372Z" fill="#FEFEFE"/>
<path d="M43.5511 20.2336C43.1374 20.1711 42.7111 20.1899 42.2899 20.1886C40.1574 20.1811 39.0324 19.0949 39.0624 16.9761C39.0936 14.7761 38.3686 12.8599 37.0924 11.1024C36.8261 10.7361 36.5936 10.6986 36.1961 10.8136C34.0949 11.4211 31.9686 11.9011 29.7911 12.1536C27.6261 12.4036 25.4724 12.4224 23.3111 12.1099C22.2374 11.9549 21.2261 11.5661 20.1611 11.3936C19.9399 12.0236 19.6349 12.6124 19.2811 13.1774C19.5311 13.5361 19.6011 13.9336 19.5924 14.3674C19.5724 15.2911 19.5936 16.2149 19.5849 17.1386C19.5661 19.0374 18.4449 20.1611 16.5524 20.1924C16.0524 20.2011 15.5511 20.1611 15.0536 20.2724C14.2486 20.4524 13.6924 21.1924 13.8236 21.9349C13.9724 22.7761 14.7461 23.3224 15.5899 23.2074C15.7936 23.1799 15.8511 23.0786 15.9049 22.9149C16.0649 22.4261 16.4111 22.2061 16.9186 22.2924C17.4424 22.3824 17.6274 22.7474 17.6599 23.2411C17.7161 24.0811 17.7799 24.9174 17.9661 25.7461C19.1836 31.1774 24.2949 35.1524 30.1161 34.7799C34.4774 34.5011 38.6324 31.4936 40.1761 27.3874C40.6836 26.0361 40.9136 24.6449 40.9874 23.2161C41.0111 22.7486 41.2074 22.3999 41.7011 22.3099C42.2074 22.2186 42.5599 22.4249 42.7249 22.9174C42.7786 23.0799 42.8324 23.1886 43.0386 23.2124C43.8524 23.3061 44.7036 22.6724 44.8336 21.8536C44.9499 21.1236 44.3649 20.3561 43.5511 20.2336ZM24.3799 21.3974C24.2924 21.8461 24.0024 22.0886 23.5474 22.1024C23.0936 22.1149 22.7886 21.8961 22.6711 21.4499C22.5624 21.0386 22.5849 20.6186 22.6336 20.2036C22.6961 19.6711 23.0249 19.3549 23.5511 19.3736C24.0749 19.3936 24.3786 19.7236 24.4086 20.2649C24.4174 20.4236 24.4086 20.5836 24.4086 20.7436H24.4311C24.4149 20.9624 24.4199 21.1849 24.3786 21.3974H24.3799ZM25.3586 17.4311C25.3211 17.9161 25.0324 18.1961 24.5536 18.2349C24.1961 18.2649 23.8349 18.2411 23.4761 18.2411V18.2436C23.1561 18.2436 22.8361 18.2599 22.5174 18.2399C22.0024 18.2086 21.7024 17.9049 21.6736 17.4036C21.6461 16.9336 21.8886 16.5761 22.3711 16.5049C23.1424 16.3911 23.9236 16.3799 24.6924 16.5124C25.1736 16.5961 25.3961 16.9486 25.3586 17.4311ZM32.6349 27.8361C31.7799 28.5211 30.5574 28.8999 29.2661 28.8761C28.0586 28.8524 26.9261 28.5936 25.9674 27.8074C25.5061 27.4286 25.4024 26.9036 25.7061 26.4936C26.0136 26.0761 26.5236 26.0286 27.0361 26.3686C28.4761 27.3236 30.1699 27.3274 31.5899 26.3761C32.1036 26.0324 32.6099 26.0724 32.9224 26.4824C33.2474 26.9074 33.1349 27.4349 32.6349 27.8361ZM35.9761 21.3899C35.8824 21.8699 35.5736 22.1161 35.0899 22.1011C34.6074 22.0874 34.3049 21.8224 34.2499 21.3399C34.2111 21.0049 34.2086 20.6636 34.2261 20.3261C34.2549 19.7449 34.5899 19.3824 35.0836 19.3611C35.5611 19.3411 35.9424 19.7036 36.0136 20.2611C36.0336 20.4174 36.0161 20.5786 36.0161 20.7386C36.0274 20.7386 36.0386 20.7399 36.0486 20.7399C36.0249 20.9574 36.0174 21.1774 35.9761 21.3899ZM36.9599 17.4386C36.9186 17.9124 36.6299 18.2049 36.1436 18.2374C35.7861 18.2611 35.4249 18.2411 35.0661 18.2411V18.2374C34.7261 18.2374 34.3849 18.2649 34.0486 18.2311C33.5986 18.1849 33.3249 17.9124 33.2799 17.4561C33.2324 16.9736 33.4399 16.6086 33.9199 16.5199C34.7074 16.3749 35.5099 16.3824 36.2986 16.5149C36.7786 16.5961 37.0011 16.9674 36.9599 17.4386Z" fill="#FDDF9F"/>
<path d="M39.8611 4.16079C41.7148 4.87079 42.9036 6.61954 42.9223 8.78204C42.9486 11.8158 42.9223 14.8495 42.9373 17.8833C42.9398 18.2808 42.8211 18.392 42.4261 18.392C41.1561 18.3933 40.8536 18.122 40.8598 16.8508C40.8736 13.8733 39.7561 11.3458 37.8173 9.13829C37.4898 8.76454 37.1223 8.65329 36.6361 8.80329C34.6798 9.40954 32.6961 9.91204 30.6673 10.2008C26.9473 10.7295 23.2573 10.8083 19.7448 9.16329C18.3861 8.52704 17.1848 7.65954 16.2386 6.47329C16.1098 6.31204 15.8798 6.13204 16.2786 6.00079C19.0448 5.08704 21.5836 3.60079 24.3686 2.74954C27.3211 1.84829 30.3486 1.56579 33.4148 2.06829C34.7161 2.28204 35.9273 2.74704 36.9761 3.58079C37.4236 3.93704 37.7723 4.36204 38.0236 4.87954C38.3673 5.58829 38.7611 5.81204 39.2636 5.63204C39.7698 5.45079 39.9236 5.04204 39.7723 4.27579C39.8023 4.23704 39.8311 4.19829 39.8611 4.15954V4.16079Z" fill="#B47E5E"/>
<path d="M46.5398 56.4359C46.2436 56.4197 46.1573 56.5272 46.1748 56.8109C46.1811 56.9334 46.1873 57.0559 46.1873 57.1784L46.6161 56.4397C46.5911 56.4384 46.5648 56.4372 46.5398 56.4359ZM48.0786 44.8084C45.9836 44.1272 43.8698 43.5059 41.7673 42.8484C41.4773 42.7572 41.2898 42.7984 41.1173 43.0697C40.8386 43.5059 40.2811 43.9197 40.2873 44.3359C40.2936 44.7022 40.9123 45.0584 41.2598 45.4184C41.2873 45.4484 41.3161 45.4759 41.3448 45.5047C42.4698 46.6409 42.6573 47.7847 41.9423 49.2247C41.2573 50.6072 40.5586 51.9822 39.8736 53.3634C38.6898 55.7472 37.5111 58.1347 36.3298 60.5197H44.2498L45.2211 58.8447H45.2136C44.7211 58.8134 44.4036 58.4334 44.3698 57.8534C44.3423 57.3984 44.5661 56.7984 44.2698 56.5309C44.0211 56.3059 43.4336 56.4597 42.9961 56.4409C42.3398 56.4122 41.9523 56.0634 41.9623 55.5147C41.9723 54.9684 42.3586 54.6597 43.0311 54.6284C43.4636 54.6084 44.0361 54.8259 44.2898 54.5234C44.5023 54.2722 44.3586 53.7209 44.3698 53.3022C44.3873 52.6297 44.7036 52.2397 45.2423 52.2272C45.7423 52.2147 46.1036 52.5684 46.1748 53.1384C46.2348 53.6272 45.9498 54.2834 46.3061 54.5634C46.5961 54.7934 47.1886 54.6259 47.6598 54.6409L51.4273 48.1447C51.0148 46.5534 49.8173 45.3759 48.0786 44.8084Z" fill="#EAE9EA"/>
<path d="M32.7687 45.7396C31.6237 49.6808 30.5062 53.5283 29.3699 57.4408C29.1562 57.2383 29.1474 57.0133 29.0912 56.8208C28.5549 54.9958 28.0274 53.1671 27.4974 51.3396C27.4524 51.1858 27.4099 51.0296 27.3462 50.8846C27.1362 50.4046 26.6662 50.1783 26.2199 50.3283C25.7724 50.4796 25.5049 50.9421 25.6424 51.4396C26.0287 52.8296 26.4462 54.2096 26.8437 55.5958C27.3137 57.2371 27.7787 58.8783 28.2462 60.5196H24.3462C24.3349 60.4858 24.3224 60.4521 24.3087 60.4196C24.2949 60.3846 24.2812 60.3508 24.2649 60.3158C24.2537 60.2896 24.2412 60.2621 24.2287 60.2358C24.2174 60.2121 24.2062 60.1896 24.1949 60.1658C24.1612 60.0971 24.1262 60.0271 24.0912 59.9583C22.1899 56.1608 20.2887 52.3633 18.3887 48.5658C17.9249 47.6396 17.9662 47.3871 18.6924 46.6596C19.1324 46.2183 19.5737 45.7796 20.0124 45.3383C20.7099 44.6371 20.7274 44.3396 20.1199 43.5271C19.5912 42.8196 19.0799 42.0996 18.5237 41.4133C18.1799 40.9896 18.2849 40.7746 18.7387 40.5608C19.6799 40.1171 20.6149 39.6558 21.5362 39.1696C21.8862 38.9858 22.0124 38.9883 22.1337 39.4158C22.8587 41.9796 23.6187 44.5321 24.3662 47.0883C24.3949 47.1846 24.4224 47.2808 24.4537 47.3758C24.6812 48.0583 25.0999 48.3333 25.6449 48.1583C26.1699 47.9896 26.3662 47.5446 26.2012 46.8896C26.1187 46.5596 26.0324 46.2321 25.9487 45.9021C25.9449 45.8871 25.9599 45.8671 25.9874 45.7908C27.0724 46.0796 28.1799 46.3158 29.3174 46.3096C30.4462 46.3046 31.5474 46.1071 32.7687 45.7396Z" fill="#D9D7DA"/>
<path d="M19.1564 54.149C18.3539 54.149 17.6439 54.1465 16.9339 54.1515C16.7039 54.1527 16.6826 54.0152 16.6826 53.8377C16.6839 53.5565 16.6939 53.2727 16.6601 52.9952C16.6039 52.5352 16.3101 52.2752 15.8614 52.2365C15.4101 52.1977 15.0989 52.4165 14.9476 52.8552C14.8526 53.129 14.8539 53.4127 14.8814 53.6902C14.9176 54.0577 14.7989 54.1702 14.4201 54.1602C13.4164 54.1315 12.4114 54.1502 11.4064 54.1502C11.3676 54.1502 11.3289 54.1502 11.2926 54.1515C11.2639 54.1515 11.2351 54.1527 11.2076 54.154C11.1576 54.1552 11.1089 54.1577 11.0626 54.1615L7.33887 47.7415C7.37137 47.6527 7.40512 47.5665 7.44137 47.4815C7.46012 47.4402 7.47762 47.399 7.49762 47.3577C7.49762 47.3552 7.49887 47.3515 7.50137 47.349C7.51887 47.3102 7.53762 47.2727 7.55637 47.2352C7.57762 47.1927 7.60012 47.1502 7.62387 47.1077C7.66637 47.0265 7.71387 46.9477 7.76387 46.8702C7.78887 46.8315 7.81387 46.7927 7.83887 46.7552C7.86387 46.7165 7.89012 46.679 7.91762 46.6415C7.94387 46.6052 7.97137 46.569 7.99887 46.5327C7.99887 46.5327 7.99928 46.5327 8.00012 46.5327C8.02762 46.4965 8.05637 46.4602 8.08637 46.4252C8.11512 46.389 8.14512 46.354 8.17512 46.3202C8.20387 46.2852 8.23512 46.2515 8.26762 46.2165C8.29887 46.1827 8.33137 46.1502 8.36387 46.1165C8.39262 46.0865 8.42262 46.0565 8.45387 46.0277C8.56137 45.924 8.67262 45.8265 8.79012 45.7327C8.82387 45.7065 8.85762 45.6802 8.89137 45.6552C9.00887 45.5652 9.13137 45.4815 9.25887 45.4015C9.29387 45.3802 9.32887 45.3577 9.36387 45.3377C9.46637 45.2765 9.57137 45.2177 9.67887 45.164C9.72512 45.139 9.77262 45.1152 9.82137 45.0927C9.93762 45.0377 10.0564 44.9852 10.1789 44.9365C10.2039 44.9265 10.2301 44.9165 10.2564 44.9065C10.3076 44.8865 10.3601 44.8677 10.4126 44.849C10.4789 44.8252 10.5451 44.8027 10.6126 44.7815C12.6739 44.1265 14.7489 43.5152 16.8126 42.869C17.1514 42.7627 17.3626 42.804 17.5576 43.119C17.8189 43.5427 18.3576 43.9377 18.3514 44.339C18.3451 44.6902 17.7576 45.0377 17.4176 45.3777C16.1239 46.6777 15.9526 47.734 16.7776 49.3877C17.5539 50.9427 18.3301 52.4977 19.1564 54.1502V54.149Z" fill="#EAE9EA"/>
<path d="M40.2999 48.4488C38.3836 52.2863 36.4649 56.1213 34.5461 59.9575C34.4874 60.0738 34.4274 60.19 34.3749 60.3088C34.3611 60.3413 34.3474 60.3725 34.3349 60.405C34.3299 60.415 34.3261 60.425 34.3224 60.4363C34.3111 60.4638 34.3011 60.4925 34.2924 60.52H30.3899C31.0061 58.3575 31.6149 56.1938 32.2424 54.0338C33.6399 49.2238 35.0561 44.4188 36.4399 39.605C36.5924 39.0738 36.7411 38.945 37.2549 39.2325C38.1286 39.72 39.0336 40.155 39.9399 40.5825C40.3949 40.7975 40.4199 41.0225 40.1199 41.4038C39.5349 42.1425 38.9774 42.905 38.4161 43.6638C37.9411 44.3063 37.9699 44.6713 38.5336 45.245C39.0274 45.7463 39.5299 46.2388 40.0249 46.7375C40.6399 47.3588 40.6924 47.6625 40.2999 48.4488Z" fill="#D9D7DA"/>
<path d="M23.4587 36.5211C23.4587 35.3036 23.4487 35.3348 24.5712 35.7486C27.8487 36.9573 31.1212 36.9323 34.3712 35.6236C35.1812 35.2973 35.1275 35.2911 35.1875 36.1286C35.3162 37.9348 34.4937 39.5248 34.0987 41.2111C33.985 41.6973 33.7612 42.1623 33.6837 42.6523C33.5825 43.2911 33.2162 43.5936 32.6462 43.8136C30.2362 44.7411 27.87 44.6873 25.525 43.5998C25.2875 43.4898 25.1562 43.3473 25.0825 43.0861C24.5825 41.3336 24.0662 39.5848 23.5462 37.8373C23.4175 37.4023 23.4762 36.9611 23.4587 36.5211Z" fill="#FDDF9F"/>
<path d="M19.7087 59.5247C19.7162 59.8847 19.5825 59.9509 19.26 59.9459C18.095 59.9297 16.9312 59.9396 15.7662 59.9396C15.315 59.9396 14.8637 59.9384 14.4125 59.9372L12.1062 55.9609C12.1187 55.9596 12.1312 55.9584 12.1437 55.9571C12.1775 55.9546 12.2137 55.9546 12.2537 55.9559C12.8162 55.9796 13.3787 55.9721 13.9412 55.9596C14.4337 55.9496 14.8425 55.9072 15.11 56.5359C15.37 57.1484 16.375 57.0284 16.5862 56.3684C16.7162 55.9647 16.9112 55.9546 17.225 55.9596C17.9275 55.9696 18.6312 55.9759 19.3337 55.9571C19.6262 55.9484 19.71 56.0459 19.705 56.3322C19.6912 57.3959 19.685 58.4609 19.7087 59.5247Z" fill="#D9D7DA"/>
<path d="M20.1611 11.394C19.9398 12.024 19.6336 12.614 19.2811 13.179C18.2436 12.8702 17.7623 13.2277 17.7573 14.319C17.7523 15.2615 17.7636 16.2052 17.7536 17.1477C17.7436 18.1402 16.8098 18.734 15.8898 18.3502C15.7461 18.2902 15.7248 18.1902 15.7286 18.069C15.7911 15.6477 15.5436 13.2152 15.9686 10.8065C15.9761 10.7677 15.9886 10.729 15.9986 10.6902C16.1086 10.2827 16.1586 9.76525 16.4798 9.55025C16.9148 9.259 17.1748 9.8365 17.4961 10.0365C18.3473 10.5677 19.3036 10.884 20.1611 11.3952V11.394Z" fill="#B47E5E"/>
<path d="M21.6186 59.1568C21.5874 59.1768 21.5561 59.198 21.5236 59.218C21.4811 59.1493 21.4549 59.083 21.5436 59.0293C21.5686 59.0718 21.5936 59.1143 21.6186 59.158V59.1568Z" fill="#B47E5E"/>
<path d="M39.7737 4.27698C39.7537 4.24448 39.7099 4.20323 39.7174 4.18073C39.7474 4.09948 39.8074 4.13073 39.8624 4.16073C39.8324 4.19948 39.8037 4.23823 39.7737 4.27698Z" fill="#B47E5E"/>
<path d="M29.2662 28.8763C28.0574 28.8525 26.9262 28.595 25.9662 27.8075C25.5049 27.4288 25.4024 26.9038 25.7049 26.4938C26.0137 26.0763 26.5224 26.0288 27.0349 26.3688C28.4749 27.325 30.1687 27.3275 31.5887 26.3763C32.1024 26.0325 32.6087 26.0725 32.9212 26.4825C33.2462 26.9075 33.1337 27.435 32.6337 27.8363C31.7774 28.5225 30.5562 28.9 29.2649 28.8763H29.2662Z" fill="#220002"/>
<path d="M23.4762 18.2434C23.1562 18.2434 22.8362 18.2596 22.5187 18.2396C22.0037 18.2071 21.7025 17.9034 21.6737 17.4034C21.6462 16.9321 21.89 16.5759 22.3725 16.5046C23.1425 16.3909 23.925 16.3796 24.6937 16.5121C25.175 16.5959 25.3975 16.9471 25.36 17.4309C25.3225 17.9159 25.0337 18.1959 24.555 18.2346C24.1975 18.2634 23.8362 18.2409 23.4775 18.2409C23.4775 18.2409 23.4775 18.2434 23.4775 18.2446L23.4762 18.2434Z" fill="#220002"/>
<path d="M35.0661 18.2371C34.7273 18.2371 34.3848 18.2647 34.0486 18.2309C33.5986 18.1859 33.3261 17.9134 33.2798 17.4559C33.2323 16.9746 33.4398 16.6084 33.9198 16.5197C34.7073 16.3747 35.5098 16.3822 36.2986 16.5147C36.7798 16.5959 37.0023 16.9659 36.9598 17.4384C36.9186 17.9121 36.6298 18.2046 36.1436 18.2371C35.7861 18.2609 35.4248 18.2422 35.0661 18.2422C35.0661 18.2409 35.0661 18.2396 35.0661 18.2371Z" fill="#220002"/>
<path d="M24.4325 20.7439C24.4162 20.9627 24.4212 21.1839 24.38 21.3977C24.2937 21.8464 24.0025 22.0889 23.5475 22.1014C23.0937 22.1152 22.7887 21.8952 22.6712 21.4502C22.5625 21.0389 22.5837 20.6177 22.6337 20.2027C22.6962 19.6702 23.025 19.3539 23.5512 19.3739C24.075 19.3939 24.38 19.7227 24.4087 20.2652C24.4175 20.4239 24.41 20.5839 24.41 20.7427C24.4175 20.7427 24.425 20.7427 24.4325 20.7427V20.7439Z" fill="#220002"/>
<path d="M36.0487 20.7399C36.0249 20.9574 36.0174 21.1761 35.9762 21.3899C35.8824 21.8699 35.5749 22.1149 35.0912 22.1011C34.6087 22.0861 34.3062 21.8224 34.2499 21.3399C34.2112 21.0049 34.2099 20.6624 34.2262 20.3261C34.2549 19.7449 34.5912 19.3824 35.0849 19.3611C35.5624 19.3411 35.9437 19.7036 36.0149 20.2599C36.0349 20.4161 36.0174 20.5774 36.0174 20.7374C36.0287 20.7374 36.0387 20.7386 36.0499 20.7399H36.0487Z" fill="#220002"/>
<path d="M47.66 54.6406L46.6162 56.4394C46.5912 56.4381 46.565 56.4369 46.54 56.4356C46.2437 56.4194 46.1575 56.5269 46.175 56.8106C46.1812 56.9331 46.1875 57.0556 46.1875 57.1781L45.2212 58.8444H45.2137C44.7212 58.8131 44.4037 58.4331 44.37 57.8531C44.3425 57.3981 44.5662 56.7981 44.27 56.5306C44.0212 56.3056 43.4337 56.4594 42.9962 56.4406C42.34 56.4119 41.9525 56.0631 41.9625 55.5144C41.9725 54.9681 42.3587 54.6594 43.0312 54.6281C43.4637 54.6081 44.0362 54.8256 44.29 54.5231C44.5025 54.2719 44.3587 53.7206 44.37 53.3019C44.3875 52.6294 44.7037 52.2394 45.2425 52.2269C45.7425 52.2144 46.1037 52.5681 46.175 53.1381C46.235 53.6269 45.95 54.2831 46.3062 54.5631C46.5962 54.7931 47.1887 54.6256 47.66 54.6406Z" fill="#030303"/>
</g>
<defs>
<clipPath id="clip0_364_1227">
<rect width="59" height="60.52" fill="white"/>
</clipPath>
</defs>
</svg>
