<svg width="21" height="21" fill="none" xmlns="http://www.w3.org/2000/svg"><g clip-path="url(#a)"><path d="M17.988 6.607c.006.047.012.094.012.143v7.5l-.005.154a3.129 3.129 0 0 1-2.966 2.966l-.154.005h-8.75a3.13 3.13 0 0 1-3.12-2.97L3 14.25v-7.5c0-.049.006-.096.012-.143.006-.048.012-.094.016-.143l5.261 5.26a3.134 3.134 0 0 0 3.977.37l.218-.164.223-.201.003-.004 5.262-5.261c.004.05.01.095.016.143Zm-2.913-2.974a3.119 3.119 0 0 1 2.352 1.33l.108.169-5.709 5.708-.12.11a1.883 1.883 0 0 1-.861.407l-.16.023-.188.008a1.88 1.88 0 0 1-1.323-.547l-5.71-5.71a3.118 3.118 0 0 1 2.661-1.506h8.75l.2.008Z" fill="#fff"/></g><defs><clipPath id="a"><path fill="#fff" transform="translate(3 3)" d="M0 0h15v15H0z"/></clipPath></defs></svg>