<svg width="25" height="25" fill="none" xmlns="http://www.w3.org/2000/svg"><g clip-path="url(#a)"><path d="M23.1.957a4.73 4.73 0 0 0-4.182-.766L9.672 2.867a7.562 7.562 0 0 1-1.355.26c-1.055.102-2.959.41-3.87 1.32-.91.911-1.216 2.813-1.32 3.866a7.571 7.571 0 0 1-.26 1.357L.193 18.916A4.721 4.721 0 0 0 .959 23.1 4.72 4.72 0 0 0 4.764 25h6.68c.187 0 4.654-.051 9.08-4.477S25 11.63 25 11.442v-6.68c0-1.51-.693-2.897-1.9-3.806v.001Zm-3.603 1.238a2.655 2.655 0 0 1 2.35.43 2.65 2.65 0 0 1 1.067 2.137v5.205L16.12 3.17l3.378-.977ZM2.626 21.847a2.657 2.657 0 0 1-.431-2.351l.978-3.378 6.796 6.796H4.764a2.652 2.652 0 0 1-2.137-1.068h-.001Zm13.12-12.522-6.42 6.422-1.475-1.475 6.42-6.422 1.476 1.475Zm1.476 1.476 1.475 1.475-6.421 6.42-1.475-1.474 6.42-6.421Z" fill="#BF1F1F"/></g><defs><clipPath id="a"><path fill="#fff" d="M0 0h25v25H0z"/></clipPath></defs></svg>