<svg width="24" height="24" fill="none" xmlns="http://www.w3.org/2000/svg"><g clip-path="url(#a)"><path d="M12 13c0 1.657-2.686 3-6 3s-6-1.343-6-3 2.686-3 6-3 6 1.343 6 3Zm0 5.5v2c0 1.995-2.579 3.5-6 3.5s-6-1.505-6-3.5v-2C0 20.471 2.5 22 6 22s6-1.529 6-3.5Zm0-4v2c0 1.995-2.579 3.5-6 3.5s-6-1.505-6-3.5v-2C0 16.471 2.5 18 6 18s6-1.529 6-3.5ZM18 6h-8v2h8V6Zm1-6H9C6.243 0 4 2.243 4 5v3.139A14.071 14.071 0 0 1 6 8c.698 0 1.367.048 2 .139V6c0-1.103.897-2 2-2h8c1.103 0 2 .897 2 2v2c0 1.103-.897 2-2 2h-5.469c.655.574 1.112 1.25 1.328 2h1.14a1 1 0 0 1 1 1v1a1 1 0 0 1-1 1h-1v2h5a1 1 0 1 1 0 2h-5v1.5c0 1.365-.617 2.569-1.687 3.5h6.687c2.757 0 5-2.243 5-5V5c0-2.757-2.242-5-4.999-5Zm1 14a1 1 0 1 1-2 0v-1a1 1 0 1 1 2 0v1Z" fill="#fff"/></g><defs><clipPath id="a"><path fill="#fff" d="M0 0h24v24H0z"/></clipPath></defs></svg>