<svg width="24" height="24" fill="none" xmlns="http://www.w3.org/2000/svg"><path d="M17.478.306c-.91.12-1.828.46-2.198.814-.267.258-.352.437-.38.8-.019.267-.005.345.099.557.145.29.29.432.66.648.952.561 3.024.773 4.74.488 1.504-.253 2.273-.8 2.273-1.624 0-.79-.675-1.306-2.11-1.605-.36-.073-.665-.096-1.593-.106-.633-.009-1.303.005-1.49.028ZM6.322 3.083A3.897 3.897 0 0 0 3.35 5.89c-.089.33-.098.52-.121 1.853l-.02 1.486-.337-.318c-.29-.28-.365-.326-.557-.354-.291-.041-.62.11-.746.345-.103.193-.108.51-.019.68.038.07.516.562 1.07 1.1 1.415 1.38 1.284 1.38 2.704 0 .548-.538 1.026-1.04 1.064-1.122a.725.725 0 0 0-.816-1.003c-.126.023-.262.12-.539.382l-.37.354.019-1.426c.023-1.61.056-1.775.403-2.304.314-.469.736-.8 1.256-.993.267-.097.361-.101 2.433-.129l2.156-.023.155-.106c.225-.16.304-.345.281-.657-.023-.29-.122-.446-.375-.575-.183-.092-4.233-.088-4.669.004ZM14.89 5.31v1.052l.155.092c.225.138.82.36 1.238.465.834.211 1.251.253 2.498.253 1.04 0 1.275-.014 1.805-.106.698-.12 1.205-.267 1.725-.497l.36-.165V5.328c0-.594-.013-1.072-.032-1.063-.952.474-1.706.676-2.953.778-1.134.091-2.452-.005-3.422-.263-.431-.11-1.036-.345-1.21-.46a.357.357 0 0 0-.126-.064c-.023 0-.038.474-.038 1.053Zm0 3.094c0 .387.024.782.047.874.075.253.46.64.83.833.698.354 1.42.492 2.756.524.746.018 1.125.005 1.552-.05 1.303-.166 2.189-.576 2.475-1.141.117-.226.122-.276.122-.984v-.75l-.436.202c-.83.387-1.777.575-3.085.607-1.65.046-2.953-.17-3.942-.657l-.319-.157v.7Zm3.587 4.011c-.188.087-2.068 1.945-2.133 2.11-.207.548.276 1.095.853.976.103-.023.277-.152.52-.387l.37-.35-.018 1.426c-.019 1.302-.033 1.454-.122 1.73-.197.588-.713 1.19-1.242 1.44-.516.248-.642.257-2.799.257-1.851 0-2.006.004-2.156.087-.492.253-.51.961-.037 1.246.15.092.215.092 2.404.083l2.25-.014.445-.147c1.027-.34 1.82-1.012 2.279-1.922.375-.745.403-.934.43-2.635l.02-1.486.337.317c.286.272.37.327.549.355.267.036.567-.074.703-.263.112-.151.164-.464.117-.666-.042-.161-1.955-2.065-2.17-2.157a.797.797 0 0 0-.6 0ZM2.59 13.477c-.576.079-1.209.258-1.588.442-.638.308-.924.69-.924 1.232 0 .552.305.93 1.013 1.256 1.434.658 4.33.653 5.76-.01.465-.21.732-.436.886-.744.226-.446.155-.906-.206-1.293-.375-.4-.984-.671-1.908-.841-.571-.106-2.395-.129-3.032-.042ZM.078 18.48v1.077l.366.166c.689.312 1.425.492 2.423.588.783.074 2.236.028 2.94-.092.618-.106 1.448-.359 1.794-.547l.235-.124.014-1.072c.005-.584.005-1.067-.01-1.067-.009 0-.112.05-.23.115-1.677.92-5.39.943-7.213.042l-.319-.157v1.072Zm0 3.128c0 .718.005.76.122.994.258.51.956.874 2.105 1.095.61.119 2.718.119 3.328 0 1.087-.212 1.842-.603 2.119-1.1.07-.124.089-.29.098-.947l.019-.796-.338.166c-.872.432-1.81.62-3.248.653-1.688.041-2.902-.161-3.886-.653l-.319-.157v.745Z" fill="#fff"/></svg>