<svg width="34" height="34" fill="none" xmlns="http://www.w3.org/2000/svg"><path d="M6.795 7.546c.747 1.436 1.614 2.822 2.336 4.262-.023.9.023 1.8.03 2.698.009.93 0 1.86 0 2.79v.123c-.799-.49-1.597-.983-2.397-1.472V7.516h.03v.03Z" fill="#fff"/><path d="M6.763 15.947c.8.49 1.599.983 2.398 1.472 2.266 1.387 4.529 2.782 6.794 4.17h-4.58c-.735-.455-1.477-.9-2.214-1.35-.794-.484-1.607-.956-2.398-1.44-.75-.46-1.515-.946-2.274-1.41-.705-.431-1.39-.902-2.121-1.288C1.585 14.678.755 13.276 0 11.839c2.254 1.369 4.512 2.733 6.762 4.108ZM34 15.841v4.844h-1.707a.296.296 0 0 1-.046-.046v-3.326h-1.63v3.372h-1.751v-4.798c0-.004.043-.046.046-.046h5.087Z" fill="#fff"/><path d="M0 11.839c.755 1.436 1.585 2.838 2.368 4.261v2.545C1.59 20.072.758 21.473 0 22.907V11.84Zm15.955 9.75-9.16 5.61 2.367-4.26c.75-.428 1.495-.871 2.213-1.35h4.58Zm-.061-8.494-4.457.062h-.062l-2.244-1.35c-.722-1.44-1.588-2.826-2.336-4.261 3.027 1.857 6.09 3.663 9.099 5.55Z" fill="#fff"/><path d="M9.162 20.24v2.698L6.795 27.2l-.031-8.401c.79.484 1.603.956 2.398 1.44Zm12.076-2.992c-.316-.087-.625-.273-.964-.302-1.913-.16-1.885 2.537-.034 2.387.326-.026.64-.147.942-.26l.645 1.183c-1.468.852-3.837.475-4.405-1.294-.779-2.425 1.902-4.106 4.016-3.208.084.035.449.206.45.286l-.65 1.208Zm-9.803-4.09c1.44.011 2.88-.016 4.32-.001.052 0 .136-.02.168.031-2.168 1.313-4.323 2.65-6.488 3.968-.086.053-.174.117-.274.141 0-.93.007-1.86 0-2.79l2.213-1.35h.061Zm-4.672 5.64L0 22.907c.758-1.435 1.59-2.836 2.368-4.262.728-.373 1.401-.861 2.12-1.257.76.465 1.524.95 2.275 1.41Z" fill="#fff"/><path d="M15.894 13.096a.202.202 0 0 0 .093.031l-.062.06c-.032-.05-.117-.03-.169-.03-1.44-.015-2.88.012-4.319 0l4.457-.061Zm11.336 2.31c-.54.048-1.135-.042-1.669.007-.653.06-1.279.656-1.368 1.304-.007.054-.011.048.03.03.11-.05.254-.195.38-.267 1.267-.724 3.018-.168 3.362 1.318.501 2.167-1.463 3.453-3.434 2.965-2.999-.743-2.453-6.528.814-6.762l2.628-.028-.742 1.433Zm-1.707 4.107c1.114-.153 1.126-2.256-.383-2.038-1.137.163-1.02 2.229.383 2.038Z" fill="#fff"/></svg>