<svg width="24" height="24" fill="none" xmlns="http://www.w3.org/2000/svg"><g clip-path="url(#a)" fill="#fff"><path d="M4.51 0c.156.081.585.443.585.61v1.086H8.49V.609c0-.166.43-.528.584-.609h.531c.156.081.584.443.584.61v1.086h3.397V.609c0-.166.428-.528.584-.609h.53c.156.081.585.443.585.61v1.086c1.034.08 2.278-.308 3.023.611.12.148.373.622.373.794v1.988H0V3.101c0-.204.28-.686.426-.847.78-.86 1.944-.476 2.97-.558V.609c0-.166.43-.528.585-.609h.53Zm19.265 18.873c-.277.43-1.113 1.433-1.625 1.482-.145.014-.224-.02-.353-.062-.276-.092-1.277-1.07-1.368-1.337-.19-.558.14-.977.64-1.171-.513-1.332-1.947-2.008-3.305-1.496-.52.196-1.053.737-1.607.149-.625-.663-.009-1.271.601-1.578 2.492-1.251 5.586.212 6.062 2.954.465-.067.784.238.955.636v.424Z"/><path d="M18.68 6.787v5.938c-2.02.072-4.827 1.106-4.429 3.608-.607.361-1.304.986-1.753 1.534a2.558 2.558 0 0 0-.451 2.492H1.407C.867 20.36 0 19.492 0 18.954V6.787h18.68Zm-6.966 3.406c-.164.029-.316.143-.438.25l-5.118 5.12c-.67.824.361 1.825 1.192 1.19l5.173-5.17a.851.851 0 0 0-.809-1.391Zm-5.04.846c-1.25.184-.702 2.17.51 1.573.836-.411.408-1.707-.51-1.573Zm5.094 3.394c-1.25.183-.702 2.169.51 1.572.836-.41.408-1.707-.51-1.572Zm4.525 5.925c.464 1.31 1.852 1.973 3.182 1.562.572-.177.916-.691 1.562-.39.426.199.557.661.416 1.094-.14.427-1.15.865-1.564.982-2.428.683-4.82-.77-5.372-3.196-.067-.089-.255-.036-.362-.064-.448-.116-.647-.623-.546-1.052.057-.242.922-1.137 1.148-1.291.393-.27.74-.236 1.112.048.237.18 1.021.987 1.088 1.245.127.492-.186.947-.665 1.063h.001Z"/></g><defs><clipPath id="a"><path fill="#fff" d="M0 0h24v24H0z"/></clipPath></defs></svg>