<svg width="23" height="21" fill="none" xmlns="http://www.w3.org/2000/svg"><g clip-path="url(#a)" fill="#fff"><path d="M2.577 20.866C1.224 20.686.138 19.648 0 18.27L.006 3.445C.06 2.426 1.346.977 2.377.977H9.15L6.096 2.83c-1.011.077-2.097-.066-3.1.009-1.514.112-1.364 1.804-.177 1.913l16.343-.002c.658-.004 1.665.884 1.665 1.532v2.242c-2.005-.005-3.97-.239-5.46 1.355-2.185 2.335-1.093 6.204 1.987 7.023.154.04.52.146.654.146h2.82v2.286c0 .673-1.015 1.452-1.643 1.532H2.577v-.001Z"/><path d="M22.736 10.477v4.662c-.158.25-.274.453-.6.488-1.493-.179-3.863.401-5.151-.398-2.378-1.476-1.444-5.082 1.331-5.286 1.205-.089 2.516.07 3.732.001.348.04.547.23.688.533Zm-4.407 1.387c-1.045.16-1.04 1.712-.052 1.85 1.565.219 1.413-2.058.052-1.85Zm-1.986-8.046H7.24L13.337.124c.365-.227.765-.135 1 .216l2.006 3.477Zm1.642-.111c0 .01.085.059.022.067h-.065L16.387.998c.583.02 1.205.518 1.443 1.043.024.053.155.4.155.422 0 .413-.014.83 0 1.243Z"/></g><defs><clipPath id="a"><path fill="#fff" d="M0 0h22.737v20.866H0z"/></clipPath></defs></svg>