<svg width="24" height="23" fill="none" xmlns="http://www.w3.org/2000/svg"><g clip-path="url(#a)" fill="#fff"><path d="M18.094 1.618c-1.069.177-2.977.496-4.242.704C4.467 3.873 4.158 3.927 3.9 4.051c-.483.23-.825.62-.97 1.108-.094.306-.08.709.047 1.343l.08.412 7.415.013c6.994.009 7.425.018 7.692.093.886.253 1.664.864 2.053 1.622.357.692.361.736.361 3.656 0 2.23.01 2.549.07 2.549.202 0 1.997-.328 2.213-.408.361-.129.806-.527.98-.886.262-.546.276-.453-.703-5.709l-.947-5.03c-.136-.651-.52-1.139-1.088-1.387-.473-.204-.773-.186-3.009.19Z"/><path d="M1.369 8.27c-.694.173-1.294.816-1.36 1.445l-.023.213h19.243l-.034-.213c-.07-.492-.501-1.072-.951-1.29-.488-.235-.103-.226-8.682-.221-6.735 0-7.982.009-8.193.066ZM0 12.742v1.528h19.219v-3.058H0v1.53Zm.01 5.105.013 2.296.136.266c.178.341.535.678.895.846l.282.129h16.5l.304-.138a1.97 1.97 0 0 0 .82-.704c.244-.39.258-.537.258-2.846v-2.14H-.005l.014 2.291Zm5.887.745c.45.257.45.85 0 1.108-.146.084-.24.088-1.913.088s-1.767-.004-1.912-.088c-.535-.306-.413-1.037.197-1.18.08-.017.895-.03 1.809-.026 1.575.01 1.673.014 1.819.098Z"/></g><defs><clipPath id="a"><path fill="#fff" d="M0 0h24v22.691H0z"/></clipPath></defs></svg>