<svg width="24" height="24" fill="none" xmlns="http://www.w3.org/2000/svg"><g clip-path="url(#a)" fill="#fff"><path d="M1.991 1.183a1.177 1.177 0 0 0-.652.498l-.14.239v8.226l.13.229c.072.121.233.294.352.38l.227.153 4.146.015c2.924.01 4.208 0 4.348-.04.108-.031.29-.138.398-.234.383-.34.368-.117.352-4.702l-.015-4.093-.156-.224a1.555 1.555 0 0 0-.388-.345l-.233-.127-4.114-.01c-2.262-.005-4.177.01-4.255.035ZM7.027 4.49c.27.081.56.325.673.574.078.173.098.335.098.97 0 .843-.051 1.04-.341 1.305-.275.254-.466.294-1.3.294-.88 0-1.076-.055-1.345-.38-.238-.28-.285-.523-.264-1.326.015-.66.026-.72.155-.944.145-.234.383-.417.652-.498.213-.066 1.45-.06 1.672.005Zm7.076-3.286c-.295.101-.44.213-.6.446l-.14.214-.016 4.088c-.015 4.575-.03 4.357.352 4.697.11.096.29.203.399.234.14.04 1.423.05 4.348.04l4.145-.015.228-.152c.12-.087.28-.26.352-.381l.13-.229V1.92l-.145-.24a1.063 1.063 0 0 0-.389-.38l-.243-.142-4.115-.01c-3.343-.01-4.15 0-4.306.056Zm5.3 3.397c.16.091.295.223.388.38.135.224.145.28.16.945.021.803-.025 1.046-.263 1.326-.27.325-.466.38-1.346.38-.833 0-1.025-.04-1.3-.294-.289-.264-.34-.462-.34-1.305 0-.874.061-1.077.382-1.326.31-.243.456-.274 1.3-.259.745.01.786.016 1.02.153ZM1.898 13.122c-.228.092-.466.3-.585.518l-.114.213v8.227l.145.239c.093.157.228.29.388.38l.244.143h8.384l.233-.127c.124-.071.3-.229.388-.346l.156-.223.015-4.068c.01-2.843 0-4.128-.041-4.265-.073-.249-.337-.538-.595-.65-.197-.086-.45-.097-4.348-.091-2.593 0-4.187.02-4.27.05Zm5.253 3.342c.114.05.27.157.347.238.259.27.3.457.3 1.275 0 .863-.057 1.056-.388 1.32-.285.234-.533.28-1.35.26-.679-.016-.736-.026-.963-.158a1.064 1.064 0 0 1-.389-.381c-.134-.224-.145-.28-.16-.945-.02-.802.026-1.046.264-1.325.269-.325.466-.38 1.356-.38.647 0 .813.02.983.096Zm6.832-3.306c-.258.117-.522.406-.595.655-.036.122-.052.503-.041 1.015l.015.818.155.223c.088.122.264.275.389.346.212.117.3.127.947.142l.709.02v1.214c0 1.366.02 1.462.388 1.762.27.218.497.264 1.268.264s1-.046 1.268-.264c.378-.305.389-.37.389-1.96v-1.422l-.166-.244a1.317 1.317 0 0 0-.378-.36c-.186-.102-.28-.117-.916-.117h-.704l-.02-.7c-.016-.63-.027-.717-.146-.925a1.456 1.456 0 0 0-.352-.38l-.227-.153-.885-.015c-.777-.01-.916 0-1.098.08Zm5.477.035a1.095 1.095 0 0 0-.41.34c-.15.209-.15.214-.165 1.113-.021 1.02.02 1.163.377 1.457.27.218.497.264 1.268.264.772 0 1-.046 1.268-.264.358-.294.4-.437.378-1.457-.015-.9-.015-.904-.165-1.112a1.079 1.079 0 0 0-.41-.34c-.248-.123-.31-.128-1.07-.128-.761 0-.823.005-1.072.127Zm-5.477 6.465c-.258.117-.522.406-.595.655-.036.122-.052.503-.041 1.015l.015.818.155.223c.088.122.264.275.389.346.222.122.269.127 1.112.127.958 0 1.04-.02 1.341-.31.295-.294.316-.376.316-1.315 0-.828-.005-.874-.13-1.092a1.456 1.456 0 0 0-.352-.38l-.227-.153-.885-.015c-.777-.01-.916 0-1.098.08Zm5.477.035a1.095 1.095 0 0 0-.41.34c-.15.209-.15.214-.165 1.113-.021 1.02.02 1.163.377 1.457.27.218.497.264 1.268.264.772 0 1-.046 1.268-.264.358-.294.4-.437.378-1.457-.015-.9-.015-.904-.165-1.112a1.079 1.079 0 0 0-.41-.34c-.248-.122-.31-.128-1.07-.128-.761 0-.823.006-1.072.127Z"/></g><defs><clipPath id="a"><path fill="#fff" d="M0 0h24v24H0z"/></clipPath></defs></svg>