<svg width="21" height="21" fill="none" xmlns="http://www.w3.org/2000/svg"><g clip-path="url(#a)"><path d="M18.29 9.791a.709.709 0 0 1-.708-.708 5.672 5.672 0 0 0-5.667-5.667.709.709 0 0 1 0-1.417A7.091 7.091 0 0 1 19 9.083a.708.708 0 0 1-.709.708Zm-2.125-.708a4.25 4.25 0 0 0-4.25-4.25.709.709 0 0 0 0 1.416 2.833 2.833 0 0 1 2.834 2.834.708.708 0 0 0 1.416 0Zm1.547 8.616.644-.743a2.196 2.196 0 0 0 0-3.1c-.022-.023-1.726-1.334-1.726-1.334a2.196 2.196 0 0 0-3.032.005l-1.35 1.137a9.056 9.056 0 0 1-4.91-4.919L8.47 7.4a2.196 2.196 0 0 0 .005-3.033S7.163 2.664 7.14 2.642a2.183 2.183 0 0 0-3.064-.032l-.815.708C-1.55 8.901 8.812 19.184 14.58 19a4.36 4.36 0 0 0 3.132-1.3Z" fill="#fff"/></g><defs><clipPath id="a"><path fill="#fff" transform="translate(2 2)" d="M0 0h17v17H0z"/></clipPath></defs></svg>