<svg width="21" height="21" viewBox="0 0 21 21" fill="none" xmlns="http://www.w3.org/2000/svg">
<g clip-path="url(#clip0_973_3811)">
<path d="M18.2904 9.79096C18.1026 9.79096 17.9224 9.71633 17.7895 9.58349C17.6567 9.45066 17.5821 9.27049 17.5821 9.08263C17.5806 7.58019 16.9831 6.13973 15.9207 5.07734C14.8583 4.01496 13.4178 3.41746 11.9154 3.41596C11.7276 3.41596 11.5474 3.34133 11.4145 3.20849C11.2817 3.07566 11.2071 2.89549 11.2071 2.70763C11.2071 2.51976 11.2817 2.3396 11.4145 2.20676C11.5474 2.07392 11.7276 1.99929 11.9154 1.99929C13.7934 2.00136 15.5939 2.7483 16.9218 4.07623C18.2497 5.40417 18.9967 7.20464 18.9987 9.08263C18.9987 9.27049 18.9241 9.45066 18.7913 9.58349C18.6584 9.71633 18.4783 9.79096 18.2904 9.79096ZM16.1654 9.08263C16.1654 7.95546 15.7176 6.87445 14.9206 6.07742C14.1236 5.28039 13.0426 4.83263 11.9154 4.83263C11.7276 4.83263 11.5474 4.90725 11.4145 5.04009C11.2817 5.17293 11.2071 5.3531 11.2071 5.54096C11.2071 5.72882 11.2817 5.90899 11.4145 6.04183C11.5474 6.17466 11.7276 6.24929 11.9154 6.24929C12.6669 6.24929 13.3875 6.5478 13.9189 7.07916C14.4502 7.61051 14.7487 8.33118 14.7487 9.08263C14.7487 9.27049 14.8234 9.45066 14.9562 9.58349C15.089 9.71633 15.2692 9.79096 15.4571 9.79096C15.6449 9.79096 15.8251 9.71633 15.9579 9.58349C16.0908 9.45066 16.1654 9.27049 16.1654 9.08263ZM17.7117 17.6988L18.3563 16.9558C18.7666 16.5442 18.9969 15.9867 18.9969 15.4056C18.9969 14.8244 18.7666 14.267 18.3563 13.8554C18.3343 13.8334 16.6301 12.5223 16.6301 12.5223C16.2211 12.1329 15.6777 11.9161 15.113 11.9169C14.5483 11.9177 14.0056 12.136 13.5977 12.5265L12.2476 13.6641C11.1456 13.208 10.1445 12.5387 9.30186 11.6946C8.45923 10.8505 7.79165 9.84829 7.33745 8.74546L8.47079 7.39963C8.86158 6.99175 9.08016 6.44896 9.08109 5.88408C9.08201 5.3192 8.86521 4.7757 8.47575 4.36654C8.47575 4.36654 7.1632 2.66442 7.14124 2.64246C6.73711 2.2357 6.18916 2.00427 5.6158 1.99817C5.04243 1.99207 4.48969 2.2118 4.07699 2.60988L3.26241 3.31821C-1.55001 8.90129 8.81291 19.1842 14.5802 18.9993C15.1625 19.0027 15.7397 18.8893 16.2775 18.666C16.8154 18.4426 17.303 18.1137 17.7117 17.6988Z" fill="white"/>
</g>
<defs>
<clipPath id="clip0_973_3811">
<rect width="17" height="17" fill="white" transform="translate(2 2)"/>
</clipPath>
</defs>
</svg>
