<svg width="25" height="25" fill="none" xmlns="http://www.w3.org/2000/svg"><g clip-path="url(#a)"><path d="M12.769 22.217a6.728 6.728 0 0 1-1.31-3.988 6.779 6.779 0 0 1 6.77-6.77 6.73 6.73 0 0 1 3.988 1.31l-9.448 9.448Zm1.473 1.473A6.727 6.727 0 0 0 18.228 25 6.779 6.779 0 0 0 25 18.23a6.73 6.73 0 0 0-1.31-3.988l-9.447 9.447Zm-1.743-12.232V6.25A6.258 6.258 0 0 0 6.249 0 6.257 6.257 0 0 0 0 6.25v5.208h12.5-.001ZM9.374 18.23c0-1.724.5-3.327 1.352-4.687H0v5.208A6.258 6.258 0 0 0 6.25 25c1.79 0 3.404-.762 4.545-1.973a8.803 8.803 0 0 1-1.42-4.798h-.001Z" fill="#BF1F1F"/></g><defs><clipPath id="a"><path fill="#fff" d="M0 0h25v25H0z"/></clipPath></defs></svg>