<svg width="25" height="25" fill="none" xmlns="http://www.w3.org/2000/svg"><g clip-path="url(#a)"><path d="M19.792 1.042H5.208A5.215 5.215 0 0 0 0 6.25v8.333a5.215 5.215 0 0 0 5.208 5.209h6.25v2.083H7.292a1.041 1.041 0 1 0 0 2.083h10.416a1.041 1.041 0 1 0 0-2.083h-4.166v-2.083h6.25A5.214 5.214 0 0 0 25 14.583V6.25a5.215 5.215 0 0 0-5.208-5.208Zm0 10.416h-3.089l-1.77 2.662a1.042 1.042 0 0 1-.87.463h-.065a1.04 1.04 0 0 1-.868-.574l-2.322-4.646-1.087 1.632a1.042 1.042 0 0 1-.867.463H5.208a1.041 1.041 0 1 1 0-2.083h3.089l1.77-2.661a1.029 1.029 0 0 1 .935-.464 1.042 1.042 0 0 1 .868.574l2.322 4.645 1.087-1.632a1.042 1.042 0 0 1 .867-.462h3.646a1.042 1.042 0 0 1 0 2.083Z" fill="#BF1F1F"/></g><defs><clipPath id="a"><path fill="#fff" d="M0 0h25v25H0z"/></clipPath></defs></svg>