<svg width="25" height="25" viewBox="0 0 25 25" fill="none" xmlns="http://www.w3.org/2000/svg">
<g clip-path="url(#clip0_364_976)">
<path d="M19.7917 1.04175H5.20833C3.82751 1.0434 2.50371 1.59267 1.52731 2.56906C0.550919 3.54545 0.00165402 4.86925 0 6.25008L0 14.5834C0.00165402 15.9642 0.550919 17.288 1.52731 18.2644C2.50371 19.2408 3.82751 19.7901 5.20833 19.7917H11.4583V21.8751H7.29167C7.0154 21.8751 6.75045 21.9848 6.5551 22.1802C6.35975 22.3755 6.25 22.6405 6.25 22.9167C6.25 23.193 6.35975 23.458 6.5551 23.6533C6.75045 23.8487 7.0154 23.9584 7.29167 23.9584H17.7083C17.9846 23.9584 18.2496 23.8487 18.4449 23.6533C18.6403 23.458 18.75 23.193 18.75 22.9167C18.75 22.6405 18.6403 22.3755 18.4449 22.1802C18.2496 21.9848 17.9846 21.8751 17.7083 21.8751H13.5417V19.7917H19.7917C21.1725 19.7901 22.4963 19.2408 23.4727 18.2644C24.4491 17.288 24.9983 15.9642 25 14.5834V6.25008C24.9983 4.86925 24.4491 3.54545 23.4727 2.56906C22.4963 1.59267 21.1725 1.0434 19.7917 1.04175ZM19.7917 11.4584H16.7031L14.9323 14.1199C14.8368 14.2629 14.7075 14.3801 14.5557 14.461C14.4039 14.5419 14.2345 14.584 14.0625 14.5834C14.0406 14.5834 14.0187 14.5834 13.9979 14.5834C13.8157 14.5722 13.6396 14.5133 13.4873 14.4125C13.335 14.3118 13.2118 14.1728 13.1302 14.0095L10.8083 9.36258L9.72083 10.9949C9.62568 11.1375 9.49679 11.2544 9.34561 11.3353C9.19442 11.4161 9.02562 11.4584 8.85417 11.4584H5.20833C4.93207 11.4584 4.66711 11.3487 4.47176 11.1533C4.27641 10.958 4.16667 10.693 4.16667 10.4167C4.16667 10.1405 4.27641 9.87553 4.47176 9.68018C4.66711 9.48483 4.93207 9.37508 5.20833 9.37508H8.29688L10.0677 6.71362C10.168 6.56004 10.3075 6.43607 10.4717 6.35457C10.636 6.27306 10.8191 6.23698 11.0021 6.25008C11.1843 6.26131 11.3604 6.32024 11.5127 6.42098C11.665 6.52171 11.7882 6.66071 11.8698 6.82404L14.1917 11.4688L15.2792 9.83654C15.3746 9.6943 15.5036 9.57778 15.6547 9.49729C15.8059 9.4168 15.9746 9.37483 16.1458 9.37508H19.7917C20.0679 9.37508 20.3329 9.48483 20.5282 9.68018C20.7236 9.87553 20.8333 10.1405 20.8333 10.4167C20.8333 10.693 20.7236 10.958 20.5282 11.1533C20.3329 11.3487 20.0679 11.4584 19.7917 11.4584Z" fill="#BF1F1F"/>
</g>
<defs>
<clipPath id="clip0_364_976">
<rect width="25" height="25" fill="white"/>
</clipPath>
</defs>
</svg>
