<svg id="scale" width="64" height="64" viewBox="0 0 64 64" fill="none" xmlns="http://www.w3.org/2000/svg">
<path d="M5.51161 11.0804C14.6573 -1.14011 31.9792 -3.63387 44.2011 5.51105C56.4228 14.6559 58.9159 31.976 49.7704 44.1966L48.2138 46.2777L62.6932 60.7611V60.7689L63.6005 61.6761C64.1321 62.2076 64.1323 63.0691 63.6005 63.6009C63.0688 64.1326 62.2066 64.1328 61.6747 63.6009L46.2821 48.2093L44.2011 49.7659C34.3833 57.112 20.8986 57.1119 11.0809 49.7659C-1.14061 40.621 -3.63388 23.3009 5.51161 11.0804ZM27.7538 2.95148C14.0562 2.95155 2.95227 14.0543 2.95204 27.7513C2.95204 41.4485 14.0561 52.552 27.7538 52.5521H27.7567C41.4466 52.5375 52.5418 41.4444 52.5565 27.7552V27.7513C52.5563 14.0542 41.4514 2.95148 27.7538 2.95148Z" fill="white"/>
</svg>
