<svg width="64" height="64" fill="none" xmlns="http://www.w3.org/2000/svg"><path d="M5.512 11.08c9.145-12.22 26.467-14.714 38.69-5.569 12.22 9.145 14.714 26.465 5.568 38.686l-1.556 2.08 14.48 14.484v.008l.906.907a1.36 1.36 0 1 1-1.925 1.925L46.282 48.209l-2.08 1.557a27.642 27.642 0 0 1-33.121 0C-1.141 40.62-3.634 23.3 5.51 11.08Zm22.242-8.129c-13.698 0-24.802 11.103-24.802 24.8 0 13.698 11.104 24.801 24.802 24.801h.003c13.69-.014 24.785-11.108 24.8-24.797v-.004c0-13.697-11.106-24.8-24.803-24.8Z" fill="#fff"/></svg>