<svg width="24" height="24" viewBox="0 0 24 24" fill="none" xmlns="http://www.w3.org/2000/svg">
<path d="M22.5985 20.6588L18.3401 16.3986C21.5265 12.1405 20.6576 6.1056 16.3996 2.91925C12.1415 -0.267095 6.10658 0.601718 2.92023 4.85979C-0.266119 9.11786 0.602694 15.1528 4.86076 18.3391C8.2812 20.8987 12.9791 20.8987 16.3996 18.3391L20.6598 22.5993C21.1951 23.1347 22.0631 23.1347 22.5985 22.5993C23.1338 22.064 23.1338 21.196 22.5985 20.6606L22.5985 20.6588ZM10.6657 17.5169C6.8813 17.5169 3.81349 14.4491 3.81349 10.6647C3.81349 6.88032 6.8813 3.81252 10.6657 3.81252C14.45 3.81252 17.5178 6.88032 17.5178 10.6647C17.5138 14.4473 14.4484 17.5128 10.6657 17.5169Z" fill="#BF1F1F"/>
</svg>
