<svg width="32" height="32" fill="none" xmlns="http://www.w3.org/2000/svg"><rect width="32" height="32" rx="16" fill="#fff"/><path d="M24.942 11.415a2.363 2.363 0 0 0-1.65-1.685c-1.455-.397-7.293-.397-7.293-.397s-5.837 0-7.293.397a2.362 2.362 0 0 0-1.65 1.685C6.666 12.9 6.666 16 6.666 16s0 3.099.39 4.584c.215.82.847 1.466 1.65 1.685 1.456.397 7.293.397 7.293.397s5.838 0 7.294-.397a2.364 2.364 0 0 0 1.65-1.684c.39-1.486.39-4.585.39-4.585s0-3.1-.39-4.585Zm-10.851 7.4v-5.63L18.969 16l-4.878 2.814Z" fill="#AD2C2C"/></svg>