<svg width="32" height="32" fill="none" xmlns="http://www.w3.org/2000/svg"><rect width="32" height="32" rx="16" fill="#fff"/><path d="M24.579 21.334h-2.042c-.778 0-1.007-.598-2.392-1.93-1.212-1.124-1.731-1.27-2.033-1.27-.412 0-.535.112-.535.674v1.761c0 .483-.16.765-1.458.765-2.163 0-4.541-1.264-6.23-3.595-2.531-3.414-3.223-5.995-3.223-6.515 0-.292.117-.556.7-.556H9.41c.521 0 .717.22.913.764 1 2.798 2.684 5.245 3.376 5.245.259 0 .378-.116.378-.75v-2.892c-.076-1.332-.812-1.442-.812-1.916 0-.219.195-.45.519-.45h3.21c.433 0 .583.221.583.721v3.892c0 .416.188.562.317.562.26 0 .476-.146.952-.604 1.472-1.582 2.51-4.017 2.51-4.017.13-.292.369-.556.89-.556h2.04c.618 0 .749.305.618.722-.26 1.145-2.748 4.517-2.748 4.517-.217.333-.303.5 0 .874.217.292.93.875 1.406 1.416.878.95 1.54 1.75 1.724 2.302.17.555-.123.836-.706.836Z" fill="#AD2C2C"/></svg>