<svg width="32" height="32" fill="none" xmlns="http://www.w3.org/2000/svg"><g clip-path="url(#a)"><path d="M16 0C7.164 0 0 7.164 0 16s7.164 16 16 16 16-7.164 16-16S24.836 0 16 0Z" fill="#fff"/><path d="M16.207 6.995c2.351 0 4.56.916 6.22 2.578A8.742 8.742 0 0 1 25 15.795c-.001 4.848-3.947 8.792-8.793 8.792h-.004a8.775 8.775 0 0 1-4.201-1.07L7.34 24.739l1.248-4.555a8.78 8.78 0 0 1-1.174-4.397c.003-4.848 3.946-8.792 8.793-8.792Zm-3.238 4.743a.86.86 0 0 0-.461.263c-.202.22-.77.75-.77 1.832s.787 2.127.898 2.273c.103.14 1.375 2.098 3.348 3.125.132.069.267.133.405.193.524.227.932.361 1.252.463a3.02 3.02 0 0 0 1.383.086c.423-.063 1.3-.53 1.484-1.044l.004-.001c.183-.512.183-.952.128-1.044a.205.205 0 0 0-.026-.033.307.307 0 0 0-.033-.03c-.075-.06-.199-.11-.363-.193-.221-.11-1.3-.64-1.501-.715-.202-.073-.349-.11-.495.11-.147.22-.568.715-.697.862a.542.542 0 0 1-.097.086c-.101.062-.214.051-.378-.032-.11-.055-.343-.14-.652-.305a5.831 5.831 0 0 1-1.115-.784 6.56 6.56 0 0 1-1.223-1.523c-.128-.22-.014-.34.096-.448.1-.098.22-.257.33-.385.11-.128.145-.22.22-.366a.387.387 0 0 0 .035-.107.389.389 0 0 0-.018-.192.68.68 0 0 0-.037-.086c-.055-.11-.494-1.192-.677-1.632-.178-.428-.36-.37-.494-.377a8.907 8.907 0 0 0-.421-.007.683.683 0 0 0-.125.011Z" fill="#AD2D2D"/></g><defs><clipPath id="a"><path fill="#fff" d="M0 0h32v32H0z"/></clipPath></defs></svg>