<svg xmlns="http://www.w3.org/2000/svg"><style>:root svg:not(:target){display:none}</style><svg id="address" width="21" height="21" viewBox="0 0 21 21" fill="none"><g clip-path="url(#clip0_973_3822)"><path d="M14.006 3.452A4.923 4.923 0 0 0 10.5 2c-1.325 0-2.57.516-3.506 1.452a4.966 4.966 0 0 0 .005 7.018l1.768 1.728a2.472 2.472 0 0 0 1.733.701c.628 0 1.255-.234 1.733-.701l1.773-1.734a4.927 4.927 0 0 0 1.452-3.506 4.926 4.926 0 0 0-1.452-3.506ZM10.5 9.076a2.125 2.125 0 1 1 0-4.25 2.125 2.125 0 0 1 0 4.25Zm8.5 4.797a.708.708 0 0 1-.343.611l-6.985 4.192a2.275 2.275 0 0 1-2.342 0l-6.986-4.192a.708.708 0 0 1 .007-1.218l3.439-2.013c.07.078.143.155.218.23l1.768 1.728a3.873 3.873 0 0 0 2.724 1.105 3.874 3.874 0 0 0 2.724-1.105l1.784-1.745c.07-.07.137-.14.203-.213l3.438 2.012a.71.71 0 0 1 .351.608Z" fill="#fff"/></g><defs><clipPath id="clip0_973_3822"><path fill="#fff" transform="translate(2 2)" d="M0 0h17v17H0z"/></clipPath></defs></svg><svg id="ban" viewBox="0 0 60 60" fill="none"><path d="M45.14 49.134c.8.794.694 2.122-.295 2.664C40.24 54.319 34.77 54.83 30 54.83c-4.478 0-9.571-.45-13.987-2.589-1.047-.507-1.193-1.883-.366-2.702l13.67-13.537a1.818 1.818 0 0 1 2.559 0l13.263 13.132Zm-21.016-20.81a1.818 1.818 0 0 1 0 2.585L10.467 44.433c-.819.81-2.177.665-2.69-.365C6.042 40.59 5 36.014 5 30c0-6.338 1.159-11.08 3.062-14.62.535-.994 1.864-1.115 2.666-.321l13.396 13.265Zm25.547-12.476c.827-.819 2.2-.66 2.703.39C54.017 19.677 55 24.16 55 30c0 5.52-.88 9.83-2.364 13.189-.48 1.084-1.883 1.27-2.725.435L37.07 30.909a1.818 1.818 0 0 1 0-2.584l12.6-12.477ZM30 5.17c4.582 0 9.808.47 14.294 2.74 1.026.52 1.158 1.88.34 2.69L31.876 23.232a1.818 1.818 0 0 1-2.559 0L16.172 10.217c-.843-.835-.67-2.24.413-2.724C20.865 5.582 25.715 5.17 30 5.17Z" fill="#BF1F1F"/></svg><svg id="blood" width="25" height="25" viewBox="0 0 25 25" fill="none"><g clip-path="url(#clip0_364_899)"><path d="m17.029 15.337-8.137 8.137A5.173 5.173 0 0 1 5.209 25a5.173 5.173 0 0 1-3.682-1.525 5.215 5.215 0 0 1 0-7.366l8.137-8.137 7.366 7.366h-.001ZM15.376.04l-1.473 1.473 1.108 1.108-3.875 3.875 7.366 7.366 3.876-3.876 1.108 1.108 1.473-1.473-9.583-9.58Zm8.403 23.738a4.136 4.136 0 0 0 1.22-2.945c0-1.113-.432-2.16-1.228-2.955l-2.938-2.874-2.946 2.883a4.137 4.137 0 0 0-1.22 2.945c0 1.113.433 2.16 1.22 2.946A4.138 4.138 0 0 0 20.833 25a4.138 4.138 0 0 0 2.946-1.22Z" fill="#BF1F1F"/></g></svg><svg id="book" viewBox="0 0 24 24" fill="none"><g clip-path="url(#clip0_303_4918)"><path d="M22.2 2.163a5 5 0 0 0-4.157-1.069l-1.764.432A4 4 0 0 0 13 5.461v15.467a6.91 6.91 0 0 1-2 0V5.461a3.981 3.981 0 0 0-3.226-3.923L5.9 1.082A5 5 0 0 0 0 6v10.793a5 5 0 0 0 4.105 4.919l6.286 1.143a9.001 9.001 0 0 0 3.218 0l6.291-1.143a5 5 0 0 0 4.1-4.919V6a4.983 4.983 0 0 0-1.8-3.837Z" fill="#fff"/></g></svg><svg id="calendar" width="34" height="34" viewBox="0 0 34 34" fill="none"><g clip-path="url(#clip0_157_2289)"><path d="M0 26.917A7.092 7.092 0 0 0 7.083 34h19.834A7.092 7.092 0 0 0 34 26.917v-12.75H0v12.75Zm24.083-6.375a2.125 2.125 0 1 1 0 4.25 2.125 2.125 0 0 1 0-4.25Zm-7.083 0a2.125 2.125 0 1 1 0 4.25 2.125 2.125 0 0 1 0-4.25Zm-7.083 0a2.125 2.125 0 1 1 0 4.25 2.125 2.125 0 0 1 0-4.25Zm17-17.709H25.5V1.417a1.417 1.417 0 0 0-2.833 0v1.416H11.333V1.417a1.417 1.417 0 1 0-2.833 0v1.416H7.083A7.092 7.092 0 0 0 0 9.917v1.416h34V9.917a7.092 7.092 0 0 0-7.083-7.084Z" fill="#BF1F1F"/></g></svg><svg id="car" viewBox="0 0 40 40" fill="none"><path d="M26 8.027a9 9 0 0 1 7.85 5.318l2.29 5.155H27.5A1.5 1.5 0 0 1 26 17V8.027ZM15.413 33.5c.055.246.084.498.087.75a3.75 3.75 0 0 1-7.5 0 3.64 3.64 0 0 1 .087-.75h7.326Zm16.5 0c.055.246.084.498.087.75a3.75 3.75 0 0 1-7.5 0 3.64 3.64 0 0 1 .087-.75h7.326Zm6.086-7.317a4.278 4.278 0 0 1-4.5 4.317h-27A4.5 4.5 0 0 1 2 26V15.5A7.509 7.509 0 0 1 9.5 8h6.3l.99-3.963a2.69 2.69 0 0 1 5.22 0L23 8v9a4.5 4.5 0 0 0 4.5 4.5h9.805c.384 1.535.617 3.103.694 4.683ZM17 20a1.5 1.5 0 0 0-1.5-1.5H14V17a1.5 1.5 0 1 0-3 0v1.5H9.5a1.5 1.5 0 1 0 0 3H11V23a1.5 1.5 0 1 0 3 0v-1.5h1.5A1.5 1.5 0 0 0 17 20Z" fill="#BF1F1F"/></svg><svg id="check" width="10" height="7" viewBox="0 0 10 7" fill="none"><path d="M.75 2.568 3.861 5.75l4.889-5" stroke="#fff" stroke-width="1.5" stroke-linecap="round" stroke-linejoin="round"/></svg><svg id="circle-1" width="32" height="32" viewBox="0 0 32 32" fill="none"><circle opacity=".2" cx="16" cy="16" r="16" fill="currentColor"/><path d="M16 0A16 16 0 0 0 0 16h16V0Z" fill="currentColor"/></svg><svg id="circle-2" width="32" height="32" viewBox="0 0 32 32" fill="none"><circle opacity=".2" cx="16" cy="16" r="16" fill="currentColor"/><path d="M32 16a16 16 0 1 0-32 0h32Z" fill="currentColor"/></svg><svg id="circle-3" width="32" height="32" viewBox="0 0 32 32" fill="none"><circle opacity=".2" cx="16" cy="16" r="16" fill="currentColor"/><path d="M32 16a16 16 0 1 0-16 16V16h16Z" fill="currentColor"/></svg><svg id="circle-4" width="32" height="32" viewBox="0 0 32 32" fill="none"><circle cx="16" cy="16" r="16" fill="currentColor"/></svg><svg id="clock" width="21" height="21" viewBox="0 0 21 21" fill="none"><path d="M10.472 3.055c-4.766.03-7.416 2.71-7.416 7.409 0 4.698 2.652 7.432 7.424 7.432 4.831 0 7.326-2.521 7.416-7.432-.082-4.747-2.716-7.378-7.424-7.409Zm2.702 8.095h-2.698a.675.675 0 0 1-.675-.674V6.428a.674.674 0 1 1 1.35 0v3.373h2.023a.674.674 0 1 1 0 1.35Z" fill="currentColor"/></svg><svg id="clock-emergency" width="32" height="32" viewBox="0 0 32 32" fill="none" xmlns="http://www.w3.org/2000/svg"><path d="M28.667 8.667a1.333 1.333 0 0 1-.948-2.27l2-2.024a1.333 1.333 0 1 1 1.896 1.875l-2 2.023c-.26.264-.604.396-.948.396Zm-4.34-4.354 1.226-2.366A1.334 1.334 0 0 0 23.187.719L21.96 3.085a1.334 1.334 0 0 0 2.367 1.228ZM4.27 8.281a1.333 1.333 0 0 0 .01-1.885l-2-2.023A1.333 1.333 0 1 0 .385 6.248l2 2.023c.26.264.604.396.948.396.339 0 .678-.128.938-.386Zm5.2-3.397a1.332 1.332 0 0 0 .569-1.797L8.813.72a1.333 1.333 0 0 0-2.366 1.228l1.226 2.367a1.334 1.334 0 0 0 1.798.57Zm17.65 18.678c-.252.278-.61.438-.988.438H5.868a1.332 1.332 0 0 1-1.327-1.466l.88-8.798A6.35 6.35 0 0 1 11.76 8h8.481a6.35 6.35 0 0 1 6.339 5.736l.88 8.797c.037.375-.087.748-.34 1.028ZM16 14.667c0-.736-.597-1.333-1.333-1.333h-2.639c-.685 0-1.259.518-1.327 1.2l-.266 2.666a1.334 1.334 0 0 0 2.654.267L13.236 16h1.433c.736 0 1.334-.597 1.334-1.333H16Zm16 16c0 .736-.597 1.333-1.333 1.333H1.333A1.334 1.334 0 0 1 0 30.667a4 4 0 0 1 4-4h24a4 4 0 0 1 4 4Z" fill="currentColor"/></svg><svg id="clock-rush" width="32" height="32" viewBox="0 0 32 32" fill="none"><path d="M14.667 0C6.567 0 0 6.567 0 14.667c0 7.262 5.285 13.277 12.216 14.445a4.87 4.87 0 0 1 .608-1.721l6.41-10.99A4.796 4.796 0 0 1 23.415 14c1.74 0 3.303.897 4.18 2.401l1.22 2.09c.329-1.222.52-2.499.52-3.823C29.335 6.567 22.768 0 14.668 0ZM16 14.667c0 .736-.596 1.333-1.333 1.333H9.333a1.333 1.333 0 1 1 0-2.667h4V8A1.333 1.333 0 1 1 16 8v6.667Zm5.539 3.077-6.411 10.99c-.844 1.447.2 3.266 1.876 3.266h12.821c1.676 0 2.722-1.819 1.876-3.267l-6.41-10.989c-.839-1.437-2.915-1.437-3.752 0Zm1.876 12.923a1.334 1.334 0 1 1 0-2.668 1.334 1.334 0 0 1 0 2.668Zm-1.334-5.334v-2.669a1.334 1.334 0 0 1 2.667 0v2.67a1.334 1.334 0 0 1-2.667 0Z" fill="currentColor"/></svg><svg id="clock-standart" width="32" height="32" viewBox="0 0 32 32" fill="none"><g clip-path="url(#clip0_327_5360)"><path d="M16 0a16 16 0 1 0 16 16A16.018 16.018 0 0 0 16 0Zm1.333 15.839a1.332 1.332 0 0 1-.625 1.13l-5.12 3.2a1.335 1.335 0 0 1-2.01-1.434 1.336 1.336 0 0 1 .594-.832l4.495-2.803V9.333a1.333 1.333 0 0 1 2.666 0v6.506Z" fill="currentColor"/></g></svg><svg id="close" width="13" height="13" viewBox="0 0 13 13" fill="none" xmlns="http://www.w3.org/2000/svg"><path transform="rotate(45 11.314 0)" fill="#fff" d="M11.314 0h2v16h-2z"/><path transform="rotate(135 12.728 11.314)" fill="#fff" d="M12.728 11.314h2v16h-2z"/></svg><svg id="doc" width="25" height="25" viewBox="0 0 25 25" fill="none"><g clip-path="url(#clip0_364_4018)"><path d="M12.5 7.292V.479c.951.36 1.826.916 2.568 1.656l3.629 3.632a7.245 7.245 0 0 1 1.657 2.566h-6.812A1.043 1.043 0 0 1 12.5 7.292Zm-.884 12.5H5.208a1.04 1.04 0 1 1 0-2.084h6.25v-2.083h-6.25a1.04 1.04 0 1 1 0-2.083h6.286a4.156 4.156 0 0 1 2.155-3.125h-.107a3.129 3.129 0 0 1-3.125-3.125V.025C10.249.014 10.08 0 9.91 0H5.208A5.214 5.214 0 0 0 0 5.208v14.584A5.214 5.214 0 0 0 5.208 25h9.874c-1.449-1.169-2.979-2.899-3.465-5.208h-.001Zm8.262 5.06C21.08 24.37 25 22.465 25 18.267v-4.185a2.08 2.08 0 0 0-1.427-1.975l-3.974-1.317a1.036 1.036 0 0 0-.655 0l-3.974 1.317a2.078 2.078 0 0 0-1.427 1.975v4.185c0 3.718 3.87 5.94 5.052 6.53 0 0 .338.219.678.219s.606-.163.606-.163Z" fill="#BF1F1F"/></g></svg><svg id="doctor" viewBox="0 0 48 48" fill="none"><path d="M44 46c0 1.106-.894 2-2 2H6c-1.106 0-2-.894-2-2 0-7.05 4.084-13.148 10-16.1v6.656c-1.19.692-2 1.968-2 3.446 0 2.21 1.79 4 4 4s4-1.79 4-4c0-1.476-.81-2.752-2-3.446v-8.092A17.942 17.942 0 0 1 22 28h4c.676 0 1.342.044 2 .118v8.25c-2.322.828-4 3.028-4 5.632v2c0 1.106.894 2 2 2 1.106 0 2-.894 2-2v-2a2 2 0 0 1 4 0v2c0 1.106.894 2 2 2 1.106 0 2-.894 2-2v-2c0-2.604-1.678-4.804-4-5.632V29.05c6.98 2.478 12 9.13 12 16.95Zm-8-34c0-6.618-5.382-12-12-12S12 5.382 12 12s5.382 12 12 12 12-5.382 12-12Z" fill="#BF1F1F"/></svg><svg id="drink" viewBox="0 0 60 60" fill="none"><path d="M45.742 29.753c.008 7.491-5.018 13.671-11.794 15.432-.962.25-1.698 1.08-1.698 2.074V50.5a2 2 0 0 0 2 2h5a2 2 0 0 1 2 2v.5a2 2 0 0 1-2 2h-18.5a2 2 0 0 1-2-2v-.5a2 2 0 0 1 2-2h5a2 2 0 0 0 2-2v-3.24c0-.994-.735-1.825-1.698-2.075a15.744 15.744 0 0 1-6.094-3.123l25.41-16.41.373 4.1Zm5.221-19.668a2 2 0 0 1 2.766.596l.543.84a2 2 0 0 1-.596 2.765l-8.9 5.747c.005.012.012.024.016.036L16.63 38.26l-.02-.034-7.573 4.891a2 2 0 0 1-2.764-.596l-.543-.84a2 2 0 0 1 .594-2.765l8.34-5.386a15.677 15.677 0 0 1-.413-3.572l.852-9.388a2 2 0 0 1 1.992-1.819h20.452l13.417-8.665ZM41.481 3a2 2 0 0 1 1.99 1.818l.661 7.25a2 2 0 0 1-1.992 2.182H17.864a2 2 0 0 1-1.992-2.18l.659-7.25A2 2 0 0 1 18.523 3H41.48Z" fill="#BF1F1F"/></svg><svg id="edu" width="24" height="24" viewBox="0 0 24 24" fill="none"><path d="M20 22.5V24H4v-1.5C4 20.019 6.019 18 8.5 18h.18l3.335 4 3.333-4h.152c2.48 0 4.5 2.019 4.5 4.5ZM13.722.391c-1.047-.521-2.4-.521-3.446 0L2.056 4.5l8.22 4.109A3.878 3.878 0 0 0 12 9.002c.6 0 1.2-.131 1.724-.393L20 5.472v6.529h2v-7.5L13.722.391ZM18 8.707l-3.382 1.691a5.869 5.869 0 0 1-2.618.604 5.857 5.857 0 0 1-2.617-.604L6 8.707V10c0 3.309 2.69 6 6 6 3.309 0 6-2.691 6-6V8.707Z" fill="#BF1F1F"/></svg><svg id="emergency" viewBox="0 0 48 48" fill="none"><path d="m27.385 1.2.241.007a4.002 4.002 0 0 1 3.58 5.166l-.078.228L27.154 17.2H34a4.803 4.803 0 0 1 3.973 7.495l-.014.02-.013.02-12.792 20.587a3.2 3.2 0 0 1-2.676 1.477 3.323 3.323 0 0 1-1.387-.31l-.01-.005-.009-.004-.258-.129a3.16 3.16 0 0 1-1.482-3.671l3.59-11.88h-8.974a4.803 4.803 0 0 1-4.734-3.976 4.801 4.801 0 0 1 .135-2.215l6.048-20v-.005A4.766 4.766 0 0 1 19.994 1.2h7.392Z" fill="#BF1F1F"/></svg><svg id="eye" width="24" height="24" viewBox="0 0 24 24"><path d="M12 15.998a3.999 3.999 0 1 0 0-7.997A3.999 3.999 0 0 0 12 16Z"/><path d="M23.267 9.42C21.717 6.895 18.19 2.658 12 2.658 5.81 2.658 2.284 6.895.733 9.42a4.906 4.906 0 0 0 0 5.16C2.283 17.105 5.81 21.342 12 21.342c6.19 0 9.716-4.237 11.267-6.762a4.907 4.907 0 0 0 0-5.16ZM12 17.998A5.998 5.998 0 1 1 17.998 12 6.004 6.004 0 0 1 12 17.998Z"/></svg><svg id="home" width="32" height="30" viewBox="0 0 32 30" fill="none"><path d="M2.667 9.333V8a8 8 0 0 1 8-8h10.666a8 8 0 0 1 8 8v1.333A5.334 5.334 0 0 0 24 14.667v4H8v-4a5.334 5.334 0 0 0-5.333-5.334Zm26.218 2.703c-1.31.213-2.218 1.444-2.218 2.773V20c0 .736-.598 1.333-1.334 1.333H6.667A1.334 1.334 0 0 1 5.333 20v-5.19c0-1.329-.908-2.56-2.218-2.774A2.669 2.669 0 0 0 0 14.666V20a6.657 6.657 0 0 0 2.667 5.333V28a1.334 1.334 0 0 0 2.666 0v-1.467a6.67 6.67 0 0 0 1.334.134h18.666a6.67 6.67 0 0 0 1.334-.134V28a1.334 1.334 0 0 0 2.666 0v-2.667A6.656 6.656 0 0 0 32 20v-5.333a2.67 2.67 0 0 0-3.115-2.631Z" fill="currentColor"/></svg><svg id="intro-list" width="9" height="23" viewBox="0 0 9 23" fill="none"><path d="m0 3 .056.215A12.242 12.242 0 0 0 9 12a10.508 10.508 0 0 0-8.753 7.965L0 21V3Z" fill="#BF1F1F"/></svg><svg id="hospital" width="32" height="32" viewBox="0 0 32 32" fill="none"><path d="M22.667 0H9.333c-2.205 0-4 1.795-4 4v28h21.334V4c0-2.205-1.795-4-4-4Zm-8 25.333h-4v-2.666h4v2.666Zm0-5.333h-4v-2.667h4V20ZM12 10.667V8h2.667V5.333h2.666V8H20v2.667h-2.667v2.666h-2.666v-2.666H12Zm9.333 14.666h-4v-2.666h4v2.666Zm0-5.333h-4v-2.667h4V20ZM32 12v20h-2.667V8.245C30.881 8.797 32 10.264 32 12ZM2.667 8.245V32H0V12c0-1.736 1.119-3.203 2.667-3.755Z" fill="currentColor"/></svg><svg id="license" viewBox="0 0 48 48" fill="none"><path d="M17.188 22.05c0-4.302-3.498-7.8-7.8-7.8s-7.8 3.498-7.8 7.8c0 2.447 1.156 4.608 2.925 6.04v9.262c0 1.215 1.542 1.735 2.28.77l2.595-3.399 2.595 3.399c.737.965 2.28.444 2.28-.77v-9.263c1.769-1.431 2.925-3.592 2.925-6.039Zm30.225-1.004V37.65c0 5.376-4.374 9.75-9.75 9.75h-19.5c-4.101 0-7.603-2.553-9.04-6.144.084-.073.185-.117.265-.195a5.165 5.165 0 0 0 5.263 1.191 5.161 5.161 0 0 0 3.489-4.6h17.573a1.95 1.95 0 1 0 0-3.9h-17.55v-3.9h17.55a1.95 1.95 0 1 0 0-3.9H20.39c.446-1.238.698-2.55.698-3.9 0-6.453-5.248-11.7-11.7-11.7-.33 0-.653.023-.975.049v-.049C8.413 4.974 12.787.6 18.163.6h8.804c.318 0 .632.025.946.047V14.25a5.857 5.857 0 0 0 5.85 5.85h13.603c.022.314.047.628.047.946Zm-15.6-6.796V1.497a13.606 13.606 0 0 1 4.807 3.1l6.793 6.798a13.56 13.56 0 0 1 3.103 4.805H33.763a1.952 1.952 0 0 1-1.95-1.95Z" fill="#BF1F1F"/></svg><svg id="list" viewBox="0 0 18 23" fill="none"><path d="M9.057 3.215A12.242 12.242 0 0 0 18 12a10.509 10.509 0 0 0-8.753 7.966L9 21l-.247-1.034A10.509 10.509 0 0 0 0 12a12.242 12.242 0 0 0 8.943-8.785L9 3l.057.215Z" fill="#BF1F1F"/></svg><svg id="logo" viewBox="0 0 59 61" fill="none"><g clip-path="url(#clip0_364_16)"><path d="m59 35.089-6.454 11.126-1.118 1.93-3.768 6.496-1.044 1.799-.428.739-.967 1.666-.971 1.675h-29.5l-.338-.583-2.306-3.976-1.043-1.8-3.724-6.42v-.001l-1.072-1.845L0 35.089l14.101-24.314.649-1.118h29.5l.483.833L59 35.089Z" fill="#BF1F1F"/><path d="M48.275 42.961c-1.876-.571-3.754-1.142-5.629-1.72-.236-.072-.506-.091-.522-.463-.037-.854-.545-1.388-1.274-1.752-.609-.304-1.219-.606-1.826-.914-.66-.333-1.547-.516-1.914-1.052-.389-.568-.058-1.481-.12-2.239-.036-.453.135-.72.49-.993 2.661-2.052 4.381-4.717 4.994-8.03.135-.73.468-.798 1.07-.822 1.365-.053 2.65-1.126 2.99-2.409.367-1.376-.188-2.857-1.4-3.616-.318-.198-.414-.406-.412-.766a1038.902 1038.902 0 0 0 .005-9.34c-.013-3.1-1.77-5.747-4.657-6.499A31.488 31.488 0 0 1 35.375.703a3.674 3.674 0 0 0-.629-.2c-3.989-.925-7.907-.524-11.726.793-2.93 1.01-5.653 2.558-8.643 3.437-.675.197-.84.737-.535 1.388.293.623.692 1.175 1.148 1.685.169.19.214.324.052.562-.496.738-.788 1.55-.94 2.407a7.87 7.87 0 0 0-.1.755c-.198 2.246-.058 4.496-.087 6.745-.005.339-.096.538-.393.719-.75.456-1.252 1.131-1.443 1.989-.467 2.092 1.028 3.948 3.253 4.02.474.014.678.093.774.622.524 2.867 1.886 5.29 3.976 7.326.51.495 1.352.736 1.52 1.456.163.706.018 1.48.043 2.22.012.348-.099.53-.419.683-1.174.563-2.33 1.161-3.492 1.746-.645.324-1.135.804-1.195 1.543-.035.441-.253.556-.605.662a479.111 479.111 0 0 0-5.685 1.744c-1.794.565-3.137 1.549-3.982 2.89L7.34 47.74c.032-.087.066-.174.102-.259.019-.041.036-.082.056-.123 0-.003.002-.007.004-.01l.055-.113a3.14 3.14 0 0 1 .068-.127c.042-.082.09-.16.14-.238l.075-.115c.025-.039.05-.076.078-.114L8 46.533a2.28 2.28 0 0 1 .087-.108c.029-.036.059-.071.089-.105a2.3 2.3 0 0 1 .092-.104l.097-.1a4.754 4.754 0 0 1 .426-.384l.101-.077c.118-.09.24-.174.368-.254.035-.021.07-.044.105-.064a4.804 4.804 0 0 1 .457-.245 6.133 6.133 0 0 1 .791-.31c2.062-.656 4.137-1.267 6.2-1.913.34-.106.55-.065.745.25.262.423.8.819.794 1.22-.006.351-.594.699-.934 1.038-1.293 1.3-1.465 2.357-.64 4.01l2.38 4.763c-.803 0-1.513-.002-2.223.003-.23 0-.252-.137-.252-.314.002-.282.012-.565-.022-.843-.056-.46-.35-.72-.799-.759-.451-.038-.762.18-.914.62-.095.273-.093.557-.066.834.036.368-.082.48-.461.47-1.004-.029-2.009-.01-3.014-.01-.039 0-.077 0-.114.002-.028 0-.057 0-.085.002-.05.001-.098.004-.145.008l1.044 1.8.038-.004a.976.976 0 0 1 .11-.002c.562.024 1.125.017 1.687.004.493-.01.901-.052 1.169.577.26.612 1.265.492 1.476-.168.13-.404.325-.414.639-.409.702.01 1.406.017 2.109-.002.292-.009.376.088.37.375a90.604 90.604 0 0 0 .005 3.192c.007.36-.127.426-.45.421-1.164-.016-2.328-.006-3.493-.006l-1.354-.002.338.582h6.779c0-.012 0-.026-.002-.04-.026-.419-.003-.841-.002-1.261-.043-.069-.069-.135.019-.19l.075.129.098.239.05.113a12.93 12.93 0 0 0 .39.828c.032.061.065.122.1.182h2.09a2.248 2.248 0 0 0-.117-.284 16.041 16.041 0 0 0-.137-.277c-1.903-3.797-3.804-7.595-5.704-11.392-.464-.927-.423-1.18.303-1.907.44-.441.882-.88 1.32-1.321.698-.701.715-.999.108-1.811-.529-.708-1.04-1.428-1.596-2.114-.344-.424-.24-.639.215-.852a69.364 69.364 0 0 0 2.797-1.392c.35-.184.476-.181.598.246.725 2.564 1.485 5.117 2.232 7.673.029.096.056.192.088.287.227.683.646.958 1.19.783.526-.169.722-.614.557-1.269-.082-.33-.169-.657-.252-.987-.004-.015.01-.035.038-.112 1.085.29 2.193.526 3.33.52 1.13-.006 2.23-.203 3.452-.57l-3.4 11.7c-.213-.202-.222-.427-.278-.62-.536-1.825-1.064-3.653-1.594-5.48-.045-.154-.087-.31-.15-.456-.21-.48-.68-.706-1.127-.556a.897.897 0 0 0-.578 1.111c.387 1.39.804 2.77 1.202 4.156.47 1.642.935 3.283 1.402 4.924h2.144c.616-2.162 1.225-4.326 1.852-6.486 1.398-4.81 2.814-9.615 4.198-14.429.152-.531.301-.66.815-.372.874.487 1.779.922 2.685 1.35.455.215.48.44.18.821-.585.739-1.143 1.501-1.704 2.26-.475.642-.446 1.008.118 1.581.493.502.996.994 1.49 1.493.616.621.668.925.276 1.711-1.916 3.837-3.835 7.672-5.754 11.509-.059.116-.119.232-.171.351a1.953 1.953 0 0 0-.04.096 1.17 1.17 0 0 0-.043.115h2.038c1.181-2.385 2.36-4.772 3.544-7.156.685-1.381 1.383-2.756 2.068-4.139.715-1.44.528-2.584-.597-3.72-.029-.029-.058-.056-.085-.086-.348-.36-.966-.716-.973-1.083-.006-.416.552-.83.83-1.266.173-.271.36-.312.65-.221 2.103.657 4.217 1.279 6.312 1.96 1.738.567 2.936 1.745 3.348 3.336l1.12-1.93c-.88-1.612-2.337-2.665-4.272-3.254ZM16.279 6.004c2.766-.914 5.305-2.401 8.09-3.251 2.952-.902 5.98-1.184 9.046-.682 1.301.213 2.512.679 3.561 1.512.449.356.796.78 1.049 1.298.344.709.737.933 1.24.753.506-.181.659-.59.509-1.356-.022-.033-.065-.074-.057-.097.012-.028.025-.043.042-.048.01-.005.025-.004.038 0 .014.003.028.01.043.017l.02.013h.001l.173.068c.045.019.09.039.133.06.04.018.078.037.117.057a4.117 4.117 0 0 1 .318.174l.087.052.085.055.077.052a4.644 4.644 0 0 1 .538.432 4.487 4.487 0 0 1 .418.448c.022.024.04.048.06.073.032.039.062.079.09.12a3.889 3.889 0 0 1 .208.306l.05.084c.071.119.137.241.197.369l.037.075.06.136c.017.042.036.086.052.131l.033.088c.033.088.065.18.092.272a3.933 3.933 0 0 1 .125.492 3.318 3.318 0 0 1 .045.254l.008.047c.007.045.012.09.018.137a5.133 5.133 0 0 1 .037.473l.003.165a212.69 212.69 0 0 1 .01 1.937c.002.254.002.506.002.759.003 2.135-.005 4.27.005 6.405 0 .397-.118.508-.513.51-1.27.001-1.572-.27-1.566-1.541v-.072c0-.153-.004-.307-.01-.458l-.001-.03-.007-.125-.007-.125a4.628 4.628 0 0 0-.015-.193c-.001-.031-.005-.063-.008-.092a3.723 3.723 0 0 0-.012-.125l-.01-.093a3.645 3.645 0 0 0-.014-.117l-.015-.118a5.615 5.615 0 0 0-.036-.245 9.446 9.446 0 0 0-.233-1.098l-.02-.073a9.593 9.593 0 0 0-.137-.458l-.038-.112a10.355 10.355 0 0 0-.296-.778c-.025-.056-.047-.114-.074-.17a10.556 10.556 0 0 0-.386-.784c-.021-.038-.042-.077-.064-.114a2.21 2.21 0 0 0-.058-.106l-.06-.103a7.633 7.633 0 0 0-.218-.36c-.021-.034-.042-.069-.065-.103a5.167 5.167 0 0 0-.1-.152c-.045-.068-.09-.135-.136-.201-.046-.068-.094-.134-.141-.2a10.728 10.728 0 0 0-.298-.4c-.032-.043-.066-.085-.1-.128a9.49 9.49 0 0 0-.484-.58c-.327-.374-.695-.485-1.18-.335a49.37 49.37 0 0 1-3.107.853 18.721 18.721 0 0 1-.389.089l-.21.046c-.355.077-.711.15-1.069.215l-.318.056c-.087.015-.173.03-.26.043-.102.018-.205.034-.308.05l-.309.046c-.265.037-.532.073-.797.106-.178.021-.354.042-.531.061-.174.02-.348.038-.522.053a24.536 24.536 0 0 1-.801.064c-.362.023-.724.04-1.085.047l-.136.002a20.276 20.276 0 0 1-1.212-.014 13.959 13.959 0 0 1-.884-.058 15.148 15.148 0 0 1-1.377-.181l-.172-.03a9.527 9.527 0 0 1-.425-.086l-.23-.052a26.766 26.766 0 0 1-.539-.137 17.157 17.157 0 0 1-.569-.17 12.654 12.654 0 0 1-.729-.256 12.392 12.392 0 0 1-.913-.387c-1.36-.635-2.56-1.502-3.506-2.689-.13-.162-.36-.341.04-.472Zm17.82 35.207c-.114.486-.338.952-.415 1.442-.102.638-.468.94-1.038 1.16-2.409.927-4.776.874-7.121-.213a.737.737 0 0 1-.443-.515 475.99 475.99 0 0 0-1.536-5.248c-.01-.032-.017-.065-.025-.096l-.02-.096c-.009-.049-.015-.098-.021-.146l-.008-.073c0-.023-.003-.049-.005-.072l-.003-.064v-.064a9.07 9.07 0 0 1-.002-.317c0-.102.002-.201 0-.303 0-.029-.002-.056-.003-.085 0-.142 0-.266.002-.376.001-.036.001-.071.003-.104 0-.033.002-.063.003-.093a.58.58 0 0 0 .003-.045l.004-.04a.996.996 0 0 1 .025-.17l.008-.034c.027-.084.067-.134.128-.155a.277.277 0 0 1 .088-.014c.027 0 .057.002.09.009.016.002.032.006.05.01.018.004.037.007.056.014l.08.02.105.036.108.037.36.133c3.278 1.209 6.552 1.183 9.8-.125.81-.327.757-.333.817.505.128 1.806-.694 3.396-1.09 5.082Zm-3.983-6.431c-5.821.373-10.932-3.603-12.15-9.034-.186-.828-.25-1.665-.306-2.505-.033-.494-.218-.858-.741-.948-.508-.087-.854.133-1.014.622-.054.164-.111.265-.315.293a1.558 1.558 0 0 1-1.766-1.273c-.132-.742.425-1.482 1.23-1.662.497-.112.998-.072 1.498-.08 1.893-.032 3.014-1.155 3.033-3.054.009-.924-.013-1.848.007-2.771.01-.434-.06-.832-.31-1.19-1.038-.308-1.52.048-1.526 1.14-.005.942.006 1.886-.002 2.828-.01.994-.945 1.588-1.865 1.203-.143-.06-.164-.159-.162-.282.063-2.42-.185-4.853.24-7.263.008-.039.02-.078.03-.117.02-.068.035-.14.053-.213a7.386 7.386 0 0 1 .074-.304c-.002-.001 0-.002 0-.004a2.132 2.132 0 0 1 .076-.232.848.848 0 0 1 .084-.174l.04-.061a.55.55 0 0 1 .114-.121c.013-.012.027-.02.04-.03a.45.45 0 0 1 .18-.075c.006-.002.01-.003.013-.002a.368.368 0 0 1 .206.035.342.342 0 0 1 .052.028.353.353 0 0 1 .038.026.967.967 0 0 1 .076.059c.016.011.03.025.044.039.09.083.178.18.267.263a.676.676 0 0 0 .047.042.695.695 0 0 0 .095.07c.851.532 1.808.85 2.665 1.36 1.065.173 2.076.562 3.15.717 2.161.313 4.315.294 6.48.044 2.178-.253 4.304-.733 6.405-1.34.398-.115.63-.078.896.288 1.277 1.758 2.002 3.674 1.97 5.874-.03 2.119 1.095 3.205 3.228 3.213.421.001.847-.018 1.261.045.814.122 1.399.89 1.283 1.62-.13.819-.982 1.452-1.795 1.358-.207-.023-.26-.132-.314-.294-.165-.493-.518-.7-1.024-.608-.494.09-.69.439-.714.906-.073 1.429-.303 2.82-.81 4.171-1.545 4.107-5.7 7.114-10.06 7.393Z" fill="#220002"/><path d="M22.157 60.337c.032.062.065.123.1.183h-.728c0-.013 0-.026-.002-.04-.026-.419-.003-.841-.002-1.261l.094-.062.098.24.05.113a12.93 12.93 0 0 0 .39.828Z" fill="#FEFEFE"/><path d="M43.551 20.234c-.414-.063-.84-.044-1.261-.045-2.133-.008-3.258-1.094-3.228-3.213.032-2.2-.693-4.116-1.97-5.874-.266-.366-.498-.403-.896-.288-2.101.607-4.227 1.087-6.405 1.34-2.165.25-4.319.268-6.48-.044-1.074-.155-2.085-.544-3.15-.716a8.958 8.958 0 0 1-.88 1.783c.25.36.32.757.311 1.19-.02.924.002 1.848-.007 2.772-.019 1.898-1.14 3.022-3.033 3.053-.5.01-1-.03-1.498.08-.805.18-1.362.92-1.23 1.663a1.558 1.558 0 0 0 1.766 1.272c.204-.027.261-.128.315-.292.16-.489.506-.709 1.014-.623.523.09.708.455.74.95.057.84.12 1.675.307 2.504 1.218 5.431 6.329 9.406 12.15 9.034 4.361-.279 8.516-3.286 10.06-7.393.508-1.35.738-2.742.811-4.17.024-.468.22-.817.714-.907.506-.091.859.115 1.024.607.054.163.107.272.314.295.813.094 1.665-.54 1.795-1.358.116-.73-.47-1.498-1.283-1.62ZM24.38 21.397c-.088.45-.378.692-.833.705-.453.013-.758-.206-.876-.652-.109-.411-.086-.831-.037-1.246.062-.533.39-.85.917-.83.524.02.828.35.858.89.008.16 0 .32 0 .48h.022c-.016.218-.011.44-.052.653Zm.979-3.966c-.038.485-.327.765-.805.804-.358.03-.72.006-1.078.006v.003c-.32 0-.64.016-.959-.004-.515-.031-.815-.335-.843-.836-.028-.47.215-.828.697-.9a7.339 7.339 0 0 1 2.321.008c.482.084.704.437.667.92Zm7.276 10.405c-.855.685-2.078 1.064-3.369 1.04-1.207-.024-2.34-.282-3.299-1.069-.46-.378-.565-.903-.26-1.313.307-.418.817-.465 1.33-.125 1.44.955 3.133.958 4.553.007.514-.344 1.02-.304 1.332.106.325.425.213.953-.287 1.354Zm3.341-6.446c-.094.48-.402.726-.886.711-.483-.014-.785-.279-.84-.761a6.094 6.094 0 0 1-.024-1.014c.029-.581.364-.944.858-.965.477-.02.858.343.93.9.02.156.002.318.002.478h.033c-.024.218-.032.438-.073.65Zm.984-3.951c-.041.473-.33.766-.816.798-.358.024-.72.004-1.078.004v-.004c-.34 0-.681.028-1.017-.006-.45-.046-.724-.319-.77-.775-.047-.482.16-.847.64-.936a6.849 6.849 0 0 1 2.38-.005c.48.081.702.452.66.924Z" fill="#FDDF9F"/><path d="M39.861 4.16c1.854.71 3.043 2.46 3.061 4.622.027 3.034 0 6.068.015 9.101.003.398-.116.509-.51.509-1.27.001-1.573-.27-1.567-1.541.014-2.978-1.104-5.505-3.043-7.713-.327-.373-.695-.485-1.18-.335-1.957.607-3.94 1.109-5.97 1.398-3.72.528-7.41.607-10.922-1.038-1.359-.636-2.56-1.503-3.506-2.69-.13-.161-.36-.341.04-.472 2.766-.914 5.305-2.4 8.09-3.251 2.952-.902 5.98-1.184 9.046-.682 1.301.214 2.512.679 3.561 1.513a3.7 3.7 0 0 1 1.048 1.299c.343.708.737.932 1.24.752.506-.181.66-.59.508-1.356l.09-.116Z" fill="#B47E5E"/><path d="M46.54 56.436c-.296-.016-.383.091-.365.375.006.123.012.245.012.368l.43-.74c-.026 0-.052-.002-.077-.003Zm1.539-11.627c-2.095-.682-4.21-1.303-6.312-1.96-.29-.092-.477-.05-.65.22-.278.437-.836.85-.83 1.267.007.366.625.723.973 1.083.027.03.056.057.085.086 1.125 1.136 1.312 2.28.597 3.72-.685 1.382-1.383 2.757-2.068 4.139-1.184 2.383-2.363 4.77-3.544 7.156h7.92l.971-1.675h-.007c-.493-.031-.81-.411-.844-.991-.028-.455.196-1.055-.1-1.323-.249-.225-.836-.071-1.274-.09-.656-.029-1.044-.377-1.034-.926.01-.546.397-.855 1.07-.886.432-.02 1.004.197 1.258-.105.212-.252.069-.803.08-1.222.017-.672.334-1.062.872-1.075.5-.012.862.342.933.912.06.488-.225 1.145.131 1.425.29.23.883.062 1.354.077l3.767-6.496c-.412-1.591-1.61-2.769-3.348-3.336Z" fill="#EAE9EA"/><path d="m32.769 45.74-3.4 11.7c-.213-.202-.222-.427-.278-.62-.536-1.824-1.064-3.653-1.594-5.48-.045-.154-.087-.31-.15-.456-.21-.48-.68-.706-1.127-.556a.897.897 0 0 0-.578 1.111c.387 1.39.804 2.77 1.202 4.157.47 1.64.935 3.282 1.402 4.923h-3.9a2.097 2.097 0 0 0-.117-.284l-.034-.07a46539.798 46539.798 0 0 1-5.806-11.6c-.464-.926-.423-1.178.303-1.906.44-.44.882-.88 1.32-1.32.698-.702.715-1 .108-1.812-.529-.708-1.04-1.428-1.596-2.114-.344-.424-.24-.639.215-.852a69.366 69.366 0 0 0 2.797-1.392c.35-.183.476-.18.598.247.725 2.563 1.485 5.116 2.232 7.672.029.096.056.193.088.288.227.682.646.957 1.19.782.526-.169.722-.614.557-1.269-.082-.33-.169-.657-.252-.987-.004-.015.01-.035.038-.111 1.085.288 2.193.525 3.33.518 1.13-.005 2.23-.202 3.452-.57Z" fill="#D9D7DA"/><path d="M19.156 54.149c-.802 0-1.512-.002-2.222.002-.23.002-.251-.136-.251-.313 0-.282.01-.565-.023-.843-.056-.46-.35-.72-.799-.758-.45-.04-.762.18-.913.618-.095.274-.094.558-.067.835.037.368-.082.48-.46.47-1.005-.028-2.01-.01-3.015-.01-.038 0-.077 0-.113.002-.03 0-.058 0-.085.002a2.52 2.52 0 0 0-.145.007l-3.724-6.42c.032-.088.066-.175.102-.26.02-.04.037-.082.057-.123 0-.003 0-.006.003-.009l.055-.114a3.14 3.14 0 0 1 .068-.127c.042-.081.09-.16.14-.238l.075-.115a2.6 2.6 0 0 1 .079-.114l.08-.108H8c.028-.037.056-.073.086-.108l.09-.105a2.3 2.3 0 0 1 .092-.103c.03-.034.063-.067.096-.1l.09-.09c.107-.103.219-.2.336-.294l.101-.078c.118-.09.24-.174.368-.254l.105-.063a4.804 4.804 0 0 1 .457-.245 6.133 6.133 0 0 1 .792-.312c2.06-.654 4.136-1.266 6.2-1.912.338-.106.55-.065.745.25.26.424.8.819.793 1.22-.006.351-.593.699-.933 1.039-1.294 1.3-1.465 2.356-.64 4.01l2.378 4.762v-.001Z" fill="#EAE9EA"/><path d="M40.3 48.449c-1.916 3.837-3.835 7.672-5.754 11.509-.059.116-.119.232-.171.35-.014.033-.028.065-.04.097a1.077 1.077 0 0 0-.042.115H30.39c.616-2.163 1.225-4.326 1.852-6.486 1.398-4.81 2.814-9.615 4.198-14.429.152-.531.301-.66.815-.372.874.487 1.779.922 2.685 1.35.455.215.48.44.18.82-.585.74-1.143 1.502-1.704 2.26-.475.643-.446 1.008.118 1.582.493.501.996.994 1.49 1.492.616.622.668.925.276 1.712Z" fill="#D9D7DA"/><path d="M23.459 36.521c0-1.217-.01-1.186 1.112-.772 3.278 1.208 6.55 1.183 9.8-.125.81-.327.756-.333.816.505.13 1.806-.693 3.396-1.088 5.082-.114.486-.338.951-.415 1.441-.101.64-.468.942-1.038 1.162-2.41.927-4.776.873-7.121-.214a.73.73 0 0 1-.442-.514 490.77 490.77 0 0 0-1.537-5.249c-.128-.435-.07-.876-.087-1.316Z" fill="#FDDF9F"/><path d="M19.709 59.525c.007.36-.127.426-.449.42-1.165-.015-2.329-.005-3.494-.005l-1.354-.003-2.306-3.976.038-.004c.034-.002.07-.002.11-.001.562.024 1.125.016 1.687.004.493-.01.901-.053 1.169.576.26.612 1.265.492 1.476-.168.13-.403.325-.413.639-.408.702.01 1.406.016 2.109-.003.292-.009.376.089.371.375a90.604 90.604 0 0 0 .004 3.193Z" fill="#D9D7DA"/><path d="M20.161 11.394a9.044 9.044 0 0 1-.88 1.785c-1.037-.309-1.519.049-1.524 1.14-.005.942.007 1.886-.003 2.829-.01.992-.944 1.586-1.864 1.202-.144-.06-.165-.16-.161-.281.062-2.421-.185-4.854.24-7.262.007-.04.02-.078.03-.117.11-.407.16-.925.48-1.14.436-.291.696.286 1.017.486.851.532 1.808.848 2.665 1.36v-.002Zm1.458 47.763-.095.061c-.043-.069-.07-.135.02-.189l.075.129v-.001Zm18.155-54.88c-.02-.033-.064-.074-.057-.096.03-.082.09-.05.145-.02l-.088.116Z" fill="#B47E5E"/><path d="M29.266 28.876c-1.209-.024-2.34-.281-3.3-1.069-.461-.378-.564-.903-.261-1.313.309-.418.817-.465 1.33-.125 1.44.956 3.134.959 4.554.007.513-.344 1.02-.303 1.332.107.325.424.213.952-.287 1.353-.857.687-2.078 1.064-3.37 1.04h.002Zm-5.79-10.632c-.32 0-.64.016-.957-.004-.515-.033-.816-.336-.845-.836-.028-.472.216-.828.698-.9a7.341 7.341 0 0 1 2.322.008c.481.084.704.435.666.919-.037.485-.326.765-.805.804-.357.029-.719.006-1.078.006v.004-.002Zm11.59-.007c-.339 0-.681.028-1.017-.006-.45-.045-.723-.317-.77-.775-.047-.481.16-.847.64-.936a6.85 6.85 0 0 1 2.38-.005c.48.081.703.451.66.924-.04.473-.33.766-.815.798-.358.024-.72.005-1.078.005v-.005Zm-10.633 2.507c-.017.219-.012.44-.053.654-.086.448-.377.69-.832.703-.454.014-.76-.206-.877-.65-.108-.412-.087-.833-.037-1.248.062-.533.391-.85.917-.83.524.02.829.35.858.892.009.159.001.319.001.478h.023Zm11.616-.004c-.024.217-.032.436-.073.65-.094.48-.401.725-.885.711-.482-.015-.785-.279-.841-.761a6.241 6.241 0 0 1-.024-1.014c.029-.581.365-.944.859-.965.477-.02.859.343.93.899.02.156.002.317.002.477.012 0 .022.002.033.003h-.001Z" fill="#220002"/><path d="m47.66 54.64-1.044 1.8-.076-.004c-.296-.017-.383.091-.365.375.006.122.013.245.013.367l-.967 1.666h-.007c-.493-.03-.81-.41-.844-.99-.027-.456.196-1.056-.1-1.323-.249-.225-.836-.072-1.274-.09-.656-.029-1.044-.378-1.034-.927.01-.546.397-.855 1.07-.886.432-.02 1.004.198 1.258-.105.212-.251.069-.802.08-1.221.018-.672.334-1.063.873-1.075.5-.012.86.341.932.911.06.489-.225 1.145.131 1.425.29.23.883.063 1.354.078Z" fill="#030303"/></g></svg><svg id="logo-white" viewBox="0 0 59 61" fill="none"><g clip-path="url(#clip0_364_1227)"><path d="m59 35.089-6.454 11.126-1.118 1.93-3.768 6.496-1.044 1.799-.428.739-.967 1.666-.971 1.675h-29.5l-.338-.583-2.306-3.976-1.043-1.8-3.724-6.42v-.001l-1.072-1.845L0 35.089l14.101-24.314.649-1.118h29.5l.483.833L59 35.089Z" fill="#fff"/><path d="M48.275 42.961c-1.876-.571-3.754-1.142-5.629-1.72-.236-.072-.506-.091-.522-.463-.037-.854-.545-1.388-1.274-1.752-.609-.304-1.219-.606-1.826-.914-.66-.333-1.547-.516-1.914-1.052-.389-.568-.058-1.481-.12-2.239-.036-.453.135-.72.49-.993 2.661-2.052 4.381-4.717 4.994-8.03.135-.73.468-.798 1.07-.822 1.365-.053 2.65-1.126 2.99-2.409.367-1.376-.188-2.857-1.4-3.616-.318-.198-.414-.406-.412-.766a1038.902 1038.902 0 0 0 .005-9.34c-.013-3.1-1.77-5.747-4.657-6.499A31.488 31.488 0 0 1 35.375.703a3.674 3.674 0 0 0-.629-.2c-3.989-.925-7.907-.524-11.726.793-2.93 1.01-5.653 2.558-8.643 3.437-.675.197-.84.737-.535 1.388.293.623.692 1.175 1.148 1.685.169.19.214.324.052.562-.496.738-.788 1.55-.94 2.407a7.87 7.87 0 0 0-.1.755c-.198 2.246-.058 4.496-.087 6.745-.005.339-.096.538-.393.719-.75.456-1.252 1.131-1.443 1.989-.467 2.092 1.028 3.948 3.253 4.02.474.014.678.093.774.622.524 2.867 1.886 5.29 3.976 7.326.51.495 1.352.736 1.52 1.456.163.706.018 1.48.043 2.22.012.348-.099.53-.419.683-1.174.563-2.33 1.161-3.492 1.746-.645.324-1.135.804-1.195 1.543-.035.441-.253.556-.605.662a479.111 479.111 0 0 0-5.685 1.744c-1.794.565-3.137 1.549-3.982 2.89L7.34 47.74c.032-.087.066-.174.102-.259.019-.041.036-.082.056-.123 0-.003.002-.007.004-.01l.055-.113a3.14 3.14 0 0 1 .068-.127c.042-.082.09-.16.14-.238l.075-.115c.025-.039.05-.076.078-.114L8 46.533a2.28 2.28 0 0 1 .087-.108c.029-.036.059-.071.089-.105a2.3 2.3 0 0 1 .092-.104l.097-.1a4.754 4.754 0 0 1 .426-.384l.101-.077c.118-.09.24-.174.368-.254.035-.021.07-.044.105-.064a4.804 4.804 0 0 1 .457-.245 6.133 6.133 0 0 1 .791-.31c2.062-.656 4.137-1.267 6.2-1.913.34-.106.55-.065.745.25.262.423.8.819.794 1.22-.006.351-.594.699-.934 1.038-1.293 1.3-1.465 2.357-.64 4.01l2.38 4.763c-.803 0-1.513-.002-2.223.003-.23 0-.252-.137-.252-.314.002-.282.012-.565-.022-.843-.056-.46-.35-.72-.799-.759-.451-.038-.762.18-.914.62-.095.273-.093.557-.066.834.036.368-.082.48-.461.47-1.004-.029-2.009-.01-3.014-.01-.039 0-.077 0-.114.002-.028 0-.057 0-.085.002-.05.001-.098.004-.145.008l1.044 1.8.038-.004a.976.976 0 0 1 .11-.002c.562.024 1.125.017 1.687.004.493-.01.901-.052 1.169.577.26.612 1.265.492 1.476-.168.13-.404.325-.414.639-.409.702.01 1.406.017 2.109-.002.292-.009.376.088.37.375a90.604 90.604 0 0 0 .005 3.192c.007.36-.127.426-.45.421-1.164-.016-2.328-.006-3.493-.006l-1.354-.002.338.582h6.779c0-.012 0-.026-.002-.04-.026-.419-.003-.841-.002-1.261-.043-.069-.069-.135.019-.19l.075.129.098.239.05.113a12.93 12.93 0 0 0 .39.828c.032.061.065.122.1.182h2.09a2.248 2.248 0 0 0-.117-.284 16.041 16.041 0 0 0-.137-.277c-1.903-3.797-3.804-7.595-5.704-11.392-.464-.927-.423-1.18.303-1.907.44-.441.882-.88 1.32-1.321.698-.701.715-.999.108-1.811-.529-.708-1.04-1.428-1.596-2.114-.344-.424-.24-.639.215-.852a69.364 69.364 0 0 0 2.797-1.392c.35-.184.476-.181.598.246.725 2.564 1.485 5.117 2.232 7.673.029.096.056.192.088.287.227.683.646.958 1.19.783.526-.169.722-.614.557-1.269-.082-.33-.169-.657-.252-.987-.004-.015.01-.035.038-.112 1.085.29 2.193.526 3.33.52 1.13-.006 2.23-.203 3.452-.57l-3.4 11.7c-.213-.202-.222-.427-.278-.62-.536-1.825-1.064-3.653-1.594-5.48-.045-.154-.087-.31-.15-.456-.21-.48-.68-.706-1.127-.556a.897.897 0 0 0-.578 1.111c.387 1.39.804 2.77 1.202 4.156.47 1.642.935 3.283 1.402 4.924h2.144c.616-2.162 1.225-4.326 1.852-6.486 1.398-4.81 2.814-9.615 4.198-14.429.152-.531.301-.66.815-.372.874.487 1.779.922 2.685 1.35.455.215.48.44.18.821-.585.739-1.143 1.501-1.704 2.26-.475.642-.446 1.008.118 1.581.493.502.996.994 1.49 1.493.616.621.668.925.276 1.711-1.916 3.837-3.835 7.672-5.754 11.509-.059.116-.119.232-.171.351a1.953 1.953 0 0 0-.04.096 1.17 1.17 0 0 0-.043.115h2.038c1.181-2.385 2.36-4.772 3.544-7.156.685-1.381 1.383-2.756 2.068-4.139.715-1.44.528-2.584-.597-3.72-.029-.029-.058-.056-.085-.086-.348-.36-.966-.716-.973-1.083-.006-.416.552-.83.83-1.266.173-.271.36-.312.65-.221 2.103.657 4.217 1.279 6.312 1.96 1.738.567 2.936 1.745 3.348 3.336l1.12-1.93c-.88-1.612-2.337-2.665-4.272-3.254ZM16.279 6.004c2.766-.914 5.305-2.401 8.09-3.251 2.952-.902 5.98-1.184 9.046-.682 1.301.213 2.512.679 3.561 1.512.449.356.796.78 1.049 1.298.344.709.737.933 1.24.753.506-.181.659-.59.509-1.356-.022-.033-.065-.074-.057-.097.012-.028.025-.043.042-.048.01-.005.025-.004.038 0 .014.003.028.01.043.017l.02.013h.001l.173.068c.045.019.09.039.133.06.04.018.078.037.117.057a4.117 4.117 0 0 1 .318.174l.087.052.085.055.077.052a4.644 4.644 0 0 1 .538.432 4.487 4.487 0 0 1 .418.448c.022.024.04.048.06.073.032.039.062.079.09.12a3.889 3.889 0 0 1 .208.306l.05.084c.071.119.137.241.197.369l.037.075.06.136c.017.042.036.086.052.131l.033.088c.033.088.065.18.092.272a3.933 3.933 0 0 1 .125.492 3.318 3.318 0 0 1 .045.254l.008.047c.007.045.012.09.018.137a5.133 5.133 0 0 1 .037.473l.003.165a212.69 212.69 0 0 1 .01 1.937c.002.254.002.506.002.759.003 2.135-.005 4.27.005 6.405 0 .397-.118.508-.513.51-1.27.001-1.572-.27-1.566-1.541v-.072c0-.153-.004-.307-.01-.458l-.001-.03-.007-.125-.007-.125a4.628 4.628 0 0 0-.015-.193c-.001-.031-.005-.063-.008-.092a3.723 3.723 0 0 0-.012-.125l-.01-.093a3.645 3.645 0 0 0-.014-.117l-.015-.118a5.615 5.615 0 0 0-.036-.245 9.446 9.446 0 0 0-.233-1.098l-.02-.073a9.593 9.593 0 0 0-.137-.458l-.038-.112a10.355 10.355 0 0 0-.296-.778c-.025-.056-.047-.114-.074-.17a10.556 10.556 0 0 0-.386-.784c-.021-.038-.042-.077-.064-.114a2.21 2.21 0 0 0-.058-.106l-.06-.103a7.633 7.633 0 0 0-.218-.36c-.021-.034-.042-.069-.065-.103a5.167 5.167 0 0 0-.1-.152c-.045-.068-.09-.135-.136-.201-.046-.068-.094-.134-.141-.2a10.728 10.728 0 0 0-.298-.4c-.032-.043-.066-.085-.1-.128a9.49 9.49 0 0 0-.484-.58c-.327-.374-.695-.485-1.18-.335a49.37 49.37 0 0 1-3.107.853 18.721 18.721 0 0 1-.389.089l-.21.046c-.355.077-.711.15-1.069.215l-.318.056c-.087.015-.173.03-.26.043-.102.018-.205.034-.308.05l-.309.046c-.265.037-.532.073-.797.106-.178.021-.354.042-.531.061-.174.02-.348.038-.522.053a24.536 24.536 0 0 1-.801.064c-.362.023-.724.04-1.085.047l-.136.002a20.276 20.276 0 0 1-1.212-.014 13.959 13.959 0 0 1-.884-.058 15.148 15.148 0 0 1-1.377-.181l-.172-.03a9.527 9.527 0 0 1-.425-.086l-.23-.052a26.766 26.766 0 0 1-.539-.137 17.157 17.157 0 0 1-.569-.17 12.654 12.654 0 0 1-.729-.256 12.392 12.392 0 0 1-.913-.387c-1.36-.635-2.56-1.502-3.506-2.689-.13-.162-.36-.341.04-.472Zm17.82 35.207c-.114.486-.338.952-.415 1.442-.102.638-.468.94-1.038 1.16-2.409.927-4.776.874-7.121-.213a.737.737 0 0 1-.443-.515 475.99 475.99 0 0 0-1.536-5.248c-.01-.032-.017-.065-.025-.096l-.02-.096c-.009-.049-.015-.098-.021-.146l-.008-.073c0-.023-.003-.049-.005-.072l-.003-.064v-.064a9.07 9.07 0 0 1-.002-.317c0-.102.002-.201 0-.303 0-.029-.002-.056-.003-.085 0-.142 0-.266.002-.376.001-.036.001-.071.003-.104 0-.033.002-.063.003-.093a.58.58 0 0 0 .003-.045l.004-.04a.996.996 0 0 1 .025-.17l.008-.034c.027-.084.067-.134.128-.155a.277.277 0 0 1 .088-.014c.027 0 .057.002.09.009.016.002.032.006.05.01.018.004.037.007.056.014l.08.02.105.036.108.037.36.133c3.278 1.209 6.552 1.183 9.8-.125.81-.327.757-.333.817.505.128 1.806-.694 3.396-1.09 5.082Zm-3.983-6.431c-5.821.373-10.932-3.603-12.15-9.034-.186-.828-.25-1.665-.306-2.505-.033-.494-.218-.858-.741-.948-.508-.087-.854.133-1.014.622-.054.164-.111.265-.315.293a1.558 1.558 0 0 1-1.766-1.273c-.132-.742.425-1.482 1.23-1.662.497-.112.998-.072 1.498-.08 1.893-.032 3.014-1.155 3.033-3.054.009-.924-.013-1.848.007-2.771.01-.434-.06-.832-.31-1.19-1.038-.308-1.52.048-1.526 1.14-.005.942.006 1.886-.002 2.828-.01.994-.945 1.588-1.865 1.203-.143-.06-.164-.159-.162-.282.063-2.42-.185-4.853.24-7.263.008-.039.02-.078.03-.117.02-.068.035-.14.053-.213a7.386 7.386 0 0 1 .074-.304c-.002-.001 0-.002 0-.004a2.132 2.132 0 0 1 .076-.232.848.848 0 0 1 .084-.174l.04-.061a.55.55 0 0 1 .114-.121c.013-.012.027-.02.04-.03a.45.45 0 0 1 .18-.075c.006-.002.01-.003.013-.002a.368.368 0 0 1 .206.035.342.342 0 0 1 .052.028.353.353 0 0 1 .038.026.967.967 0 0 1 .076.059c.016.011.03.025.044.039.09.083.178.18.267.263a.676.676 0 0 0 .047.042.695.695 0 0 0 .095.07c.851.532 1.808.85 2.665 1.36 1.065.173 2.076.562 3.15.717 2.161.313 4.315.294 6.48.044 2.178-.253 4.304-.733 6.405-1.34.398-.115.63-.078.896.288 1.277 1.758 2.002 3.674 1.97 5.874-.03 2.119 1.095 3.205 3.228 3.213.421.001.847-.018 1.261.045.814.122 1.399.89 1.283 1.62-.13.819-.982 1.452-1.795 1.358-.207-.023-.26-.132-.314-.294-.165-.493-.518-.7-1.024-.608-.494.09-.69.439-.714.906-.073 1.429-.303 2.82-.81 4.171-1.545 4.107-5.7 7.114-10.06 7.393Z" fill="#220002"/><path d="M22.157 60.337c.032.061.065.123.1.183h-.728c0-.013 0-.027-.002-.04-.026-.419-.003-.841-.002-1.261l.094-.062.098.239.05.114a12.934 12.934 0 0 0 .39.827Z" fill="#FEFEFE"/><path d="M43.551 20.234c-.414-.063-.84-.044-1.261-.045-2.133-.008-3.258-1.094-3.228-3.213.032-2.2-.693-4.116-1.97-5.874-.266-.366-.498-.403-.896-.288-2.101.607-4.227 1.087-6.405 1.34-2.165.25-4.319.268-6.48-.044-1.074-.155-2.085-.544-3.15-.716a8.958 8.958 0 0 1-.88 1.783c.25.36.32.757.311 1.19-.02.924.002 1.848-.007 2.772-.019 1.898-1.14 3.022-3.033 3.053-.5.01-1-.03-1.498.08-.805.18-1.362.92-1.23 1.663a1.558 1.558 0 0 0 1.766 1.272c.204-.027.261-.128.315-.292.16-.489.506-.709 1.014-.623.523.09.708.455.74.95.057.84.12 1.675.307 2.504 1.218 5.431 6.329 9.406 12.15 9.034 4.361-.279 8.516-3.286 10.06-7.393.508-1.35.738-2.742.811-4.17.024-.468.22-.817.714-.907.506-.091.859.115 1.024.607.054.163.107.272.314.295.813.094 1.665-.54 1.795-1.358.116-.73-.47-1.498-1.283-1.62ZM24.38 21.397c-.088.45-.378.692-.833.705-.453.013-.758-.206-.876-.652-.109-.411-.086-.831-.037-1.246.062-.533.39-.85.917-.83.524.02.828.35.858.89.008.16 0 .32 0 .48h.022c-.016.218-.011.44-.052.653Zm.979-3.966c-.038.485-.327.765-.805.804-.358.03-.72.006-1.078.006v.003c-.32 0-.64.016-.959-.004-.515-.031-.815-.335-.843-.836-.028-.47.215-.828.697-.9a7.339 7.339 0 0 1 2.321.008c.482.084.704.437.667.92Zm7.276 10.405c-.855.685-2.078 1.064-3.369 1.04-1.207-.024-2.34-.282-3.299-1.069-.46-.378-.565-.903-.26-1.313.307-.418.817-.465 1.33-.125 1.44.955 3.133.958 4.553.007.514-.344 1.02-.304 1.332.106.325.425.213.953-.287 1.354Zm3.341-6.446c-.094.48-.402.726-.886.711-.483-.014-.785-.279-.84-.761a6.094 6.094 0 0 1-.024-1.014c.029-.581.364-.944.858-.965.477-.02.858.343.93.9.02.156.002.318.002.478h.033c-.024.218-.032.438-.073.65Zm.984-3.951c-.041.473-.33.766-.816.798-.358.024-.72.004-1.078.004v-.004c-.34 0-.681.028-1.017-.006-.45-.046-.724-.319-.77-.775-.047-.482.16-.847.64-.936a6.849 6.849 0 0 1 2.38-.005c.48.081.702.452.66.924Z" fill="#FDDF9F"/><path d="M39.861 4.16c1.854.71 3.043 2.46 3.061 4.622.027 3.034 0 6.068.015 9.101.003.398-.116.509-.51.509-1.27.001-1.573-.27-1.567-1.541.014-2.978-1.104-5.505-3.043-7.713-.327-.373-.695-.485-1.18-.335-1.957.607-3.94 1.109-5.97 1.398-3.72.528-7.41.607-10.922-1.038-1.359-.636-2.56-1.503-3.506-2.69-.13-.161-.36-.341.04-.472 2.766-.914 5.305-2.4 8.09-3.251 2.952-.902 5.98-1.184 9.046-.682 1.301.214 2.512.679 3.561 1.513a3.7 3.7 0 0 1 1.048 1.299c.343.708.737.932 1.24.752.506-.181.66-.59.508-1.356l.09-.116Z" fill="#B47E5E"/><path d="M46.54 56.436c-.296-.016-.383.091-.365.375.006.122.012.245.012.367l.43-.738-.077-.004Zm1.539-11.628c-2.095-.68-4.21-1.302-6.312-1.96-.29-.09-.477-.05-.65.222-.278.436-.836.85-.83 1.266.007.366.625.722.973 1.082.027.03.056.058.085.087 1.125 1.136 1.312 2.28.597 3.72-.685 1.382-1.383 2.757-2.068 4.138-1.184 2.384-2.363 4.772-3.544 7.157h7.92l.971-1.675h-.007c-.493-.032-.81-.412-.844-.992-.028-.455.196-1.055-.1-1.322-.249-.225-.836-.071-1.274-.09-.656-.029-1.044-.378-1.034-.926.01-.547.397-.855 1.07-.887.432-.02 1.004.198 1.258-.105.212-.25.069-.802.08-1.22.017-.673.334-1.063.872-1.076.5-.012.862.341.933.911.06.49-.225 1.145.131 1.425.29.23.883.063 1.354.078l3.767-6.496c-.412-1.592-1.61-2.77-3.348-3.337Z" fill="#EAE9EA"/><path d="m32.769 45.74-3.4 11.7c-.213-.202-.222-.427-.278-.62-.536-1.824-1.064-3.653-1.594-5.48-.045-.154-.087-.31-.15-.455-.21-.48-.68-.707-1.127-.557a.897.897 0 0 0-.578 1.112c.387 1.39.804 2.77 1.202 4.156.47 1.641.935 3.282 1.402 4.924h-3.9a2.248 2.248 0 0 0-.117-.284l-.034-.07a46539.798 46539.798 0 0 1-5.806-11.6c-.464-.926-.423-1.179.303-1.906.44-.442.882-.88 1.32-1.322.698-.7.715-.998.108-1.81-.529-.708-1.04-1.428-1.596-2.115-.344-.423-.24-.638.215-.852a69.364 69.364 0 0 0 2.797-1.391c.35-.184.476-.182.598.246.725 2.564 1.485 5.116 2.232 7.672.029.097.056.193.088.288.227.682.646.957 1.19.782.526-.168.722-.613.557-1.268-.082-.33-.169-.658-.252-.988-.004-.015.01-.035.038-.111 1.085.289 2.193.525 3.33.519 1.13-.005 2.23-.203 3.452-.57Z" fill="#D9D7DA"/><path d="M19.156 54.149c-.802 0-1.512-.002-2.222.002-.23.002-.251-.136-.251-.313 0-.282.01-.565-.023-.843-.056-.46-.35-.72-.799-.758-.45-.04-.762.18-.913.618-.095.274-.094.558-.067.835.037.368-.082.48-.46.47-1.005-.028-2.01-.01-3.015-.01-.038 0-.077 0-.113.002-.03 0-.058 0-.085.002a2.52 2.52 0 0 0-.145.007l-3.724-6.42c.032-.088.066-.175.102-.26.02-.04.037-.082.057-.123 0-.003 0-.006.003-.009l.055-.114a3.14 3.14 0 0 1 .068-.127c.042-.081.09-.16.14-.238l.075-.115a2.6 2.6 0 0 1 .079-.114l.08-.108H8c.028-.037.056-.073.086-.108l.09-.105a2.3 2.3 0 0 1 .092-.103c.03-.034.063-.067.096-.1l.09-.09c.107-.103.219-.2.336-.294l.101-.078c.118-.09.24-.174.368-.254l.105-.063a4.804 4.804 0 0 1 .457-.245 6.133 6.133 0 0 1 .792-.312c2.06-.654 4.136-1.266 6.2-1.912.338-.106.55-.065.745.25.26.424.8.819.793 1.22-.006.351-.593.699-.933 1.039-1.294 1.3-1.465 2.356-.64 4.01l2.378 4.762v-.001Z" fill="#EAE9EA"/><path d="M40.3 48.449c-1.916 3.837-3.835 7.672-5.754 11.509-.059.116-.119.232-.171.35-.014.033-.028.065-.04.097a1.077 1.077 0 0 0-.042.115H30.39c.616-2.163 1.225-4.326 1.852-6.486 1.398-4.81 2.814-9.615 4.198-14.429.152-.531.301-.66.815-.372.874.487 1.779.922 2.685 1.35.455.215.48.44.18.82-.585.74-1.143 1.502-1.704 2.26-.475.643-.446 1.008.118 1.582.493.501.996.994 1.49 1.492.616.622.668.925.276 1.712Z" fill="#D9D7DA"/><path d="M23.459 36.521c0-1.217-.01-1.186 1.112-.772 3.278 1.208 6.55 1.183 9.8-.125.81-.327.756-.333.816.505.13 1.806-.693 3.396-1.088 5.082-.114.486-.338.951-.415 1.441-.101.64-.468.942-1.038 1.162-2.41.927-4.776.873-7.121-.214a.73.73 0 0 1-.442-.514 490.77 490.77 0 0 0-1.537-5.249c-.128-.435-.07-.876-.087-1.316Z" fill="#FDDF9F"/><path d="M19.709 59.525c.007.36-.127.426-.449.42-1.165-.015-2.329-.005-3.494-.005l-1.354-.003-2.306-3.976.038-.004c.034-.002.07-.002.11-.001.562.024 1.125.016 1.687.004.493-.01.901-.053 1.169.576.26.612 1.265.492 1.476-.168.13-.403.325-.413.639-.408.702.01 1.406.016 2.109-.003.292-.009.376.089.371.375a90.604 90.604 0 0 0 .004 3.193Z" fill="#D9D7DA"/><path d="M20.161 11.394a9.044 9.044 0 0 1-.88 1.785c-1.037-.309-1.519.049-1.524 1.14-.005.942.007 1.886-.003 2.829-.01.992-.944 1.586-1.864 1.202-.144-.06-.165-.16-.161-.281.062-2.421-.185-4.854.24-7.262.007-.04.02-.078.03-.117.11-.407.16-.925.48-1.14.436-.291.696.286 1.017.486.851.532 1.808.848 2.665 1.36v-.002Zm1.458 47.763-.095.061c-.043-.069-.07-.135.02-.189l.075.129v-.001Zm18.155-54.88c-.02-.033-.064-.074-.057-.096.03-.082.09-.05.145-.02l-.088.116Z" fill="#B47E5E"/><path d="M29.266 28.876c-1.209-.024-2.34-.281-3.3-1.069-.461-.378-.564-.903-.261-1.313.309-.418.817-.465 1.33-.125 1.44.956 3.134.959 4.554.007.513-.344 1.02-.303 1.332.107.325.424.213.952-.287 1.353-.857.687-2.078 1.064-3.37 1.04h.002Zm-5.79-10.633c-.32 0-.64.017-.957-.003-.515-.033-.816-.337-.845-.837-.028-.47.216-.827.698-.898a7.341 7.341 0 0 1 2.322.007c.481.084.704.435.666.919-.037.485-.326.765-.805.804-.357.028-.719.006-1.078.006v.004-.002Zm11.59-.006c-.339 0-.681.028-1.017-.006-.45-.045-.723-.318-.77-.775-.047-.481.16-.848.64-.936a6.85 6.85 0 0 1 2.38-.005c.48.08.703.45.66.923-.04.474-.33.767-.815.8-.358.023-.72.004-1.078.004v-.005Zm-10.633 2.507c-.017.219-.012.44-.053.654-.086.448-.377.69-.832.703-.454.014-.76-.206-.877-.65-.108-.412-.087-.833-.037-1.248.062-.533.391-.85.917-.83.524.02.829.35.858.892.009.159.001.319.001.478h.023Zm11.616-.004c-.024.217-.032.436-.073.65-.094.48-.401.725-.885.711-.482-.015-.785-.279-.841-.761a6.241 6.241 0 0 1-.024-1.014c.029-.581.365-.944.859-.965.477-.02.859.343.93.899.02.156.002.317.002.477.012 0 .022.002.033.003h-.001Z" fill="#220002"/><path d="m47.66 54.64-1.044 1.8-.076-.004c-.296-.017-.383.09-.365.375.006.122.013.245.013.367l-.967 1.666h-.007c-.493-.03-.81-.41-.844-.99-.027-.456.196-1.056-.1-1.323-.249-.225-.836-.072-1.274-.09-.656-.03-1.044-.378-1.034-.927.01-.546.397-.855 1.07-.886.432-.02 1.004.198 1.258-.105.212-.251.069-.802.08-1.221.018-.673.334-1.063.873-1.075.5-.013.86.341.932.911.06.489-.225 1.145.131 1.425.29.23.883.063 1.354.078Z" fill="#030303"/></g></svg><svg id="mail" viewBox="0 0 21 21" fill="none"><g clip-path="url(#clip0_973_3816)"><path d="M17.988 6.607c.006.047.012.094.012.143v7.5l-.005.154a3.129 3.129 0 0 1-2.966 2.966l-.154.005h-8.75a3.13 3.13 0 0 1-3.12-2.97L3 14.25v-7.5c0-.049.006-.096.012-.143.006-.048.012-.094.016-.143l5.261 5.26a3.134 3.134 0 0 0 3.977.37l.218-.164.223-.201.003-.004 5.262-5.261c.004.05.01.095.016.143Zm-2.913-2.974a3.119 3.119 0 0 1 2.352 1.33l.108.169-5.709 5.708-.12.11a1.883 1.883 0 0 1-.861.407l-.16.023-.188.008a1.88 1.88 0 0 1-1.323-.547l-5.71-5.71a3.118 3.118 0 0 1 2.661-1.506h8.75l.2.008Z" fill="#fff"/></g><defs><clipPath id="clip0_973_3816"><path fill="#fff" transform="translate(3 3)" d="M0 0h15v15H0z"/></clipPath></defs></svg><svg id="mask" width="25" height="25" viewBox="0 0 25 25" fill="none"><g clip-path="url(#clip0_364_4030)"><path d="M23.1.957a4.73 4.73 0 0 0-4.182-.766L9.672 2.867a7.562 7.562 0 0 1-1.355.26c-1.055.102-2.959.41-3.87 1.32-.91.911-1.216 2.813-1.32 3.866a7.571 7.571 0 0 1-.26 1.357L.193 18.916A4.721 4.721 0 0 0 .959 23.1 4.72 4.72 0 0 0 4.764 25h6.68c.187 0 4.654-.051 9.08-4.477S25 11.63 25 11.442v-6.68c0-1.51-.693-2.897-1.9-3.806v.001Zm-3.603 1.238a2.655 2.655 0 0 1 2.35.43 2.65 2.65 0 0 1 1.067 2.137v5.205L16.12 3.17l3.378-.977ZM2.626 21.847a2.657 2.657 0 0 1-.431-2.351l.978-3.378 6.796 6.796H4.764a2.652 2.652 0 0 1-2.137-1.068h-.001Zm13.12-12.522-6.42 6.422-1.475-1.475 6.42-6.422 1.476 1.475Zm1.476 1.476 1.475 1.475-6.421 6.42-1.475-1.474 6.42-6.421Z" fill="#BF1F1F"/></g></svg><svg id="menu-right" width="6" height="10" viewBox="0 0 6 10" fill="none"><path d="m.75 8.75 4-4-4-4" stroke="#BF1F1F" stroke-width="1.5" stroke-linecap="round" stroke-linejoin="round"/></svg><svg id="money" viewBox="0 0 24 24" fill="none"><path d="M12 13c0 1.657-2.686 3-6 3s-6-1.343-6-3 2.686-3 6-3 6 1.343 6 3Zm0 5.5v2c0 1.995-2.579 3.5-6 3.5s-6-1.505-6-3.5v-2C0 20.471 2.5 22 6 22s6-1.529 6-3.5Zm0-4v2c0 1.995-2.579 3.5-6 3.5s-6-1.505-6-3.5v-2C0 16.471 2.5 18 6 18s6-1.529 6-3.5ZM18 6h-8v2h8V6Zm1-6H9C6.243 0 4 2.243 4 5v3.139A14.071 14.071 0 0 1 6 8c.698 0 1.367.048 2 .139V6c0-1.103.897-2 2-2h8c1.103 0 2 .897 2 2v2c0 1.103-.897 2-2 2h-5.469c.655.574 1.112 1.25 1.328 2h1.14a1 1 0 0 1 1 1v1a1 1 0 0 1-1 1h-1v2h5a1 1 0 1 1 0 2h-5v1.5c0 1.365-.617 2.569-1.687 3.5h6.687c2.757 0 5-2.243 5-5V5c0-2.757-2.242-5-4.999-5Zm1 14a1 1 0 1 1-2 0v-1a1 1 0 1 1 2 0v1Z" fill="currentColor"/></svg><svg id="pay-card" viewBox="0 0 24 23" fill="none"><g clip-path="url(#clip0_364_1303)"><path d="M18.094 1.618c-1.069.177-2.977.496-4.242.704C4.467 3.873 4.158 3.927 3.9 4.051c-.483.23-.825.62-.97 1.108-.094.306-.08.709.047 1.343l.08.412 7.415.013c6.994.009 7.425.018 7.692.093.886.253 1.664.864 2.053 1.622.357.692.361.736.361 3.656 0 2.23.01 2.549.07 2.549.202 0 1.997-.328 2.213-.408.361-.129.806-.527.98-.886.262-.546.276-.453-.703-5.709l-.947-5.03c-.136-.651-.52-1.139-1.088-1.387-.473-.204-.773-.186-3.009.19Z" fill="currentColor"/><path d="M1.369 8.27c-.694.173-1.294.816-1.36 1.445l-.023.213h19.243l-.034-.213c-.07-.492-.501-1.072-.951-1.29-.488-.235-.103-.226-8.682-.221-6.735 0-7.982.009-8.193.066ZM0 12.742v1.528h19.219v-3.058H0v1.53Zm.01 5.105.013 2.296.136.266c.178.341.535.678.895.846l.282.129h16.5l.304-.138a1.97 1.97 0 0 0 .82-.704c.244-.39.258-.537.258-2.846v-2.14H-.005l.014 2.291Zm5.887.745c.45.257.45.85 0 1.108-.146.084-.24.088-1.913.088s-1.767-.004-1.912-.088c-.535-.306-.413-1.037.197-1.18.08-.017.895-.03 1.809-.026 1.575.01 1.673.014 1.819.098Z" fill="currentColor"/></g></svg><svg id="pay-cash" viewBox="0 0 23 21" fill="none"><g clip-path="url(#clip0_364_1292)"><path d="M2.577 20.866C1.224 20.686.138 19.648 0 18.27L.006 3.445C.06 2.426 1.346.977 2.377.977H9.15L6.096 2.83c-1.011.077-2.097-.066-3.1.009-1.514.112-1.364 1.804-.177 1.913l16.343-.002c.658-.004 1.665.884 1.665 1.532v2.242c-2.005-.005-3.97-.239-5.46 1.355-2.185 2.335-1.093 6.204 1.987 7.023.154.04.52.146.654.146h2.82v2.286c0 .673-1.015 1.452-1.643 1.532H2.577v-.001Z" fill="currentColor"/><path d="M22.736 10.477v4.662c-.158.25-.274.453-.6.488-1.493-.179-3.863.401-5.151-.398-2.378-1.476-1.444-5.082 1.331-5.286 1.205-.089 2.516.07 3.732.001.348.04.547.23.688.533Zm-4.407 1.387c-1.045.16-1.04 1.712-.052 1.85 1.565.219 1.413-2.058.052-1.85Zm-1.986-8.046H7.24L13.337.124c.365-.227.765-.135 1 .216l2.006 3.477Zm1.642-.111c0 .01.085.059.022.067h-.065L16.387.998c.583.02 1.205.518 1.443 1.043.024.053.155.4.155.422 0 .413-.014.83 0 1.243Z" fill="currentColor"/></g></svg><svg id="pay-credit" viewBox="0 0 24 24" fill="none"><g clip-path="url(#clip0_364_1357)"><path d="M4.51 0c.156.081.585.443.585.61v1.086H8.49V.609c0-.166.43-.528.584-.609h.531c.156.081.584.443.584.61v1.086h3.397V.609c0-.166.428-.528.584-.609h.53c.156.081.585.443.585.61v1.086c1.034.08 2.278-.308 3.023.611.12.148.373.622.373.794v1.988H0V3.101c0-.204.28-.686.426-.847.78-.86 1.944-.476 2.97-.558V.609c0-.166.43-.528.585-.609h.53Zm19.265 18.873c-.277.43-1.113 1.433-1.625 1.482-.145.014-.224-.02-.353-.062-.276-.092-1.277-1.07-1.368-1.337-.19-.558.14-.977.64-1.171-.513-1.332-1.947-2.008-3.305-1.496-.52.196-1.053.737-1.607.149-.625-.663-.009-1.271.601-1.578 2.492-1.251 5.586.212 6.062 2.954.465-.067.784.238.955.636v.424Z" fill="currentColor"/><path d="M18.68 6.787v5.938c-2.02.072-4.827 1.106-4.429 3.608-.607.361-1.304.986-1.753 1.534a2.558 2.558 0 0 0-.451 2.492H1.407C.867 20.36 0 19.492 0 18.954V6.787h18.68Zm-6.966 3.406c-.164.029-.316.143-.438.25l-5.118 5.12c-.67.824.361 1.825 1.192 1.19l5.173-5.17a.851.851 0 0 0-.809-1.391Zm-5.04.846c-1.25.184-.702 2.17.51 1.573.836-.411.408-1.707-.51-1.573Zm5.094 3.394c-1.25.183-.702 2.169.51 1.572.836-.41.408-1.707-.51-1.572Zm4.525 5.925c.464 1.31 1.852 1.973 3.182 1.562.572-.177.916-.691 1.562-.39.426.199.557.661.416 1.094-.14.427-1.15.865-1.564.982-2.428.683-4.82-.77-5.372-3.196-.067-.089-.255-.036-.362-.064-.448-.116-.647-.623-.546-1.052.057-.242.922-1.137 1.148-1.291.393-.27.74-.236 1.112.048.237.18 1.021.987 1.088 1.245.127.492-.186.947-.665 1.063h.001Z" fill="currentColor"/></g></svg><svg id="pay-qr" viewBox="0 0 24 24" fill="none"><g clip-path="url(#clip0_364_1325)"><path d="M1.991 1.183a1.177 1.177 0 0 0-.652.498l-.14.239v8.226l.13.229c.072.121.233.294.352.38l.227.153 4.146.015c2.924.01 4.208 0 4.348-.04.108-.031.29-.138.398-.234.383-.34.368-.117.352-4.702l-.015-4.093-.156-.224a1.555 1.555 0 0 0-.388-.345l-.233-.127-4.114-.01c-2.262-.005-4.177.01-4.255.035ZM7.027 4.49c.27.081.56.325.673.574.078.173.098.335.098.97 0 .843-.051 1.04-.341 1.305-.275.254-.466.294-1.3.294-.88 0-1.076-.055-1.345-.38-.238-.28-.285-.523-.264-1.326.015-.66.026-.72.155-.944.145-.234.383-.417.652-.498.213-.066 1.45-.06 1.672.005Zm7.076-3.286c-.295.101-.44.213-.6.446l-.14.214-.016 4.088c-.015 4.575-.03 4.357.352 4.697.11.096.29.203.399.234.14.04 1.423.05 4.348.04l4.145-.015.228-.152c.12-.087.28-.26.352-.381l.13-.229V1.92l-.145-.24a1.063 1.063 0 0 0-.389-.38l-.243-.142-4.115-.01c-3.343-.01-4.15 0-4.306.056Zm5.3 3.397c.16.091.295.223.388.38.135.224.145.28.16.945.021.803-.025 1.046-.263 1.326-.27.325-.466.38-1.346.38-.833 0-1.025-.04-1.3-.294-.289-.264-.34-.462-.34-1.305 0-.874.061-1.077.382-1.326.31-.243.456-.274 1.3-.259.745.01.786.016 1.02.153ZM1.898 13.122c-.228.092-.466.3-.585.518l-.114.213v8.227l.145.239c.093.157.228.29.388.38l.244.143h8.384l.233-.127c.124-.071.3-.229.388-.346l.156-.223.015-4.068c.01-2.843 0-4.128-.041-4.265-.073-.249-.337-.538-.595-.65-.197-.086-.45-.097-4.348-.091-2.593 0-4.187.02-4.27.05Zm5.253 3.342c.114.05.27.157.347.238.259.27.3.457.3 1.275 0 .863-.057 1.056-.388 1.32-.285.234-.533.28-1.35.26-.679-.016-.736-.026-.963-.158a1.064 1.064 0 0 1-.389-.381c-.134-.224-.145-.28-.16-.945-.02-.802.026-1.046.264-1.325.269-.325.466-.38 1.356-.38.647 0 .813.02.983.096Zm6.832-3.306c-.258.117-.522.406-.595.655-.036.122-.052.503-.041 1.015l.015.818.155.223c.088.122.264.275.389.346.212.117.3.127.947.142l.709.02v1.214c0 1.366.02 1.462.388 1.762.27.218.497.264 1.268.264s1-.046 1.268-.264c.378-.305.389-.37.389-1.96v-1.422l-.166-.244a1.317 1.317 0 0 0-.378-.36c-.186-.102-.28-.117-.916-.117h-.704l-.02-.7c-.016-.63-.027-.717-.146-.925a1.456 1.456 0 0 0-.352-.38l-.227-.153-.885-.015c-.777-.01-.916 0-1.098.08Zm5.477.035a1.095 1.095 0 0 0-.41.34c-.15.209-.15.214-.165 1.113-.021 1.02.02 1.163.377 1.457.27.218.497.264 1.268.264.772 0 1-.046 1.268-.264.358-.294.4-.437.378-1.457-.015-.9-.015-.904-.165-1.112a1.079 1.079 0 0 0-.41-.34c-.248-.123-.31-.128-1.07-.128-.761 0-.823.005-1.072.127Zm-5.477 6.465c-.258.117-.522.406-.595.655-.036.122-.052.503-.041 1.015l.015.818.155.223c.088.122.264.275.389.346.222.122.269.127 1.112.127.958 0 1.04-.02 1.341-.31.295-.294.316-.376.316-1.315 0-.828-.005-.874-.13-1.092a1.456 1.456 0 0 0-.352-.38l-.227-.153-.885-.015c-.777-.01-.916 0-1.098.08Zm5.477.035a1.095 1.095 0 0 0-.41.34c-.15.209-.15.214-.165 1.113-.021 1.02.02 1.163.377 1.457.27.218.497.264 1.268.264.772 0 1-.046 1.268-.264.358-.294.4-.437.378-1.457-.015-.9-.015-.904-.165-1.112a1.079 1.079 0 0 0-.41-.34c-.248-.122-.31-.128-1.07-.128-.761 0-.823.006-1.072.127Z" fill="currentColor"/></g></svg><svg id="pay-spb" viewBox="0 0 34 34" fill="none"><path d="M6.795 7.546c.747 1.436 1.614 2.822 2.336 4.262-.023.9.023 1.8.03 2.698.009.93 0 1.86 0 2.79v.123c-.799-.49-1.597-.983-2.397-1.472V7.516h.03v.03Z" fill="currentColor"/><path d="M6.763 15.947c.8.49 1.599.983 2.398 1.472 2.266 1.387 4.529 2.782 6.794 4.17h-4.58c-.735-.455-1.477-.9-2.214-1.35-.794-.484-1.607-.956-2.398-1.44-.75-.46-1.515-.946-2.274-1.41-.705-.431-1.39-.902-2.121-1.288C1.585 14.678.755 13.276 0 11.839c2.254 1.369 4.512 2.733 6.762 4.108ZM34 15.841v4.844h-1.707a.296.296 0 0 1-.046-.046v-3.326h-1.63v3.372h-1.751v-4.798c0-.004.043-.046.046-.046h5.087Z" fill="currentColor"/><path d="M0 11.839c.755 1.436 1.585 2.838 2.368 4.261v2.545C1.59 20.072.758 21.473 0 22.907V11.84Zm15.955 9.75-9.16 5.61 2.367-4.26c.75-.428 1.495-.871 2.213-1.35h4.58Zm-.061-8.494-4.457.062h-.062l-2.244-1.35c-.722-1.44-1.588-2.826-2.336-4.261 3.027 1.857 6.09 3.663 9.099 5.55Z" fill="currentColor"/><path d="M9.162 20.24v2.698L6.795 27.2l-.031-8.401c.79.484 1.603.956 2.398 1.44Zm12.076-2.992c-.316-.087-.625-.273-.964-.302-1.913-.16-1.885 2.537-.034 2.387.326-.026.64-.147.942-.26l.645 1.183c-1.468.852-3.837.475-4.405-1.294-.779-2.425 1.902-4.106 4.016-3.208.084.035.449.206.45.286l-.65 1.208Zm-9.803-4.09c1.44.011 2.88-.016 4.32-.001.052 0 .136-.02.168.031-2.168 1.313-4.323 2.65-6.488 3.968-.086.053-.174.117-.274.141 0-.93.007-1.86 0-2.79l2.213-1.35h.061Zm-4.672 5.64L0 22.907c.758-1.435 1.59-2.836 2.368-4.262.728-.373 1.401-.861 2.12-1.257.76.465 1.524.95 2.275 1.41Z" fill="currentColor"/><path d="M15.894 13.096a.202.202 0 0 0 .093.031l-.062.06c-.032-.05-.117-.03-.169-.03-1.44-.015-2.88.012-4.319 0l4.457-.061Zm11.336 2.31c-.54.048-1.135-.042-1.669.007-.653.06-1.279.656-1.368 1.304-.007.054-.011.048.03.03.11-.05.254-.195.38-.267 1.267-.724 3.018-.168 3.362 1.318.501 2.167-1.463 3.453-3.434 2.965-2.999-.743-2.453-6.528.814-6.762l2.628-.028-.742 1.433Zm-1.707 4.107c1.114-.153 1.126-2.256-.383-2.038-1.137.163-1.02 2.229.383 2.038Z" fill="currentColor"/></svg><svg id="pay-transfer" viewBox="0 0 24 24" fill="none"><path d="M17.478.306c-.91.12-1.828.46-2.198.814-.267.258-.352.437-.38.8-.019.267-.005.345.099.557.145.29.29.432.66.648.952.561 3.024.773 4.74.488 1.504-.253 2.273-.8 2.273-1.624 0-.79-.675-1.306-2.11-1.605-.36-.073-.665-.096-1.593-.106-.633-.009-1.303.005-1.49.028ZM6.322 3.083A3.897 3.897 0 0 0 3.35 5.89c-.089.33-.098.52-.121 1.853l-.02 1.486-.337-.318c-.29-.28-.365-.326-.557-.354-.291-.041-.62.11-.746.345-.103.193-.108.51-.019.68.038.07.516.562 1.07 1.1 1.415 1.38 1.284 1.38 2.704 0 .548-.538 1.026-1.04 1.064-1.122a.725.725 0 0 0-.816-1.003c-.126.023-.262.12-.539.382l-.37.354.019-1.426c.023-1.61.056-1.775.403-2.304.314-.469.736-.8 1.256-.993.267-.097.361-.101 2.433-.129l2.156-.023.155-.106c.225-.16.304-.345.281-.657-.023-.29-.122-.446-.375-.575-.183-.092-4.233-.088-4.669.004ZM14.89 5.31v1.052l.155.092c.225.138.82.36 1.238.465.834.211 1.251.253 2.498.253 1.04 0 1.275-.014 1.805-.106.698-.12 1.205-.267 1.725-.497l.36-.165V5.328c0-.594-.013-1.072-.032-1.063-.952.474-1.706.676-2.953.778-1.134.091-2.452-.005-3.422-.263-.431-.11-1.036-.345-1.21-.46a.357.357 0 0 0-.126-.064c-.023 0-.038.474-.038 1.053Zm0 3.094c0 .387.024.782.047.874.075.253.46.64.83.833.698.354 1.42.492 2.756.524.746.018 1.125.005 1.552-.05 1.303-.166 2.189-.576 2.475-1.141.117-.226.122-.276.122-.984v-.75l-.436.202c-.83.387-1.777.575-3.085.607-1.65.046-2.953-.17-3.942-.657l-.319-.157v.7Zm3.587 4.011c-.188.087-2.068 1.945-2.133 2.11-.207.548.276 1.095.853.976.103-.023.277-.152.52-.387l.37-.35-.018 1.426c-.019 1.302-.033 1.454-.122 1.73-.197.588-.713 1.19-1.242 1.44-.516.248-.642.257-2.799.257-1.851 0-2.006.004-2.156.087-.492.253-.51.961-.037 1.246.15.092.215.092 2.404.083l2.25-.014.445-.147c1.027-.34 1.82-1.012 2.279-1.922.375-.745.403-.934.43-2.635l.02-1.486.337.317c.286.272.37.327.549.355.267.036.567-.074.703-.263.112-.151.164-.464.117-.666-.042-.161-1.955-2.065-2.17-2.157a.797.797 0 0 0-.6 0ZM2.59 13.477c-.576.079-1.209.258-1.588.442-.638.308-.924.69-.924 1.232 0 .552.305.93 1.013 1.256 1.434.658 4.33.653 5.76-.01.465-.21.732-.436.886-.744.226-.446.155-.906-.206-1.293-.375-.4-.984-.671-1.908-.841-.571-.106-2.395-.129-3.032-.042ZM.078 18.48v1.077l.366.166c.689.312 1.425.492 2.423.588.783.074 2.236.028 2.94-.092.618-.106 1.448-.359 1.794-.547l.235-.124.014-1.072c.005-.584.005-1.067-.01-1.067-.009 0-.112.05-.23.115-1.677.92-5.39.943-7.213.042l-.319-.157v1.072Zm0 3.128c0 .718.005.76.122.994.258.51.956.874 2.105 1.095.61.119 2.718.119 3.328 0 1.087-.212 1.842-.603 2.119-1.1.07-.124.089-.29.098-.947l.019-.796-.338.166c-.872.432-1.81.62-3.248.653-1.688.041-2.902-.161-3.886-.653l-.319-.157v.745Z" fill="currentColor"/></svg><svg id="phone" viewBox="0 0 21 21" fill="none"><g clip-path="url(#clip0_973_3811)"><path d="M18.29 9.791a.709.709 0 0 1-.708-.708 5.672 5.672 0 0 0-5.667-5.667.709.709 0 0 1 0-1.417A7.091 7.091 0 0 1 19 9.083a.708.708 0 0 1-.709.708Zm-2.125-.708a4.25 4.25 0 0 0-4.25-4.25.709.709 0 0 0 0 1.416 2.833 2.833 0 0 1 2.834 2.834.708.708 0 0 0 1.416 0Zm1.547 8.616.644-.743a2.196 2.196 0 0 0 0-3.1c-.022-.023-1.726-1.334-1.726-1.334a2.196 2.196 0 0 0-3.032.005l-1.35 1.137a9.056 9.056 0 0 1-4.91-4.919L8.47 7.4a2.196 2.196 0 0 0 .005-3.033S7.163 2.664 7.14 2.642a2.183 2.183 0 0 0-3.064-.032l-.815.708C-1.55 8.901 8.812 19.184 14.58 19a4.36 4.36 0 0 0 3.132-1.3Z" fill="currentColor"/></g><defs><clipPath id="clip0_973_3811"><path fill="currentColor" transform="translate(2 2)" d="M0 0h17v17H0z"/></clipPath></defs></svg><svg id="pills" width="25" height="25" viewBox="0 0 25 25" fill="none"><g clip-path="url(#clip0_364_90)"><path d="M12.769 22.217a6.728 6.728 0 0 1-1.31-3.988 6.779 6.779 0 0 1 6.77-6.77 6.73 6.73 0 0 1 3.988 1.31l-9.448 9.448Zm1.473 1.473A6.727 6.727 0 0 0 18.228 25 6.779 6.779 0 0 0 25 18.23a6.73 6.73 0 0 0-1.31-3.988l-9.447 9.447Zm-1.743-12.232V6.25A6.258 6.258 0 0 0 6.249 0 6.257 6.257 0 0 0 0 6.25v5.208h12.5-.001ZM9.374 18.23c0-1.724.5-3.327 1.352-4.687H0v5.208A6.258 6.258 0 0 0 6.25 25c1.79 0 3.404-.762 4.545-1.973a8.803 8.803 0 0 1-1.42-4.798h-.001Z" fill="#BF1F1F"/></g></svg><svg id="pulse" width="25" height="25" viewBox="0 0 25 25" fill="none"><g clip-path="url(#clip0_364_976)"><path d="M19.792 1.042H5.208A5.215 5.215 0 0 0 0 6.25v8.333a5.215 5.215 0 0 0 5.208 5.209h6.25v2.083H7.292a1.041 1.041 0 1 0 0 2.083h10.416a1.041 1.041 0 1 0 0-2.083h-4.166v-2.083h6.25A5.214 5.214 0 0 0 25 14.583V6.25a5.215 5.215 0 0 0-5.208-5.208Zm0 10.416h-3.089l-1.77 2.662a1.042 1.042 0 0 1-.87.463h-.065a1.04 1.04 0 0 1-.868-.574l-2.322-4.646-1.087 1.632a1.042 1.042 0 0 1-.867.463H5.208a1.041 1.041 0 1 1 0-2.083h3.089l1.77-2.661a1.029 1.029 0 0 1 .935-.464 1.042 1.042 0 0 1 .868.574l2.322 4.645 1.087-1.632a1.042 1.042 0 0 1 .867-.462h3.646a1.042 1.042 0 0 1 0 2.083Z" fill="#BF1F1F"/></g></svg><svg id="search" viewBox="0 0 24 24"><path d="m22.599 20.659-4.259-4.26a9.63 9.63 0 1 0-1.94 1.94l4.26 4.26a1.37 1.37 0 1 0 1.939-1.938v-.002Zm-11.933-3.142a6.852 6.852 0 1 1 6.852-6.852 6.86 6.86 0 0 1-6.852 6.852Z"/></svg><svg id="scale" viewBox="0 0 64 64" fill="none" xmlns="http://www.w3.org/2000/svg"><path d="M5.512 11.08c9.145-12.22 26.467-14.714 38.69-5.569 12.22 9.145 14.714 26.465 5.568 38.686l-1.556 2.08 14.48 14.484v.008l.906.907a1.36 1.36 0 1 1-1.925 1.925L46.282 48.209l-2.08 1.557a27.642 27.642 0 0 1-33.121 0C-1.141 40.62-3.634 23.3 5.51 11.08Zm22.242-8.129c-13.698 0-24.802 11.103-24.802 24.8 0 13.698 11.104 24.801 24.802 24.801h.003c13.69-.014 24.785-11.108 24.8-24.797v-.004c0-13.697-11.106-24.8-24.803-24.8Z" fill="#fff"/></svg><svg id="slider-left" width="9" height="16" viewBox="0 0 9 16" fill="none"><path d="m7.75.75-7 7 7 7" stroke="#FBF6F6" stroke-width="1.5" stroke-linecap="round" stroke-linejoin="round"/></svg><svg id="slider-right" width="9" height="16" viewBox="0 0 9 16" fill="none"><path d="m.75.75 7 7-7 7" stroke="#FBF6F6" stroke-width="1.5" stroke-linecap="round" stroke-linejoin="round"/></svg><svg id="socials-tg" width="32" height="32" viewBox="0 0 32 32" fill="none"><path fill-rule="evenodd" clip-rule="evenodd" d="M16 0C7.164 0 0 7.164 0 16s7.164 16 16 16 16-7.164 16-16S24.836 0 16 0Zm7.416 10.881c-.24 2.53-1.283 8.67-1.812 11.503-.224 1.2-.667 1.601-1.093 1.64-.93.085-1.635-.615-2.535-1.204-1.408-.923-2.204-1.497-3.57-2.399-1.58-1.041-.557-1.613.343-2.548.236-.245 4.33-3.969 4.41-4.306.009-.043.02-.2-.075-.283-.095-.083-.232-.055-.33-.032-.142.032-2.391 1.519-6.75 4.46-.639.439-1.217.652-1.736.641-.57-.012-1.67-.322-2.487-.589-1.001-.325-1.798-.499-1.729-1.05.036-.289.432-.583 1.19-.885 4.663-2.032 7.774-3.372 9.33-4.02 4.444-1.848 5.367-2.169 5.97-2.18.754-.01.935.612.874 1.252Z" fill="#fff"/></svg><svg id="socials-vk" width="32" height="32" viewBox="0 0 32 32" fill="none"><rect width="32" height="32" rx="16" fill="#fff"/><path d="M24.579 21.334h-2.042c-.778 0-1.007-.598-2.392-1.93-1.212-1.124-1.731-1.27-2.033-1.27-.412 0-.535.112-.535.674v1.761c0 .483-.16.765-1.458.765-2.163 0-4.541-1.264-6.23-3.595-2.531-3.414-3.223-5.995-3.223-6.515 0-.292.117-.556.7-.556H9.41c.521 0 .717.22.913.764 1 2.798 2.684 5.245 3.376 5.245.259 0 .378-.116.378-.75v-2.892c-.076-1.332-.812-1.442-.812-1.916 0-.219.195-.45.519-.45h3.21c.433 0 .583.221.583.721v3.892c0 .416.188.562.317.562.26 0 .476-.146.952-.604 1.472-1.582 2.51-4.017 2.51-4.017.13-.292.369-.556.89-.556h2.04c.618 0 .749.305.618.722-.26 1.145-2.748 4.517-2.748 4.517-.217.333-.303.5 0 .874.217.292.93.875 1.406 1.416.878.95 1.54 1.75 1.724 2.302.17.555-.123.836-.706.836Z" fill="#AD2C2C"/></svg><svg id="socials-wa" width="32" height="32" viewBox="0 0 32 32" fill="none"><g clip-path="url(#clip0_364_1395)"><path d="M16 0C7.164 0 0 7.164 0 16s7.164 16 16 16 16-7.164 16-16S24.836 0 16 0Z" fill="#fff"/><path d="M16.207 6.995c2.351 0 4.56.916 6.22 2.578A8.742 8.742 0 0 1 25 15.795c-.001 4.848-3.947 8.792-8.793 8.792h-.004a8.775 8.775 0 0 1-4.201-1.07L7.34 24.739l1.248-4.555a8.78 8.78 0 0 1-1.174-4.397c.003-4.848 3.946-8.792 8.793-8.792Zm-3.238 4.743a.86.86 0 0 0-.461.263c-.202.22-.77.75-.77 1.832s.787 2.127.898 2.273c.103.14 1.375 2.098 3.348 3.125.132.069.267.133.405.193.524.227.932.361 1.252.463a3.02 3.02 0 0 0 1.383.086c.423-.063 1.3-.53 1.484-1.044l.004-.001c.183-.512.183-.952.128-1.044a.205.205 0 0 0-.026-.033.307.307 0 0 0-.033-.03c-.075-.06-.199-.11-.363-.193-.221-.11-1.3-.64-1.501-.715-.202-.073-.349-.11-.495.11-.147.22-.568.715-.697.862a.542.542 0 0 1-.097.086c-.101.062-.214.051-.378-.032-.11-.055-.343-.14-.652-.305a5.831 5.831 0 0 1-1.115-.784 6.56 6.56 0 0 1-1.223-1.523c-.128-.22-.014-.34.096-.448.1-.098.22-.257.33-.385.11-.128.145-.22.22-.366a.387.387 0 0 0 .035-.107.389.389 0 0 0-.018-.192.68.68 0 0 0-.037-.086c-.055-.11-.494-1.192-.677-1.632-.178-.428-.36-.37-.494-.377a8.907 8.907 0 0 0-.421-.007.683.683 0 0 0-.125.011Z" fill="#AD2D2D"/></g></svg><svg id="socials-yt" width="32" height="32" viewBox="0 0 32 32" fill="none"><rect width="32" height="32" rx="16" fill="#fff"/><path d="M24.942 11.415a2.363 2.363 0 0 0-1.65-1.685c-1.455-.397-7.293-.397-7.293-.397s-5.837 0-7.293.397a2.362 2.362 0 0 0-1.65 1.685C6.666 12.9 6.666 16 6.666 16s0 3.099.39 4.584c.215.82.847 1.466 1.65 1.685 1.456.397 7.293.397 7.293.397s5.838 0 7.294-.397a2.364 2.364 0 0 0 1.65-1.684c.39-1.486.39-4.585.39-4.585s0-3.1-.39-4.585Zm-10.851 7.4v-5.63L18.969 16l-4.878 2.814Z" fill="#AD2C2C"/></svg><svg id="star" width="21" height="20" viewBox="0 0 21 20" fill="none"><path d="M9.165.593c.352-.79 1.474-.79 1.826 0l2.167 4.861a1 1 0 0 0 .809.588l5.293.558c.86.091 1.207 1.158.564 1.738L15.87 11.9a1 1 0 0 0-.308.95l1.104 5.207c.18.846-.728 1.506-1.478 1.073l-4.61-2.659a1 1 0 0 0-1 0l-4.61 2.66c-.75.432-1.658-.228-1.478-1.074l1.104-5.207a1 1 0 0 0-.308-.95L.332 8.338C-.311 7.758.036 6.69.896 6.6l5.293-.558a1 1 0 0 0 .809-.588L9.165.593Z" fill="#BA1A1A"/></svg><svg id="star-empty" viewBox="0 0 21 20" fill="none"><path d="M9.164.593c.352-.79 1.475-.79 1.827 0l2.167 4.861a1 1 0 0 0 .809.587l5.293.56c.86.09 1.207 1.158.564 1.737L15.87 11.9a1 1 0 0 0-.309.95l1.105 5.208c.18.846-.73 1.505-1.479 1.073l-4.61-2.66a1 1 0 0 0-1 0l-4.61 2.66c-.75.432-1.656-.227-1.477-1.073l1.104-5.207a1 1 0 0 0-.309-.95L.332 8.337C-.311 7.758.036 6.69.896 6.6l5.293-.56a1 1 0 0 0 .808-.587L9.164.593Z" fill="#C42C32" fill-opacity=".2"/></svg><svg id="star-half" viewBox="0 0 21 20" fill="none"><path d="M10.078 16.338a1 1 0 0 0-.5.134l-4.61 2.659c-.75.432-1.658-.227-1.478-1.073l1.105-5.207a1.001 1.001 0 0 0-.31-.95L.332 8.337C-.311 7.758.036 6.69.896 6.6l5.293-.559c.355-.038.664-.262.809-.588L9.165.593A.987.987 0 0 1 10.078 0v16.338Z" fill="#BA1A1A"/><path d="M10.078 0c.369 0 .737.198.913.593l2.167 4.861a1 1 0 0 0 .809.588l5.293.559c.86.09 1.207 1.157.564 1.737L15.87 11.9a1 1 0 0 0-.308.95l1.104 5.208c.18.846-.728 1.505-1.478 1.073l-4.61-2.66a1 1 0 0 0-.5-.133V0Z" fill="#C42C32" fill-opacity=".2"/></svg><svg id="star-yellow" viewBox="0 0 21 20" fill="none"><path d="M9.165.593c.352-.79 1.474-.79 1.826 0l2.167 4.861a1 1 0 0 0 .809.588l5.293.558c.86.091 1.207 1.158.564 1.738L15.87 11.9a1 1 0 0 0-.308.95l1.104 5.207c.18.846-.728 1.506-1.478 1.073l-4.61-2.659a1 1 0 0 0-1 0l-4.61 2.66c-.75.432-1.658-.228-1.478-1.074l1.104-5.207a1 1 0 0 0-.308-.95L.332 8.338C-.311 7.758.036 6.69.896 6.6l5.293-.558a1 1 0 0 0 .809-.588L9.165.593Z" fill="#FFC95C"/></svg><svg id="star-yellow-half" viewBox="0 0 21 20" fill="none"><path d="M10.078 16.338a1 1 0 0 0-.5.134l-4.61 2.659c-.75.432-1.658-.227-1.478-1.073l1.105-5.207a1.001 1.001 0 0 0-.31-.95L.332 8.337C-.311 7.758.036 6.69.896 6.6l5.293-.559c.355-.038.664-.262.809-.588L9.165.593A.987.987 0 0 1 10.078 0v16.338Z" fill="#FFC95C"/><path d="M10.078 0c.369 0 .737.198.913.593l2.167 4.861a1 1 0 0 0 .809.588l5.293.559c.86.09 1.207 1.157.564 1.737L15.87 11.9a1 1 0 0 0-.308.95l1.104 5.208c.18.846-.728 1.505-1.478 1.073l-4.61-2.66a1 1 0 0 0-.5-.133V0Z" fill="#FFC95C" fill-opacity=".3"/></svg><svg id="syringe" width="25" height="25" viewBox="0 0 25 25" fill="none"><g clip-path="url(#clip0_364_909)"><path d="m23.474 7.63 1.49-1.46-5.99-6.117-1.49 1.458 2.35 2.396-2.27 2.126-.95-.95a3.125 3.125 0 0 0-4.409-.01l3.34 3.34-1.473 1.473-3.343-3.34-1.65 1.652 3.34 3.34-1.472 1.473-3.343-3.34-1.65 1.652 3.34 3.34-1.472 1.473-3.343-3.34-1.354 1.356v6.25l-3.08 3.08 1.473 1.473 3.08-3.08h6.25l9.07-9.07a3.124 3.124 0 0 0 0-4.42l-.88-.878L21.293 5.4l2.182 2.23Z" fill="#BF1F1F"/></g></svg><svg id="warning" viewBox="0 0 30 30" fill="none"><g clip-path="url(#clip0_257_1500)"><path d="M13.268 3c.77-1.333 2.694-1.333 3.464 0l9.526 16.5c.77 1.333-.192 3-1.732 3H5.474c-1.54 0-2.502-1.667-1.732-3L13.268 3Z" fill="#BA1A1A"/><path d="m14.091 15.64-.154-6.552h2.156l-.168 6.552h-1.834Zm.91 3.486a1.27 1.27 0 0 1-1.036-.546 1.138 1.138 0 0 1-.182-.658c0-.27.056-.495.168-.672a1.1 1.1 0 0 1 .462-.392c.187-.093.387-.14.602-.14.308 0 .583.103.826.308.252.205.378.504.378.896 0 .261-.06.48-.182.658a1.105 1.105 0 0 1-.448.406c-.187.093-.383.14-.588.14Z" fill="#fff"/></g></svg><svg id="call" width="24" height="24" viewBox="0 0 24 24" fill="none" xmlns="http://www.w3.org/2000/svg"><g clip-path="url(#clip0_324_5333)"><path d="M15 7V3a1 1 0 0 1 2 0v2.613C17.63 4.981 21.7.887 22.293.3a1 1 0 0 1 1.414 1.414C23.115 2.3 19.064 6.373 18.439 7H21a1 1 0 1 1 0 2h-4a2 2 0 0 1-2-2Zm5.655 7.855a3.1 3.1 0 0 0-4.28.006l-1.906 1.606a12.786 12.786 0 0 1-6.932-6.943l1.6-1.9a3.109 3.109 0 0 0 .006-4.282S7.291.939 7.26.908A3.082 3.082 0 0 0 2.934.862l-1.15 1c-7.719 8.21 12.2 28.138 20.4 20.3l.912-1.05a3.1 3.1 0 0 0 0-4.377c-.033-.027-2.441-1.879-2.441-1.879v-.001Z" fill="currentColor"/></g><defs><clipPath id="clip0_324_5333"><path fill="currentColor" d="M0 0h24v24H0z"/></clipPath></defs></svg><svg id="tg" width="24" height="24" viewBox="0 0 24 24" fill="none" xmlns="http://www.w3.org/2000/svg"><path d="M23.99 3.822c-.334 3.689-1.772 12.645-2.504 16.776-.31 1.75-.92 2.335-1.511 2.392-1.283.123-2.258-.897-3.502-1.757-1.944-1.347-3.044-2.184-4.932-3.5-2.182-1.518-.769-2.353.477-3.717.324-.357 5.98-5.788 6.09-6.279.015-.062.027-.29-.102-.414-.129-.123-.321-.08-.457-.046-.195.046-3.302 2.215-9.322 6.508-.88.64-1.681.95-2.396.935-.789-.018-2.307-.473-3.436-.858-1.384-.476-2.484-.727-2.39-1.531.052-.422.6-.85 1.646-1.29 6.443-2.965 10.737-4.917 12.888-5.863C20.678 2.483 21.953 2.013 22.782 2c.183-.002.592.044.857.27.224.19.285.45.314.632.029.182.066.596.036.92Z" fill="#fff"/></svg><svg id="ok" width="112" height="112" viewBox="0 0 112 112" fill="none" xmlns="http://www.w3.org/2000/svg"><path d="M56 0C25.12 0 0 25.12 0 56s25.12 56 56 56 56-25.12 56-56S86.88 0 56 0Zm-.425 71.955a9.247 9.247 0 0 1-6.566 2.707 9.34 9.34 0 0 1-6.608-2.73L29.42 59.351l6.5-6.706 13.034 12.632 27.109-26.604 6.552 6.65-27.039 26.632Z" fill="#BF1F1F"/></svg><svg id="err" width="112" height="112" viewBox="0 0 112 112" fill="none" xmlns="http://www.w3.org/2000/svg"><path fill-rule="evenodd" clip-rule="evenodd" d="M56 0c30.88 0 56 25.12 56 56s-25.12 56-56 56S0 86.88 0 56 25.12 0 56 0Zm-.5 49.618L42.382 36.5 36 42.882 49.118 56 36 69.118l6.382 6.382L55.5 62.382 68.618 75.5 75 69.118 61.882 56 75 42.882 68.618 36.5 55.5 49.618Z" fill="#BF1F1F"/></svg><svg id="chat" width="24" height="24" viewBox="0 0 24 24" fill="none" xmlns="http://www.w3.org/2000/svg"><g clip-path="url(#clip0_324_5330)"><path d="M20.5 7C22.43 7 24 5.43 24 3.5S22.43 0 20.5 0 17 1.57 17 3.5 18.57 7 20.5 7Zm-4.408 12 .569.38A4.97 4.97 0 0 1 13 21H7.303l-3.964 2.644a2.082 2.082 0 0 1-1.19.356A2.14 2.14 0 0 1 0 21.854V9c0-2.437 1.755-4.466 4.065-4.906A6.937 6.937 0 0 0 4 5v7c0 3.859 3.141 7 7 7h5.092ZM24 7.739v10.115a2.147 2.147 0 0 1-3.34 1.789L16.697 17H11c-2.757 0-5-2.243-5-5V5c0-2.757 2.243-5 5-5h5.261A5.475 5.475 0 0 0 15 3.5C15 6.533 17.467 9 20.5 9A5.475 5.475 0 0 0 24 7.739Z" fill="#fff"/></g><defs><clipPath id="clip0_324_5330"><path fill="#fff" d="M0 0h24v24H0z"/></clipPath></defs></svg></svg>