<svg width="21" height="20" viewBox="0 0 21 20" fill="none" xmlns="http://www.w3.org/2000/svg">
<path d="M9.16388 0.592773C9.51623 -0.197692 10.6386 -0.197649 10.991 0.592773L13.158 5.4541C13.3033 5.78013 13.6116 6.00355 13.9666 6.04102L19.2596 6.60059C20.12 6.69166 20.4669 7.75857 19.824 8.33789L15.8699 11.9004C15.6048 12.1393 15.4874 12.5015 15.5613 12.8506L16.6658 18.0576C16.8452 18.9041 15.9369 19.5632 15.1873 19.1309L10.577 16.4717C10.2678 16.2936 9.88702 16.2934 9.57794 16.4717L4.96759 19.1309C4.21792 19.5632 3.31059 18.9042 3.49005 18.0576L4.59357 12.8506C4.66755 12.5015 4.55009 12.1393 4.28497 11.9004L0.331848 8.33789C-0.311065 7.7585 0.0356176 6.69143 0.896301 6.60059L6.18927 6.04102C6.54405 6.00344 6.85158 5.77994 6.99689 5.4541L9.16388 0.592773Z" fill="#C42C32" fill-opacity="0.2"/>
</svg>
