<svg width="21" height="20" fill="none" xmlns="http://www.w3.org/2000/svg"><path d="M10.078 16.338a1 1 0 0 0-.5.134l-4.61 2.659c-.75.432-1.658-.227-1.478-1.073l1.105-5.207a1.001 1.001 0 0 0-.31-.95L.332 8.337C-.311 7.758.036 6.69.896 6.6l5.293-.559c.355-.038.664-.262.809-.588L9.165.593A.987.987 0 0 1 10.078 0v16.338Z" fill="#FFC95C"/><path d="M10.078 0c.369 0 .737.198.913.593l2.167 4.861a1 1 0 0 0 .809.588l5.293.559c.86.09 1.207 1.157.564 1.737L15.87 11.9a1 1 0 0 0-.308.95l1.104 5.208c.18.846-.728 1.505-1.478 1.073l-4.61-2.66a1 1 0 0 0-.5-.133V0Z" fill="#FFC95C" fill-opacity=".3"/></svg>