<svg width="25" height="25" fill="none" xmlns="http://www.w3.org/2000/svg"><g clip-path="url(#a)"><path d="m23.474 7.63 1.49-1.46-5.99-6.117-1.49 1.458 2.35 2.396-2.27 2.126-.95-.95a3.125 3.125 0 0 0-4.409-.01l3.34 3.34-1.473 1.473-3.343-3.34-1.65 1.652 3.34 3.34-1.472 1.473-3.343-3.34-1.65 1.652 3.34 3.34-1.472 1.473-3.343-3.34-1.354 1.356v6.25l-3.08 3.08 1.473 1.473 3.08-3.08h6.25l9.07-9.07a3.124 3.124 0 0 0 0-4.42l-.88-.878L21.293 5.4l2.182 2.23Z" fill="#BF1F1F"/></g><defs><clipPath id="a"><path fill="#fff" d="M0 0h25v25H0z"/></clipPath></defs></svg>