<svg width="24" height="24" fill="none" xmlns="http://www.w3.org/2000/svg"><path d="M23.99 3.822c-.334 3.689-1.772 12.645-2.504 16.776-.31 1.75-.92 2.335-1.511 2.392-1.283.123-2.258-.897-3.502-1.757-1.944-1.347-3.044-2.184-4.932-3.5-2.182-1.518-.769-2.353.477-3.717.324-.357 5.98-5.788 6.09-6.279.015-.062.027-.29-.102-.414-.129-.123-.321-.08-.457-.046-.195.046-3.302 2.215-9.322 6.508-.88.64-1.681.95-2.396.935-.789-.018-2.307-.473-3.436-.858-1.384-.476-2.484-.727-2.39-1.531.052-.422.6-.85 1.646-1.29 6.443-2.965 10.737-4.917 12.888-5.863C20.678 2.483 21.953 2.013 22.782 2c.183-.002.592.044.857.27.224.19.285.45.314.632.029.182.066.596.036.92Z" fill="#fff"/></svg>